<svg width="512" height="512" xmlns:xlink="http://www.w3.org/1999/xlink" xmlns="http://www.w3.org/2000/svg"><defs><linearGradient id="a"><stop offset="0" stop-color="#d597ff"/><stop offset="1" stop-color="#fff8fd"/></linearGradient><linearGradient id="b"><stop offset="0" stop-color="#ab30ff"/><stop offset="1" stop-color="#ff87dd"/></linearGradient><linearGradient xlink:href="#a" id="c" gradientTransform="scale(.91155 1.09704)" x1="228.61" y1="21.99" x2="231.04" y2="21.99" gradientUnits="userSpaceOnUse"/><linearGradient xlink:href="#a" id="d" gradientTransform="scale(1.16771 .85638)" x1="208.96" y1="28.83" x2="210.76" y2="28.83" gradientUnits="userSpaceOnUse"/><linearGradient xlink:href="#a" id="e" gradientTransform="scale(1.10888 .9018)" x1="217.34" y1="23.12" x2="220.84" y2="23.12" gradientUnits="userSpaceOnUse"/><linearGradient xlink:href="#a" id="f" gradientUnits="userSpaceOnUse" x1="103.12" y1="47.14" x2="116.8" y2="52.61"/><linearGradient xlink:href="#a" id="g" gradientUnits="userSpaceOnUse" x1="105.62" y1="54.98" x2="120.37" y2="57.05"/><linearGradient xlink:href="#a" id="h" gradientUnits="userSpaceOnUse" x1="103.73" y1="50.97" x2="117.08" y2="50.97"/><linearGradient xlink:href="#a" id="i" gradientUnits="userSpaceOnUse" x1="87.23" y1="49.84" x2="96.16" y2="49.84"/><linearGradient xlink:href="#a" id="j" gradientUnits="userSpaceOnUse" x1="88.76" y1="41.09" x2="98.63" y2="41.09"/><linearGradient xlink:href="#b" id="k" gradientUnits="userSpaceOnUse" x1="87.56" y1="45.53" x2="91.93" y2="45.53"/><linearGradient xlink:href="#a" id="l" gradientUnits="userSpaceOnUse" x1="85.42" y1="37.14" x2="93.67" y2="37.14"/><linearGradient xlink:href="#a" id="m" gradientUnits="userSpaceOnUse" x1="80.07" y1="47.21" x2="88.56" y2="47.21"/><linearGradient xlink:href="#a" id="n" gradientTransform="scale(1.05735 .94576)" x1="209.56" y1="16.36" x2="212.98" y2="16.36" gradientUnits="userSpaceOnUse"/><linearGradient xlink:href="#a" id="o" gradientUnits="userSpaceOnUse" x1="50.72" y1="60.49" x2="60.89" y2="62.44" gradientTransform="translate(195.45 .83) scale(.37461)"/><linearGradient xlink:href="#a" id="p" gradientUnits="userSpaceOnUse" x1="64.6" y1="57.75" x2="64.54" y2="48.7" gradientTransform="translate(195.45 .83) scale(.37461)"/><linearGradient xlink:href="#a" id="q" gradientUnits="userSpaceOnUse" x1="64.24" y1="53.23" x2="60.49" y2="40.63" gradientTransform="translate(195.45 .83) scale(.37461)"/><linearGradient xlink:href="#a" id="r" gradientTransform="matrix(.38117 0 0 .36817 195.45 .83)" x1="42.53" y1="43.58" x2="54.08" y2="51.57" gradientUnits="userSpaceOnUse"/><linearGradient xlink:href="#a" id="s" gradientTransform="matrix(.371 0 0 .37826 195.45 .83)" x1="45.17" y1="55.9" x2="54.48" y2="63.4" gradientUnits="userSpaceOnUse"/></defs><circle style="-inkscape-stroke:hairline" cx="256" cy="256" r="256" vector-effect="non-scaling-stroke" fill="#fff"/><path d="M284.31 56.55a206.84 206.84 0 0 0-233.4 173.82 203.7 203.7 0 0 0 174.7 230.78 207.02 207.02 0 0 0 231.65-162.82C435 394.23 339.08 457.3 236.88 442.98c-108.22-15.11-183.7-110.93-168.67-214C83.24 125.9 183.16 54.63 291.31 69.65c79.22 11.1 144.12 66.56 164.2 140.55a204.48 204.48 0 0 0-171.2-153.65" fill="#d3f4d5"/><path d="M278.29 59.34A183.43 183.43 0 0 0 95.47 243.21a183.43 183.43 0 0 0 182.9 183.96c66.04 0 126.92-35.81 159.42-93.64a180.55 180.55 0 0 1-152.6 82.55c-98.97 0-179.33-77.92-179.33-174 0-96.17 80.36-174.09 179.33-174.09 53.28 0 103.94 23.06 138 62.9a182.56 182.56 0 0 0-144.82-71.63" fill="#d3f4d5"/><path d="M436.91 195.7c-24.46-65.87-94.07-124.74-171.2-124.74-101.5 0-168.93 70.93-168.93 178.72 0 97.83 87.78 180.9 184.3 180.9 82.1 0 139.06-47.87 164.13-120.98-21.14 86.47-99.4 150.24-189.11 150.24-105.26 0-191.12-88.75-191.12-198.02 0-109.19 84.47-199.16 195.14-199.16 84.2 0 159.15 57.4 184.3 136" fill="none" stroke="#d8b800" stroke-width="2.45" stroke-linecap="round" stroke-linejoin="round"/><path d="M419.03 327.4c-8.39 7.34-7.25 17.04-7.25 17.04s11.97 1.4 17.47-4.37c5.41-5.85 10.48-15.46 10.48-15.46s-12.23-4.54-20.7 2.8zM164.4 431c-8.9-3.32-17.64-1.49-17.64-1.49s7.34 11.18 16.43 13.63c9 2.36 11.35-2.27 11.35-2.27s-1.22-6.55-10.13-9.87zm15.82 13.19s-8.74.96-13.1 5.24c-4.28 4.2-7.87 10.66-7.87 10.66s11.19 2.62 16.6-2.62c5.24-5.42 4.37-13.37 4.37-13.37zm-24.28-63.95s-4.98-6.73-11.36-6.9c-6.99-.1-12.05 5.06-12.05 5.06s4.71 6.81 12.05 6.47a17.77 17.77 0 0 0 11.36-4.63zm-10.57-21.67c-3.93-5.67-13.72-6.29-13.72-6.29s-2.44 8.3 2.62 13.8c5.24 5.5 14.24 5.33 14.24 5.33s.87-7.33-3.14-12.92zm288.68-184.99s3.67-15.72-6.98-23.32c-10.66-7.6-20.97-6.38-20.97-6.38s-2.88 15.03 7.16 22.54c10.05 7.6 20.8 7.16 20.8 7.16zm-6.64 8.92c-9.25-.8-15.72 1.91-15.72 1.91s3.85 9.87 14.5 10.57c10.66.7 16.07-5.15 16.07-5.15s-5.59-6.55-14.85-7.34zm28.22-2.1c3.14-6.82 1.83-14.94 1.83-14.94s-8.12-.18-12.93 6.81c-5.41 8.04-2.27 17.56-2.27 17.56s10.05-2.53 13.28-9.35z" fill="#d8b800"/><path d="M262.15 293.08h-.79c-1.74.17-3.75 1.04-6.1 2.8-2.2 1.65-4.73 4.36-7.35 7.85a61.23 61.23 0 0 0-9.43 18.35v-4.11a85.08 85.08 0 0 0-.7-11.97c-.26-2.1-.79-3.93-1.48-5.41-.79-1.75-1.66-2.8-2.62-3.4a4.8 4.8 0 0 0-2.8-.7 2.97 2.97 0 0 0-2.18 1.13c-.44.6-.35 1.13.26 1.57.61.35.87.96 1.13 1.75l.27 2.62c0 5.15 0 10.13-.18 14.93l-.61 14.6-.35 14.67c0 4.89.18 10.04.52 15.37 0 .7.35 1.22.97 1.66.7.44 1.4.61 2.18.52a3.5 3.5 0 0 0 1.83-.87 4.54 4.54 0 0 0 1.4-2.27 81.5 81.5 0 0 0 1.92-16.42l.09-5.24c0-2.62.44-5.6 1.22-8.74a77.4 77.4 0 0 1 11.7-26.03 34.19 34.19 0 0 1 5.42-6.11c1.49-1.31 2.71-2.01 3.67-2.1.88-.09 1.49.35 1.92 1.31.35.87.44 2.18.27 3.84a40.18 40.18 0 0 1-7.78 17.3 293.05 293.05 0 0 1-7.6 10.57 52.89 52.89 0 0 0-3.5 5.5c-.86 1.66-1.04 2.97-.43 4.1.61 1.05 1.75 1.58 3.23 1.4.7 0 1.31-.26 1.93-.43a6.03 6.03 0 0 1 1.74-.44 4.37 4.37 0 0 1 3.5 1.14c.87.87 1.74 2 2.44 3.49.7 1.31 1.22 2.97 1.57 4.8a72.94 72.94 0 0 1 1.75 17.04 85.43 85.43 0 0 0 1.31 10.22c.44 1.92.87 3.67 1.57 5.24a7.47 7.47 0 0 0 2.62 3.58c1.05.7 2.1.96 3.24.87a6.5 6.5 0 0 0 3.75-1.92 10.62 10.62 0 0 0 2.88-4.37c2.01-4.8 3.67-9.6 5.25-14.32l3.49-10.3c1.05.6 2 .86 3.14.78 1.66-.18 3.15-1.05 4.37-2.8a103.16 103.16 0 0 0 5.16-9.52c.43 3.06 1.4 5.5 2.7 7.16 1.49 1.75 3.23 2.62 5.33 2.45 1.4-.18 2.88-.87 4.46-2s3.14-2.9 4.71-5.25a60.53 60.53 0 0 0 3.32-5.33l.53-.87c.17 1.13.43 2.18.87 3.06a6.52 6.52 0 0 0 2.45 2.96 4.8 4.8 0 0 0 5.67 0 6.81 6.81 0 0 0 2.01-2.35 620.18 620.18 0 0 1 2.62-4.55 7.16 7.16 0 0 0 0 2.36 29.35 29.35 0 0 0 2.19 7.17 7.7 7.7 0 0 0 2.8 2.97c.95.6 2 .87 3.05.78a5.04 5.04 0 0 0 2.62-1.13 8.76 8.76 0 0 0 2.18-2.97 46.2 46.2 0 0 0 3.06-8.13 68.57 68.57 0 0 0 .87 5.07 20.5 20.5 0 0 0 1.23 3.06 5.27 5.27 0 0 0 1.74 2.27c.7.52 1.4.78 2.1.7 1.14-.1 2-.96 2.62-2.62a109.54 109.54 0 0 0 2.27-10.66c.26.61.7 1.13 1.4 1.57.78.53 1.48.79 2.27.7.96-.09 1.75-.7 2.18-1.75l.61-1.66a80.71 80.71 0 0 0 1.93-6.98 37.21 37.21 0 0 1 2.1-5.5l1.57-3.06c.52-.88.87-1.4 1.22-1.4s.52.35.52 1.13a26.12 26.12 0 0 1-.52 5.86l-.35 2.18-.61 7.42a106.65 106.65 0 0 0-.26 15.73c.17 2.62.7 4.98 1.4 7.25a7.16 7.16 0 0 0 1.83 3.23c.78.7 1.57.96 2.36.87 1.13-.09 2-.87 2.62-2.27l1.66-4.37 2.18-5.85a2582.37 2582.37 0 0 0 4.9-13.36v-.27l.34 1.05a11.7 11.7 0 0 0 2.88 4.98 6.38 6.38 0 0 0 8.21.26 11.71 11.71 0 0 0 2.62-2.88c.7-1.05 1.23-2.18 1.75-3.4l.87-3.24a13.16 13.16 0 0 0 6.56-3.14 17.44 17.44 0 0 0 4.19-5.42c.17-.52.17-.87 0-1.13-.18-.18-.35-.35-.7-.26-.35 0-.7.26-1.05.6a29.22 29.22 0 0 1-3.67 4.46 8.12 8.12 0 0 1-4.89 2.45 15.37 15.37 0 0 0-2.62-11.27 10.2 10.2 0 0 0-2.97-2.8 5.5 5.5 0 0 0-5.76 0 7.25 7.25 0 0 0-2.97 3.93 6.58 6.58 0 0 0-.35 2.63v.78c0 .09-.1.35-.53.87a16.06 16.06 0 0 0-2 4.9 207.45 207.45 0 0 0-4.37 11.26 468.01 468.01 0 0 0-5.33 15.12c-.7 1.92-1.14 2.97-1.4 2.97-.17 0-.26-.35-.26-1.14l-.09-2.97c-.09-3.67 0-7.42.44-11.1a140.63 140.63 0 0 0 .6-20.96 19.22 19.22 0 0 0-.69-3.84 8.3 8.3 0 0 0-1.4-2.8 2.36 2.36 0 0 0-2.18-.87c-1.05 0-2.01.79-2.97 2.1a27.95 27.95 0 0 0-2.7 4.54c-.88 1.75-1.5 3.4-2.1 4.98l-1.49 3.58a37.73 37.73 0 0 0-.96-4.9 3.06 3.06 0 0 0-.87-1.21 2.75 2.75 0 0 0-1.93-.88c-.7 0-1.3.53-1.66 1.31l-.87 2.36a216.8 216.8 0 0 0-2.27 11.18c-.26 1.4-.52 2.1-.7 2.18-.17 0-.26-.43-.44-1.22a109.01 109.01 0 0 1-.87-12.23 7.16 7.16 0 0 0-.87-3.05c-.35-.62-.79-.88-1.31-.88-.7.09-1.31.7-1.75 1.84-.61 1.13-.87 2.44-1.22 3.93l-.26 2.27a169.37 169.37 0 0 1-5.94 15.37c-.27.44-.62.7-.97.7-.87 0-1.48-.87-2-2.62a19.27 19.27 0 0 1-.97-5.15 57.82 57.82 0 0 1 0-11.36l.18-5.41a.9.9 0 0 0-.61-.88 2.8 2.8 0 0 0-1.4-.17 3.5 3.5 0 0 0-1.4.52 1.92 1.92 0 0 0-.87 1.31 6.73 6.73 0 0 0-2.36-1.4 7.08 7.08 0 0 0-3.5-.43 8.3 8.3 0 0 0-5.32 2.8c-.87.95-1.75 2.18-2.36 3.66a22.1 22.1 0 0 0-1.75 6.2 81.85 81.85 0 0 0-2.36 3.93 195.05 195.05 0 0 1-3.23 5.24 16.6 16.6 0 0 1-2.8 2.89 4.54 4.54 0 0 1-2.18 1.05c-.87 0-1.57-.35-2.18-1.23a9.6 9.6 0 0 1-1.14-3.5 44.02 44.02 0 0 1 1.14-15.02c.44-1.4 1.05-2.62 1.66-3.49.61-.87 1.31-1.4 1.92-1.4.53 0 .88.09 1.22.61.27.44.35.88.44 1.31.09.7.44 1.05.87 1.05.27 0 .53-.17.7-.43a1.66 1.66 0 0 0 .44-.88 4.37 4.37 0 0 0-.7-2.62 3.67 3.67 0 0 0-1.75-1.4 4.72 4.72 0 0 0-2.27-.26 9.78 9.78 0 0 0-6.63 4.37 27.6 27.6 0 0 0-4.37 12.23l-.18.52-1.48 3.15-1.75 3.67a50.92 50.92 0 0 1-3.23 5.85c-.52.7-1.05 1.05-1.4 1.05-.44 0-.78-.27-1.05-1.05a13.45 13.45 0 0 1-.43-3.76c0-2.36.17-4.71.43-7.16.27-2.45.27-4.8 0-7.08a1.66 1.66 0 0 0-.6-1.13 1.75 1.75 0 0 0-1.4-.35c-.62 0-1.32.52-2.1 1.48-.79.88-1.4 2.54-2.01 4.9l-.35 2.44a51.71 51.71 0 0 0-.09 8.91 9.08 9.08 0 0 0 1.23 4.02c-.44 1.05-.88 2.1-1.23 3.32l-2.53 6.9a655.38 655.38 0 0 0-4.37 12.75c-1.05 2.8-2.1 4.37-3.32 4.37-1.48.17-2.62-1.83-3.05-6.11a181.16 181.16 0 0 1-1.31-12.23c-.18-2.27-.53-4.72-.88-7.52a46.3 46.3 0 0 0-2-8.2 27.2 27.2 0 0 0-3.76-7.26 12.23 12.23 0 0 0-6.3-4.36 576.68 576.68 0 0 0 7-8.39 66.82 66.82 0 0 0 6.2-10.48 31.8 31.8 0 0 0 2.88-9.17c.44-2.97.44-5.6 0-7.86a10.3 10.3 0 0 0-2.62-5.24 5.5 5.5 0 0 0-4.02-1.75zm132.5 27.25c.62 0 1.32.26 2.1.87.88.53 1.49 1.4 2.19 2.53a11.8 11.8 0 0 1 1.48 8.74 6.11 6.11 0 0 1-2.35-.7 15.2 15.2 0 0 1-3.67-2.62c-.44-.35-.61-.7-.61-.87 0-.53.17-1.14.6-1.84a2.88 2.88 0 0 0 .7-2c-.08-.7-.43-1.05-.96-1.14a5.85 5.85 0 0 0-1.57-.09c.18-1.75.88-2.7 1.92-2.88h.18zm-109.61 3.14h-.27a2.4 2.4 0 0 0-1.74.88 2.36 2.36 0 0 0-.44 1.74c0 .53.18 1.05.7 1.49.52.44 1.05.61 1.66.61a2.61 2.61 0 0 0 1.83-.87 2.27 2.27 0 0 0 .35-1.75 2.88 2.88 0 0 0-.87-1.49 1.75 1.75 0 0 0-1.22-.6zm43.85 4.37c.78 0 1.48.26 2.27.7v1.13l-.27 1.05a15.46 15.46 0 0 0-.26 2.89 4.37 4.37 0 0 1-.26 1.13l-.79 1.57-2.88 5.24c-.87 1.31-1.48 2.01-2.18 2.1-.61 0-.96-.44-1.22-1.4a12.67 12.67 0 0 1-.27-3.67 39.3 39.3 0 0 1 1.4-6.2c.44-1.22.96-2.18 1.66-3.05a3.5 3.5 0 0 1 2.8-1.49zm64.02 4.9a52.4 52.4 0 0 1 2.45 1.21c1.05.62 2.53.97 4.37 1.14l-1.4 2.8a7.53 7.53 0 0 1-1.75 2.35c-.61.7-1.22 1.05-1.75 1.05-.78.09-1.3-.17-1.66-.87a6.2 6.2 0 0 1-.7-2.01 33.98 33.98 0 0 1 .44-5.68z" fill="#745b00"/><path d="M261.54 291.77h-.79c-1.74.17-3.75 1.13-6.11 2.79a60.88 60.88 0 0 0-16.77 26.2v-4.1a79.75 79.75 0 0 0-.7-11.97c-.26-2.1-.79-3.84-1.49-5.41-.78-1.66-1.66-2.8-2.62-3.32a4.8 4.8 0 0 0-2.8-.7c-.95.09-1.74.44-2.17 1.05-.44.6-.35 1.13.26 1.57.6.44.87 1.05 1.13 1.75a269.38 269.38 0 0 1 .09 17.47l-.61 14.67-.35 14.68c0 4.97.09 10.13.52 15.46 0 .6.35 1.22.96 1.57.7.44 1.4.61 2.19.52a3.5 3.5 0 0 0 1.83-.78 4.54 4.54 0 0 0 1.4-2.36 81.5 81.5 0 0 0 1.92-16.42l.09-5.24c0-2.62.44-5.5 1.22-8.74a77.22 77.22 0 0 1 11.7-26.03c2.1-2.8 3.94-4.9 5.42-6.11 1.49-1.31 2.62-1.93 3.58-2.01.96-.09 1.58.26 2.01 1.22.35.96.44 2.27.26 3.84a39.83 39.83 0 0 1-4.36 11.88 67.26 67.26 0 0 1-3.41 5.5 279.25 279.25 0 0 1-7.6 10.49 54 54 0 0 0-3.5 5.59c-.87 1.57-1.04 2.97-.43 4.02.61 1.13 1.75 1.57 3.23 1.4.7 0 1.31-.18 1.92-.44a5.94 5.94 0 0 1 1.75-.35 4.37 4.37 0 0 1 3.5 1.05c.87.87 1.74 2 2.44 3.49.7 1.4 1.22 2.97 1.57 4.8a74.77 74.77 0 0 1 1.75 17.04 75.82 75.82 0 0 0 1.31 10.3 26 26 0 0 0 1.57 5.25c.7 1.74 1.57 2.88 2.62 3.49 1.05.7 2.1.96 3.23.87a5.9 5.9 0 0 0 3.76-1.83 11.92 11.92 0 0 0 2.88-4.37c1.92-4.9 3.67-9.6 5.24-14.32 1.05-3.41 2.28-6.82 3.5-10.31.96.61 2 .87 3.14.7 1.66-.09 3.15-1.05 4.37-2.71a101.5 101.5 0 0 0 4.98-9.17l.17-.35c.44 3.06 1.4 5.41 2.71 7.16 1.49 1.75 3.23 2.62 5.33 2.36a9.74 9.74 0 0 0 4.45-1.92 23.6 23.6 0 0 0 4.72-5.24 60.53 60.53 0 0 0 3.32-5.42l.52-.87c.18 1.13.44 2.18.88 3.14a7.6 7.6 0 0 0 2.44 2.97 4.8 4.8 0 0 0 5.6 0 6.81 6.81 0 0 0 2.1-2.36 736.09 736.09 0 0 1 2.61-4.54 7.25 7.25 0 0 0 0 2.36 28.74 28.74 0 0 0 2.1 7.16c.87 1.31 1.74 2.36 2.8 2.97s2.09.88 3.14.7c.87 0 1.74-.44 2.62-1.13a7.61 7.61 0 0 0 2.18-2.89 44.64 44.64 0 0 0 3.06-8.2l.26 1.91a34.33 34.33 0 0 0 1.75 6.3 8.17 8.17 0 0 0 1.74 2.26c.8.53 1.49.7 2.19.7 1.13-.17 2-1.05 2.62-2.7a109.54 109.54 0 0 0 2.27-10.57c.26.52.7 1.04 1.4 1.57.78.52 1.48.7 2.27.61.96 0 1.75-.61 2.18-1.66l.61-1.75a69.88 69.88 0 0 0 1.31-4.98l.62-2a38.6 38.6 0 0 1 2.1-5.42l1.56-3.14c.53-.88.88-1.32 1.23-1.4.35 0 .52.35.52 1.13 0 .88 0 1.75-.17 2.8a62.28 62.28 0 0 1-.7 5.24l-.61 7.51a106.22 106.22 0 0 0-.27 15.72c.18 2.54.7 4.98 1.4 7.25a6.83 6.83 0 0 0 1.84 3.15c.78.7 1.57 1.05 2.35.87 1.14 0 2.01-.87 2.62-2.27l1.66-4.28 2.19-5.85a2945.92 2945.92 0 0 0 4.89-13.45V337l.35 1.05a11.94 11.94 0 0 0 2.88 4.9 6.3 6.3 0 0 0 4.9 1.74 6.38 6.38 0 0 0 3.4-1.49c.96-.78 1.75-1.74 2.53-2.8a23.67 23.67 0 0 0 2.62-6.63 13.93 13.93 0 0 0 6.55-3.14 19.2 19.2 0 0 0 4.2-5.5c.17-.44.17-.88 0-1.06-.18-.26-.35-.35-.7-.35s-.7.27-1.05.7a28.61 28.61 0 0 1-3.67 4.37 8.12 8.12 0 0 1-4.89 2.53 16.6 16.6 0 0 0-.7-7.68 12.75 12.75 0 0 0-1.92-3.67 9.85 9.85 0 0 0-2.97-2.7 5.5 5.5 0 0 0-5.77 0 7.16 7.16 0 0 0-3.31 6.45v.88s-.1.35-.53.87a13.1 13.1 0 0 0-2 4.9 203.96 203.96 0 0 0-4.38 11.17 425.56 425.56 0 0 0-5.32 15.2c-.7 1.92-1.14 2.89-1.4 2.97-.18 0-.26-.35-.26-1.13l-.18-3.06c0-3.67.09-7.34.53-11.1a139.32 139.32 0 0 0 .6-20.96 19.04 19.04 0 0 0-.7-3.84 8.3 8.3 0 0 0-1.39-2.8 2.36 2.36 0 0 0-2.18-.87c-1.05.09-2.01.87-3.06 2.18a58.7 58.7 0 0 0-4.8 9.61 55.03 55.03 0 0 1-1.4 3.5l-.18-1.58a25.16 25.16 0 0 0-.87-3.4 3.06 3.06 0 0 0-.7-1.14c-.7-.7-1.4-.96-2.1-.87-.7 0-1.22.44-1.57 1.22-.43.88-.7 1.66-.87 2.36a204.4 204.4 0 0 0-2.36 11.27c-.17 1.4-.44 2.1-.7 2.1-.09 0-.26-.35-.35-1.23l-.26-2.36a47.34 47.34 0 0 1-.35-4.98c0-1.57-.17-3.23-.35-4.89a7.16 7.16 0 0 0-.78-2.97c-.35-.6-.88-.87-1.31-.87-.7 0-1.31.7-1.84 1.75a18.64 18.64 0 0 0-1.13 3.93l-.35 2.36a212.96 212.96 0 0 1-4.9 13.8 11.36 11.36 0 0 1-.87 1.57c-.35.35-.7.61-1.05.7-.87 0-1.48-.88-2-2.62a19.92 19.92 0 0 1-.97-5.24 57.39 57.39 0 0 1 0-11.27l.18-5.42c0-.43-.18-.7-.61-.87a2.8 2.8 0 0 0-1.4-.18 3.5 3.5 0 0 0-1.4.53 1.92 1.92 0 0 0-.87 1.3 6.73 6.73 0 0 0-2.36-1.48 7.16 7.16 0 0 0-3.5-.43 8.3 8.3 0 0 0-5.32 2.88c-.88.96-1.75 2.18-2.36 3.58a22.27 22.27 0 0 0-1.75 6.29l-.6.87a310.52 310.52 0 0 0-3.5 5.94l-1.49 2.27c-1.05 1.31-2 2.28-2.8 2.89a4.54 4.54 0 0 1-2.18 1.05c-.87.08-1.57-.27-2.18-1.14a9.6 9.6 0 0 1-1.22-3.5 44.11 44.11 0 0 1 1.13-15.02 14.4 14.4 0 0 1 1.75-3.5c.61-.87 1.22-1.39 1.92-1.48.52 0 .87.18 1.22.7.27.44.35.88.44 1.31.09.7.44 1.05.87.96.27 0 .53-.17.7-.35a1.75 1.75 0 0 0 .44-.87 4.37 4.37 0 0 0-.7-2.62 3.67 3.67 0 0 0-1.75-1.4 4.72 4.72 0 0 0-2.27-.35 9.78 9.78 0 0 0-6.64 4.37 27.69 27.69 0 0 0-4.36 12.32l-.18.43a723.42 723.42 0 0 1-4.89 10.22c-.52.96-1.14 1.84-1.66 2.54-.52.6-.87.96-1.4 1.04-.35 0-.7-.35-.96-1.04a13.63 13.63 0 0 1-.43-3.85c0-2.27.08-4.63.34-7.16a34.07 34.07 0 0 0 .1-6.99 1.66 1.66 0 0 0-.62-1.13 1.75 1.75 0 0 0-1.4-.44c-.6.09-1.3.61-2.1 1.48s-1.48 2.62-2 4.98l-.35 2.45a48.74 48.74 0 0 0-.18 8.82 9.92 9.92 0 0 0 1.23 4.02 242.65 242.65 0 0 0-3.67 10.22 600.78 600.78 0 0 0-4.46 12.75c-.96 2.88-2.1 4.37-3.23 4.46-1.57.17-2.62-1.92-3.06-6.12a193.04 193.04 0 0 1-1.4-12.31 96.08 96.08 0 0 0-.87-7.52 46.3 46.3 0 0 0-2-8.2 23.38 23.38 0 0 0-3.76-7.17 12.23 12.23 0 0 0-6.12-4.37 663.59 663.59 0 0 0 7-8.47 67.87 67.87 0 0 0 6.1-10.4 32.65 32.65 0 0 0 2.89-9.17 24 24 0 0 0 0-7.86 10.3 10.3 0 0 0-2.62-5.24 5.5 5.5 0 0 0-4.1-1.74zm132.5 27.34c.62 0 1.32.26 2.1.78a9.65 9.65 0 0 1 2.19 2.62 11.73 11.73 0 0 1 1.4 3.85 11.4 11.4 0 0 1 0 4.8 6.11 6.11 0 0 1-2.28-.61 15.02 15.02 0 0 1-3.66-2.62c-.44-.44-.62-.7-.62-.88 0-.6.18-1.22.62-1.92a2.88 2.88 0 0 0 .7-1.92c-.1-.7-.44-1.13-.97-1.22a5.77 5.77 0 0 0-1.57 0c.18-1.75.87-2.8 1.92-2.88h.18zm-109.61 3.14h-.27c-.87 0-1.4.35-1.74.87a2.36 2.36 0 0 0-.44 1.75c0 .44.17.96.7 1.4.52.52 1.05.7 1.66.6.87 0 1.48-.34 1.74-.86a2.27 2.27 0 0 0 .44-1.66 2.88 2.88 0 0 0-.87-1.49 1.75 1.75 0 0 0-1.22-.61zm43.84 4.37c.79 0 1.49.17 2.28.7v1.04a23.06 23.06 0 0 0-.53 4.02 4.37 4.37 0 0 1-.26 1.14l-.79 1.57-2.88 5.15c-.87 1.4-1.48 2.1-2.18 2.19-.61 0-.96-.44-1.23-1.49a12.67 12.67 0 0 1-.26-3.67 38.52 38.52 0 0 1 1.4-6.11c.44-1.22.96-2.27 1.66-3.14a3.5 3.5 0 0 1 2.8-1.49zm64.03 4.89 2.45 1.22c1.04.61 2.53.88 4.36 1.14l-1.4 2.7a7.87 7.87 0 0 1-1.74 2.45c-.61.61-1.22.96-1.75 1.05-.78 0-1.3-.26-1.66-.87a6.29 6.29 0 0 1-.7-2.1 33.2 33.2 0 0 1 .44-5.68z" fill="#d8b800"/><path d="M198.91 128.51c-7.69 0-17.12 7.25-28.13 21.75-6.55 8.56-12.57 19.22-17.99 31.97a201.25 201.25 0 0 0-12.23 41.32 177.14 177.14 0 0 0-18.17 4.71c-2 .61-3.58 1.14-4.98 1.75a15.3 15.3 0 0 0-4.36 2.62c-.79.87-1.14 1.57-1.14 2.18s.26 1.05.79 1.4c.52.35.87.44 1.3.35.88-.17 2.28-.52 4.2-1.13l6.64-1.93 7.51-2.1c2.62-.6 4.8-1.13 6.81-1.39a455.1 455.1 0 0 1-2.8 16.25l-3.14 16.86-2.62 16.85c-.6 5.6-1.04 11-1.13 16.25 0 1.92.26 3.32.87 4.28.53.87 1.22 1.4 2.01 1.4.7 0 1.49-.44 2.27-1.31.7-.88 1.31-2.27 1.75-4.1a514.13 514.13 0 0 0 3.14-18.7 2615.04 2615.04 0 0 1 8.74-49.18c0-.35.52-.52 1.48-.78l22.36-3.5a993.02 993.02 0 0 0 21.58-3.75 870.52 870.52 0 0 0-.26 33.36c.17 11.1.6 21.4 1.48 31.01.79 9.52 2.01 17.82 3.5 24.9 1.66 7.07 3.67 12.23 6.29 15.54a6.63 6.63 0 0 0 2.8 2.19 8.73 8.73 0 0 0 3.22.61c1.75 0 3.32-.61 4.72-1.75 1.31-1.3 1.83-3.14 1.75-5.5-.88-8.74-1.58-17.12-2.19-25.07a769.54 769.54 0 0 1-2.44-49.44c-.09-8.73 0-18.34.43-28.74a116.8 116.8 0 0 1 7.78-1.74 448.97 448.97 0 0 1 14.15-2.36v.44a247.2 247.2 0 0 0-1.66 18.51 218.37 218.37 0 0 0-.35 18.35c.17 6.02.61 11.61 1.31 16.85.7 5.25 1.75 9.61 3.23 13.28 1.05 2.62 2.36 4.46 4.02 5.68a9.09 9.09 0 0 0 5.42 1.75 10.68 10.68 0 0 0 9.25-5.42 280.74 280.74 0 0 0 13.72-26.47l1.4-2.88-.1 3.23c0 5.24 1.14 9.44 3.5 12.32 2.19 2.97 4.9 4.37 7.86 4.37 3.5 0 6.73-1.75 9.61-5.24a76.12 76.12 0 0 0 6.38-9.35c2.1-3.5 3.93-6.99 5.76-10.3l.35-.88c.35 7.07 1.75 12.66 4.2 16.86 2.62 4.36 6.11 6.64 10.39 6.64 2.97 0 6.11-1.14 9.6-3.5 3.41-2.18 7-5.85 10.66-10.83a138.62 138.62 0 0 0 7.95-11.35l2.27-3.5a52.58 52.58 0 0 0 2.28 15.99c1.13 3.23 2.62 5.94 4.62 7.86a9.4 9.4 0 0 0 7 3.05c1.83 0 3.84-.52 5.93-1.57 2.1-1.05 4.37-2.8 6.73-5.15a88.4 88.4 0 0 0 5.76-6.55 402.68 402.68 0 0 0 13.28-17.9l1.05-1.58a239.6 239.6 0 0 0 3.23 16.07l1.14 5.5c-.88 1.66-2.19 3.5-3.85 5.86a109.36 109.36 0 0 1-11.7 13.27 39.45 39.45 0 0 1-6.12 4.8c-1.13.7-1.74 1.4-2 2.1-.27.7-.27 1.23 0 1.75a3.27 3.27 0 0 0 2.79 1.66l.52-.09c2.8-1.04 6.12-3.5 9.96-7.33 3.84-3.76 8.04-8.74 12.5-15.03a72.59 72.59 0 0 0 8.12 19.57c2 3.5 4.36 6.37 6.8 8.82 2.63 2.45 5.16 3.67 7.87 3.67a8.73 8.73 0 0 0 5.42-2.1c1.74-1.48 3.49-3.84 5.15-7.16l5.5-11.53a2135.24 2135.24 0 0 0 19.66-42.98c.52-1.13.6-2 .08-2.62a2.27 2.27 0 0 0-1.83-.87c-1.31 0-2.27.61-2.88 1.66a1160.25 1160.25 0 0 0-18.87 39.74 321.36 321.36 0 0 1-8.39 16.51c-.87 1.4-1.74 2.1-2.44 2.1-.79 0-1.57-.87-2.54-2.62a49.43 49.43 0 0 1-2.62-6.73 180.99 180.99 0 0 1-4.89-18.08 494.4 494.4 0 0 1-2.62-12.23 112.5 112.5 0 0 1 7.51-14.24 190.42 190.42 0 0 1 22.28-28.9c.87-.97 1.05-1.75.43-2.54a2.97 2.97 0 0 0-2.44-1.05c-.87 0-1.75.35-2.45.96a129.32 129.32 0 0 0-14.4 16.42 183.01 183.01 0 0 0-13.02 20.36c0-.7-.35-2.62-1.14-5.94a5061.85 5061.85 0 0 0-6.73-27.7 26.2 26.2 0 0 0-4.97-8.47 3.56 3.56 0 0 0-2.28-1.04c-1.74 0-2.79.87-3.23 2.62a23.76 23.76 0 0 0-.6 5.32 137.66 137.66 0 0 0 2.09 24.46l-3.5 4.8a481.12 481.12 0 0 1-12.66 16.6 57.37 57.37 0 0 1-4.98 5.68c-2.27 2-4.2 2.97-5.6 2.97-1.13 0-2.09-.79-2.79-2.27a19.65 19.65 0 0 1-.87-8.04 1772.65 1772.65 0 0 1 .35-11.35 19.4 19.4 0 0 0 6.99-3.5c4.02-2.62 6.99-5.94 8.73-9.87a27.68 27.68 0 0 0 2.62-11.18c0-3.58-.87-6.64-2.44-9.17a7.51 7.51 0 0 0-6.55-3.84c-1.75 0-3.85.7-6.12 1.92a44.02 44.02 0 0 0-14.24 17.82 62.85 62.85 0 0 0-3.49 11.1 151.03 151.03 0 0 0-6.73 10.12 462.95 462.95 0 0 1-7.77 11.1 34.94 34.94 0 0 1-6.29 6.02 8.73 8.73 0 0 1-4.72 1.84c-1.74 0-3.14-1.05-4.1-3.15-.96-2.1-1.57-4.8-1.75-8.12-.35-3.32-.17-6.99.18-11.1a109.7 109.7 0 0 1 2-11.96 82.39 82.39 0 0 1 3.15-10.74c1.31-3.32 2.62-5.86 4.1-7.69 1.49-1.92 2.98-2.88 4.37-2.88 1.05 0 1.84.6 2.27 1.74.44 1.14.7 2.19.7 3.15 0 1.66.61 2.44 1.75 2.44.44 0 .87-.26 1.4-.7a4.4 4.4 0 0 0 .96-2c.26-1.75 0-3.76-.88-5.86a8.12 8.12 0 0 0-3.23-3.66 8.17 8.17 0 0 0-4.63-1.23c-2.44 0-5.06.79-7.68 2.19a21.38 21.38 0 0 0-6.9 6.29 64.81 64.81 0 0 0-9 17.73 81.6 81.6 0 0 0-2.36 9.08l-.52 1.05a1483.53 1483.53 0 0 1-7.86 14.67 90.46 90.46 0 0 1-4.2 7.34 38.7 38.7 0 0 1-3.84 5.33c-1.22 1.4-2.27 2.1-3.06 2.1-.87 0-1.48-.88-1.92-2.62-.35-1.75-.44-4.55-.09-8.74a161.1 161.1 0 0 1 2.27-16.07 87 87 0 0 0 1.58-16.07 4.2 4.2 0 0 0-1.05-2.62 3.5 3.5 0 0 0-2.8-1.23c-1.4 0-2.88.96-4.63 2.89-1.74 1.92-3.49 5.5-5.15 10.74a44.42 44.42 0 0 0-1.22 5.5v.27a572.13 572.13 0 0 1-14.5 30.3 60.86 60.86 0 0 1-5.07 8.13c-1.57 2.18-2.8 3.23-3.76 3.23-1.13 0-1.74-1.57-1.83-4.72a472.12 472.12 0 0 0-.26-15.37 492.65 492.65 0 0 1 .35-22.54c.09-3.4.26-6.28.52-8.73s.61-3.93 1.05-4.37a217.9 217.9 0 0 0 6.64-9.6 136.18 136.18 0 0 0 10.66-19.05c1.4-3.4 2.88-6.99 4.19-11 2-5.94 3.23-11.36 3.67-16.08.52-4.8.43-8.82-.35-12.14a15.55 15.55 0 0 0-3.5-7.51 7.6 7.6 0 0 0-5.67-2.62c-2.01 0-4.2.87-6.47 2.36s-4.54 3.84-6.81 6.99c-2.36 3.14-4.54 7.16-6.64 12.05-2.1 4.8-3.93 10.66-5.59 17.47a256.28 256.28 0 0 0-4.2 23.93c-2.61.18-5.4.53-8.3 1.05l-13.97 2.45c0-8.39.27-16.69.61-24.9.44-8.2.53-16.5.27-24.9a60.8 60.8 0 0 0-4.37-24.71c-2.62-5.5-6.29-8.3-10.92-8.3zm-2.27 8.3c2.27 0 3.93 1.83 4.9 5.59.86 3.67.86 10.04 0 18.95a214.7 214.7 0 0 1-1.76 12.58 885.63 885.63 0 0 0-4.45 27.95c-.7 4.55-.96 8.74-.96 12.58a1770.2 1770.2 0 0 1-44.55 7.08 188.67 188.67 0 0 1 20.88-57.3 95.65 95.65 0 0 1 17.55-22.8c3.5-3.06 6.2-4.63 8.39-4.63zm70.23 14.59c1.05 0 1.92.7 2.62 2.1.61 1.48.96 3.49 1.05 6.1a46.1 46.1 0 0 1-.88 9.7 109.2 109.2 0 0 1-3.5 12.67c-1.91 5.33-4.36 11-7.33 16.86a110.01 110.01 0 0 1-9.43 15.72 195.75 195.75 0 0 1 4.37-35.81c2.1-9.7 4.36-16.77 6.8-20.97 2.37-4.28 4.46-6.37 6.3-6.37zm19.21 46.03c-1.74 0-3.05.52-3.93 1.57a5.68 5.68 0 0 0-1.3 3.67c0 1.31.34 2.45 1.22 3.58.87 1.14 2 1.75 3.23 1.75 1.92 0 3.23-.53 4.02-1.66a5.5 5.5 0 0 0 .96-3.67 6.9 6.9 0 0 0-1.31-3.58c-.88-1.14-1.75-1.75-2.97-1.75zm88.58 10.74c1.13 0 2.1.7 2.8 2.27a10.3 10.3 0 0 1 1.04 4.37 19.92 19.92 0 0 1-3.5 11.62 19.4 19.4 0 0 1-9.08 6.72 69.53 69.53 0 0 1 4.98-21.75c1.05-2.18 2.27-3.23 3.76-3.23z" fill="#745b00"/><path d="M198.3 127.2c-7.69 0-17.12 7.25-28.13 21.84-6.55 8.47-12.58 19.21-18 31.97a201.25 201.25 0 0 0-12.22 41.31 175.4 175.4 0 0 0-18.17 4.63 55.9 55.9 0 0 0-4.98 1.75c-2.1.96-3.5 1.92-4.36 2.62-.8.87-1.23 1.57-1.23 2.18 0 .7.26 1.14.88 1.49.43.35.87.44 1.3.35l4.2-1.14 6.64-1.92c2.36-.79 4.89-1.4 7.51-2.1 2.53-.7 4.8-1.13 6.81-1.4a419.76 419.76 0 0 1-2.8 16.17l-3.14 16.85-2.62 16.95a174.8 174.8 0 0 0-1.13 16.16c0 1.92.26 3.4.87 4.37.52.87 1.22 1.4 2.01 1.4.7 0 1.48-.44 2.27-1.4a10.9 10.9 0 0 0 1.75-4.02 528.46 528.46 0 0 0 3.14-18.78 2599.5 2599.5 0 0 1 8.74-49.18c0-.26.52-.52 1.48-.7 7.43-1.22 14.85-2.44 22.36-3.5a993.02 993.02 0 0 0 21.58-3.75 867.02 867.02 0 0 0-.26 33.37c.17 11.1.6 21.4 1.48 30.92.79 9.61 2.01 17.82 3.5 24.98 1.65 7.08 3.66 12.23 6.28 15.46a7.01 7.01 0 0 0 2.8 2.28 8.73 8.73 0 0 0 3.23.6c1.75 0 3.32-.6 4.72-1.83 1.3-1.22 1.83-3.05 1.75-5.41-.88-8.74-1.58-17.21-2.19-25.16a780.29 780.29 0 0 1-2.44-49.35c-.1-8.74 0-18.34.43-28.83a116.8 116.8 0 0 1 7.78-1.74 456.13 456.13 0 0 1 14.15-2.27v.34a251.43 251.43 0 0 0-1.66 18.52c-.35 6.38-.53 12.5-.35 18.43.17 6.03.52 11.62 1.3 16.86.7 5.24 1.76 9.61 3.24 13.28a12.34 12.34 0 0 0 4.02 5.68 9.72 9.72 0 0 0 5.41 1.74 11.53 11.53 0 0 0 9.26-5.41 280.56 280.56 0 0 0 13.72-26.47l1.4-2.97-.1 3.23c0 5.33 1.14 9.52 3.5 12.4 2.18 2.89 4.9 4.37 7.86 4.37 3.5 0 6.73-1.74 9.61-5.24a71.09 71.09 0 0 0 6.38-9.43c2.1-3.5 4.01-6.99 5.76-10.3l.35-.8c.35 7 1.75 12.67 4.2 16.78 2.61 4.45 6.1 6.72 10.39 6.72 2.97 0 6.11-1.22 9.6-3.5 3.41-2.26 7-5.84 10.66-10.82a138.45 138.45 0 0 0 7.95-11.44l2.27-3.5a52.58 52.58 0 0 0 2.27 15.99c1.14 3.32 2.62 5.94 4.63 7.94a9.32 9.32 0 0 0 7 2.97c1.83 0 3.83-.52 5.93-1.57 2.1-1.05 4.37-2.7 6.73-5.15a62.67 62.67 0 0 0 5.76-6.55 410.8 410.8 0 0 0 13.28-17.82l1.05-1.57a239.6 239.6 0 0 0 3.23 16.07l1.13 5.5a109.36 109.36 0 0 1-15.54 19.04 31.1 31.1 0 0 1-6.12 4.8c-1.13.8-1.74 1.5-2 2.2a2.04 2.04 0 0 0 0 1.74c.26.43.6.87 1.22 1.13a2.8 2.8 0 0 0 1.57.53c.26 0 .43 0 .52-.18 2.8-1.05 6.12-3.5 9.96-7.25 3.84-3.84 8.04-8.82 12.5-15.02a72.67 72.67 0 0 0 8.03 19.57 37.61 37.61 0 0 0 6.98 8.73c2.45 2.53 5.07 3.76 7.7 3.76a8.73 8.73 0 0 0 5.5-2.19c1.74-1.4 3.49-3.84 5.15-7.16l5.5-11.53a2135.15 2135.15 0 0 0 19.65-42.89c.53-1.22.62-2 .1-2.62a2.36 2.36 0 0 0-1.84-.87 3.1 3.1 0 0 0-2.88 1.57l-5.25 10.48a1158.6 1158.6 0 0 0-13.62 29.26 321.7 321.7 0 0 1-8.39 16.6c-.87 1.31-1.74 2-2.44 2-.79 0-1.58-.86-2.54-2.61a52.62 52.62 0 0 1-2.62-6.64 180.99 180.99 0 0 1-4.89-18.08 504.61 504.61 0 0 1-2.62-12.23c2.18-4.98 4.63-9.7 7.51-14.24a190.42 190.42 0 0 1 22.28-29c.87-.87 1.04-1.74.43-2.44a2.97 2.97 0 0 0-2.44-1.05c-.88 0-1.75.26-2.45.87a142.61 142.61 0 0 0-14.41 16.42 176.78 176.78 0 0 0-13.02 20.44c0-.7-.34-2.62-1.13-5.94a5276.73 5276.73 0 0 0-6.73-27.69 26.2 26.2 0 0 0-4.98-8.47c-.78-.7-1.57-1.13-2.27-1.13-1.74 0-2.8.87-3.23 2.7a22.5 22.5 0 0 0-.61 5.24 137.57 137.57 0 0 0 2.1 24.46l-3.5 4.9a481.2 481.2 0 0 1-12.66 16.59 54.18 54.18 0 0 1-4.98 5.59c-2.27 2-4.2 3.06-5.6 3.06-1.13 0-2.09-.88-2.79-2.36a19.65 19.65 0 0 1-.87-7.95 1341.5 1341.5 0 0 1 .35-11.36c1.05-.43 2-.87 2.8-1.04.87-.27 2.26-1.05 4.27-2.36a25.94 25.94 0 0 0 8.65-9.96 27.74 27.74 0 0 0 2.62-11.27c0-3.5-.87-6.64-2.44-9.17a7.42 7.42 0 0 0-6.56-3.76c-1.74 0-3.84.62-6.11 1.84a44.02 44.02 0 0 0-14.24 17.82 58.52 58.52 0 0 0-3.5 11.18 149.1 149.1 0 0 0-6.8 10.04 464.96 464.96 0 0 1-7.7 11.18 34.94 34.94 0 0 1-6.28 5.94 8.73 8.73 0 0 1-4.72 1.93c-1.74 0-3.14-1.05-4.1-3.15-.96-2.1-1.57-4.8-1.75-8.21a62.9 62.9 0 0 1 .18-11c.43-4.11 1.13-8.04 2-11.97a83.8 83.8 0 0 1 3.15-10.83c1.3-3.24 2.62-5.77 4.1-7.6 1.49-1.92 2.97-2.89 4.37-2.89 1.05 0 1.84.62 2.27 1.75.44 1.14.7 2.19.7 3.15 0 1.57.61 2.44 1.75 2.44.43 0 .87-.26 1.4-.78.43-.44.78-1.14.96-2.01.26-1.75 0-3.76-.88-5.86a8.04 8.04 0 0 0-3.23-3.58 8.17 8.17 0 0 0-4.63-1.22c-2.44 0-5.06.7-7.68 2.18a21.09 21.09 0 0 0-6.9 6.2 64.11 64.11 0 0 0-9 17.82 76.92 76.92 0 0 0-2.36 9.09l-.52.96a1512.7 1512.7 0 0 1-7.87 14.76c-1.4 2.62-2.8 5.07-4.19 7.25a40.22 40.22 0 0 1-3.84 5.42c-1.23 1.4-2.27 2.1-3.06 2.1-.87 0-1.48-.88-1.92-2.63-.35-1.74-.44-4.63-.09-8.73.44-5.24 1.22-10.57 2.27-16.16a85.38 85.38 0 0 0 1.57-15.99c0-.87-.34-1.83-1.04-2.62a3.5 3.5 0 0 0-2.8-1.22c-1.4 0-2.88.87-4.63 2.88-1.74 1.84-3.5 5.42-5.15 10.66-.44 1.57-.88 3.4-1.22 5.5l-.1.35a554.66 554.66 0 0 1-14.4 30.31 74.8 74.8 0 0 1-5.07 8.13c-1.57 2.1-2.8 3.23-3.76 3.23-1.13 0-1.74-1.57-1.83-4.72a472.12 472.12 0 0 0-.26-15.37 492.65 492.65 0 0 1 .26-22.54c.17-3.5.35-6.38.61-8.73.26-2.54.61-3.93 1.05-4.37l6.64-9.6a135.22 135.22 0 0 0 10.65-19.14c1.4-3.4 2.8-6.99 4.2-10.92 2-6.02 3.23-11.35 3.67-16.16.52-4.8.34-8.73-.35-12.05a15.55 15.55 0 0 0-3.5-7.51 7.6 7.6 0 0 0-5.68-2.62c-2 0-4.19.87-6.46 2.27-2.27 1.57-4.54 3.93-6.9 6.99-2.27 3.23-4.37 7.25-6.55 12.05-2.1 4.9-3.93 10.66-5.6 17.47a250.69 250.69 0 0 0-4.18 23.93c-2.62.18-5.42.53-8.3 1.05-4.1.87-8.74 1.57-13.98 2.45 0-8.39.26-16.6.61-24.9.35-8.12.53-16.42.27-24.8a60.7 60.7 0 0 0-4.37-24.81c-2.62-5.5-6.3-8.3-10.92-8.3zm-2.27 8.3c2.27 0 3.93 1.92 4.89 5.59.87 3.75.87 10.04 0 19.04a214.7 214.7 0 0 1-1.75 12.58 950.53 950.53 0 0 0-4.45 27.95 81.3 81.3 0 0 0-.96 12.5 1778.85 1778.85 0 0 1-44.55 7.15 188.06 188.06 0 0 1 20.88-57.3 95.65 95.65 0 0 1 17.55-22.8c3.5-3.14 6.2-4.71 8.39-4.71zm70.23 14.59c1.04 0 1.92.78 2.62 2.18.6 1.4.96 3.5 1.05 6.11.08 2.62-.18 5.94-.88 9.61-.78 3.85-1.92 8.04-3.5 12.76a164.98 164.98 0 0 1-7.33 16.85 120.68 120.68 0 0 1-9.43 15.73 195.66 195.66 0 0 1 4.36-35.82c2.1-9.78 4.37-16.77 6.82-20.96 2.36-4.37 4.45-6.46 6.29-6.46zm19.13 46.03c-1.75 0-2.97.52-3.85 1.57a5.68 5.68 0 0 0-1.3 3.76 4.91 4.91 0 0 0 1.22 3.5c.87 1.21 2 1.74 3.23 1.74 1.92 0 3.23-.53 4.02-1.57a5.5 5.5 0 0 0 .96-3.76 6.9 6.9 0 0 0-1.31-3.67c-.88-1.05-1.75-1.66-2.97-1.66zm88.65 10.74c1.14 0 2.1.79 2.8 2.27a11 11 0 0 1 1.05 4.46 19.83 19.83 0 0 1-3.5 11.62 19.48 19.48 0 0 1-9.08 6.72 69.53 69.53 0 0 1 4.98-21.75c1.05-2.18 2.27-3.32 3.75-3.32z" fill="#d8b800"/><path d="M208.49 26.7c.37.42 1.23-.68 1.7-.92.19-.1.34-.39.42-.71l-.34-.89-.67-.06c-.09.07-.28.3-.5.55-.2.25-.99 1.6-.61 2.02z" transform="translate(-1724.83 -100.66) scale(8.73486)" fill="url(#c)"/><path d="M105.47 109.85s2.97-5.42 8.74-2.97c4.71-2.1 11.18-2 11.18-2l-.35 2.17s-5.77-.87-8.91 1.93c2 3.58-.87 9.95-.87 9.95-1.58-2.62-5.07-4.01-3.41-8.38-2.27 1.22-3.15 1.75-6.38-.61zm301.97 14.33s-4.37-3.15-4.55-7c-7.6-4.27-7.42-14.06-7.42-14.06l1.75-.35s-1.05 10.22 6.55 13.02c2-2 7.86-1.83 7.86-1.83-1.49 1.4-1.31 3.66-5.15 3.75 1.74.87 3.49 3.84.96 6.47z" fill="#005310"/><path d="M244.5 24.69c-.09.14-.15.3-.5.31.18.1.36.38.18.66.07.06.15.11.24.16.6.36 1.54.52 1.64.33.16-.29-.11-.35-.36-.62-.16-.16-.32-.42-.47-.57a1.12 1.12 0 0 0-.73-.27z" transform="translate(-1724.83 -100.66) scale(8.73486)" fill="url(#d)"/><path d="M393.37 80.33s-6.98-2.54-12.92-.1c-10.22-5.23-19.92-.6-19.92-.6l.35 2.18s9.78-5.94 17.73.44c-2 3.5.88 9.6.88 9.6 1.57-2.53 5.15-3.84 3.49-8.12 2.18 1.23 7.51 1.14 10.48-3.4z" fill="#005310"/><path d="M242.4 20.85c-.34.39-.86.39-1.1.26.17.42-.1.6-.3.81.19.38.55.78.87 1.07.3.28 1.06.51 1.66.74.54.2.92.42 1.19.15.27-.27.18-.53-.02-.85-.2-.34-.52-.75-1.09-1.11-.53-.34-.66-.84-1.03-1a1.86 1.86 0 0 0-.17-.07z" transform="translate(-1724.83 -100.66) scale(8.73486)" fill="url(#e)"/><path d="M103 47.67c.57-2.34 6.93-5.07 10.57-3.6 3.64 1.47 2.74 6.98 1.45 9.28-1.57 2.81-5.48 6.97-8.32 5.7-2.83-1.26-4.57-7.92-3.7-11.38z" transform="translate(-17.6 -93.43) scale(3.27218)" fill="url(#f)"/><path d="M103.17 47.74c.93-2.73 6.2-2.93 9.86-1.89 1.91.54 3.53.9 3.95 2.42.38 1.41-.33 3.98-.9 5.08-.55 1.04-.86 3.59-2.73 4.43-2.28 1.03-6.1-.2-7.56-1.48-2.66-2.32-3.48-6.04-2.62-8.56z" transform="translate(-17.6 -93.43) scale(3.27218)" fill="url(#g)"/><path d="M103.93 47.81c.5-1.19 6.5-1.58 8.93-.4 1.15.55 4.77 4.23 4.15 6.02-.6 1.8-5.76 2.21-7.8 1.42-2.16-.84-6.46-4.18-5.28-7.04z" transform="translate(-17.6 -93.43) scale(3.27218)" fill="url(#h)"/><path d="M293.62 57c7.25-.35 15.55.7 24.28 4.9 8.22-12.23 21.67-10.75 21.67-10.75L320 62.77v16.16a26.2 26.2 0 0 1-2.7-13.63 48.92 48.92 0 0 0-24.12-6.81zm-65.6-1.13c6.3-.96 11.97-2.19 17.82-.18l.88-2.1c-4.55-2.18-11.27-.6-18.35 0z" fill="#005310"/><path d="M87.61 48.82c-.42 1.54-.43 2-.2 3.75.15 1.2.24 2.24 1.12 2.65 2.18 1 4.8-1.76 5.48-2.35.68-.6 2.23-1.78 2.11-3.16-.12-1.47-.77-5.18-2-5.38-1.23-.2-3.83-.05-4.57.36-.74.4-1.55 2.71-1.94 4.13z" transform="translate(-17.6 -93.43) scale(3.27218)" fill="url(#i)"/><path d="M89.34 45.38c1.15 1.24 5.03.85 6.3-.63 1.26-1.48 4.74-6.32 1.81-8.35-2.3-1.6-5.25 2.9-6 4.08-.75 1.18-3.91 2.72-2.11 4.9z" transform="translate(-17.6 -93.43) scale(3.27218)" fill="url(#j)"/><path d="M87.8 46.35c.07 1.72 1.02 2.46 2.4 2.44.96-.02 1.95-2.17 1.57-4.19-.36-1.96-1.27-3.04-2.84-2.1-1.56.95-1.18 2.61-1.13 3.85z" transform="translate(-17.6 -93.43) scale(3.27218)" fill="url(#k)"/><path d="M85.7 43.36c.76 1.47 5.47-.24 6.8-3.04.68-1.44 1.61-4.02.86-6.36-.7-2.21-2.6-4.14-4.74-3.44-1.66.55-.29 1.25-.05 2.01.4 1.24.7 3.19.13 4.44-.5 1.1-1.3 2.34-2.1 3.77-.63 1.16-1.6 1.8-.9 2.62z" transform="translate(-17.6 -93.43) scale(3.27218)" fill="url(#l)"/><path d="M83.73 41.14c1.28.04 2.31-.31 3.19.5.6.56 1.11 3.16 1.21 4.05.19 1.62.63 2.09.25 3.87-.24 1.1-1.05 1.8-1.71 2.48-.6.61-1.03 1.27-1.7 1.27-1.3 0-2.63-.9-3.44-2.35-.86-1.53-1.4-3.7-1.42-4.91-.06-2.35 1.36-4.57 3.62-4.9z" transform="translate(-17.6 -93.43) scale(3.27218)" fill="url(#m)"/><path d="M223.4 63.12s-7 2.62-12.85 0c-4.63 2.18-11.09 2.18-11.09 2.18l.35-2.27s5.85.87 8.9-1.92c-2-3.5.97-9.87.97-9.87 1.48 2.53 5.07 3.93 3.32 8.3 2.27-1.23 7.51-1.14 10.48 3.5z" fill="#005310"/><path d="M224.75 15.47c-.74-.03-2.1.86-2.47 1.24-.23.23-.52.51-.7.82.19.22.43.4.27.81.25-.14.82-.13 1.16.36.22-.08.42-.2.57-.42.53-.74 2.03-2.2 1.5-2.7a.5.5 0 0 0-.33-.11z" transform="translate(-1724.83 -100.66) scale(8.73486)" fill="url(#n)"/><path d="M216.24 27.45c-.93 0-1.8-1.39-1.9-2.09-.1-.7-.2-3.8 1.86-3.66.49.03.92.4 1.19.66.85.86.92 2.4.8 3.05-.09.44-.56.8-.98 1.23-.38.37-.17.8-.97.8z" transform="translate(-1724.83 -100.66) scale(8.73486)" fill="url(#o)"/><path d="M215.63 20.78c.38 1.27 2.21 2.09 4.44 1.65 2.23-.44 2.32-1.89 2.05-2.44s-.94-1.46-2.79-1.21-4.15.46-3.7 2z" transform="translate(-1724.83 -100.66) scale(8.73486)" fill="url(#p)"/><path d="M216 20.8c.41.54 2.84.96 4.22-.54 1.4-1.5.2-1.78.57-2.8.38-1.02.5-1.45.37-1.53-.14-.07-.76.22-1.84.1-1.07-.1-2.65-.24-2.97 1.37-.33 1.6-.75 2.75-.36 3.4z" transform="translate(-1724.83 -100.66) scale(8.73486)" fill="url(#q)"/><path d="M211.52 16.62c.6-.58 1.22-.19 1.84-.1 1 .16 1.74-.04 2.55.8.52.53.8 2.82-.03 3.45-.84.63-3 1.04-3.72-.32-.31-.58-.41-.98-.6-1.6-.23-.76-.7-1.58-.04-2.23z" transform="translate(-1724.83 -100.66) scale(8.73486)" fill="url(#r)"/><path d="M211.47 25.66c-.41-.4.16-1.2.25-1.6.08-.4 0-2.03.7-2.72.78-.76 3-1.06 3.63-.07.64 1 .51 2.54.03 3.26-.61.93-3.93 1.82-4.6 1.13z" transform="translate(-1724.83 -100.66) scale(8.73486)" fill="url(#s)"/><path d="M157.88 86.27c.88-1.75 2.27-2.01 4.2 0 1.83 1.92 2.35 4.28 1.3 4.71a4.2 4.2 0 0 1-3.58 0c-1.3-.78-3.14-2.36-1.92-4.71zm4.8-4.72c1.05-2.01 2.98-2.45 5.33-.09 2.45 2.27 2.97 5.16 1.75 5.6a5.68 5.68 0 0 1-4.63 0c-1.57-.88-3.93-2.72-2.44-5.51z" fill="#9700da"/></svg>