<?xml version="1.0" encoding="UTF-8" standalone="no"?>
<!-- Created with Inkscape (http://www.inkscape.org/) -->

<svg
   version="1.1"
   id="svg132"
   width="47.278397mm"
   height="52.916725mm"
   viewBox="0 0 47.278397 52.916725"
   sodipodi:docname="alice ricamo LOGO def.svg"
   inkscape:version="1.3 (0e150ed6c4, 2023-07-21)"
   xmlns:inkscape="http://www.inkscape.org/namespaces/inkscape"
   xmlns:sodipodi="http://sodipodi.sourceforge.net/DTD/sodipodi-0.dtd"
   xmlns:xlink="http://www.w3.org/1999/xlink"
   xmlns="http://www.w3.org/2000/svg"
   xmlns:svg="http://www.w3.org/2000/svg">
  <defs
     id="defs136">
    <linearGradient
       id="linearGradient1">
      <stop
         style="stop-opacity: 1; stop-color: rgb(213, 151, 255);"
         offset="0"
         id="stop1" />
      <stop
         style="stop-opacity: 1; stop-color: rgb(255, 248, 253);"
         offset="1"
         id="stop2" />
    </linearGradient>
    <linearGradient
       id="linearGradient2">
      <stop
         id="stop916"
         offset="0"
         style="stop-opacity:1;stop-color:#ab30ff" />
      <stop
         id="stop918"
         offset="1"
         style="stop-opacity:1;stop-color:#ff87dd" />
    </linearGradient>
    <linearGradient
       xlink:href="#linearGradient1"
       id="linearGradient15201" />
    <linearGradient
       xlink:href="#linearGradient1"
       id="linearGradient15203" />
    <linearGradient
       xlink:href="#linearGradient1"
       id="linearGradient15205" />
    <linearGradient
       xlink:href="#linearGradient1"
       id="linearGradient15207"
       gradientUnits="userSpaceOnUse"
       x1="103.11653"
       y1="47.144596"
       x2="116.79932"
       y2="52.614845" />
    <linearGradient
       xlink:href="#linearGradient1"
       id="linearGradient15209"
       gradientUnits="userSpaceOnUse"
       x1="105.61639"
       y1="54.977051"
       x2="120.36758"
       y2="57.046925" />
    <linearGradient
       xlink:href="#linearGradient1"
       id="linearGradient15211"
       gradientUnits="userSpaceOnUse"
       x1="103.73205"
       y1="50.967506"
       x2="117.0834"
       y2="50.967506" />
    <linearGradient
       xlink:href="#linearGradient1"
       id="linearGradient15213"
       gradientUnits="userSpaceOnUse"
       x1="87.227264"
       y1="49.840069"
       x2="96.160553"
       y2="49.840069" />
    <linearGradient
       xlink:href="#linearGradient1"
       id="linearGradient15215"
       gradientUnits="userSpaceOnUse"
       x1="88.758926"
       y1="41.092545"
       x2="98.62796"
       y2="41.092545" />
    <linearGradient
       xlink:href="#linearGradient2"
       id="linearGradient15217"
       gradientUnits="userSpaceOnUse"
       x1="87.555885"
       y1="45.531124"
       x2="91.929787"
       y2="45.531124" />
    <linearGradient
       xlink:href="#linearGradient1"
       id="linearGradient15219"
       gradientUnits="userSpaceOnUse"
       x1="85.422165"
       y1="37.138458"
       x2="93.672089"
       y2="37.138458" />
    <linearGradient
       xlink:href="#linearGradient1"
       id="linearGradient15221"
       gradientUnits="userSpaceOnUse"
       x1="80.072678"
       y1="47.205494"
       x2="88.560226"
       y2="47.205494" />
    <linearGradient
       xlink:href="#linearGradient1"
       id="linearGradient15223" />
    <linearGradient
       xlink:href="#linearGradient1"
       id="linearGradient15225"
       gradientUnits="userSpaceOnUse"
       x1="50.715343"
       y1="60.487465"
       x2="60.894909"
       y2="62.444588"
       gradientTransform="matrix(0.37461163,0,0,0.37461163,195.45023,0.82762413)" />
    <linearGradient
       xlink:href="#linearGradient1"
       id="linearGradient15227"
       gradientUnits="userSpaceOnUse"
       x1="64.595482"
       y1="57.746979"
       x2="64.536621"
       y2="48.697411"
       gradientTransform="matrix(0.37461163,0,0,0.37461163,195.45023,0.82762413)" />
    <linearGradient
       xlink:href="#linearGradient1"
       id="linearGradient15229"
       gradientUnits="userSpaceOnUse"
       x1="64.241455"
       y1="53.225407"
       x2="60.489231"
       y2="40.626499"
       gradientTransform="matrix(0.37461163,0,0,0.37461163,195.45023,0.82762413)" />
    <linearGradient
       xlink:href="#linearGradient1"
       id="linearGradient15231"
       gradientTransform="matrix(0.38116977,0,0,0.36816633,195.45023,0.82762413)"
       x1="42.52985"
       y1="43.579659"
       x2="54.07592"
       y2="51.572933"
       gradientUnits="userSpaceOnUse" />
    <linearGradient
       xlink:href="#linearGradient1"
       id="linearGradient15233"
       gradientTransform="matrix(0.37099968,0,0,0.37825874,195.45023,0.82762413)"
       x1="45.169529"
       y1="55.904648"
       x2="54.482662"
       y2="63.403252"
       gradientUnits="userSpaceOnUse" />
  </defs>
  <sodipodi:namedview
     id="namedview134"
     pagecolor="#ffffff"
     bordercolor="#666666"
     borderopacity="1.0"
     inkscape:showpageshadow="2"
     inkscape:pageopacity="0.0"
     inkscape:pagecheckerboard="0"
     inkscape:deskcolor="#d1d1d1"
     showgrid="false"
     inkscape:lockguides="true"
     inkscape:zoom="3.624996"
     inkscape:cx="89.51734"
     inkscape:cy="99.724248"
     inkscape:window-width="1680"
     inkscape:window-height="987"
     inkscape:window-x="-8"
     inkscape:window-y="-8"
     inkscape:window-maximized="1"
     inkscape:current-layer="svg132"
     inkscape:document-units="mm"
     showguides="true" />
  <path
     d="M 26.960081,6.3708843 C 14.064031,4.5895943 2.1095014,13.495094 0.2458014,26.271624 c -1.86498,12.78827 7.08457,24.6144 19.9901296,26.41439 12.40817,1.73057 24.05391,-6.45056 26.52471,-18.63269 -2.54687,10.98129 -13.52944,18.19046 -25.22654,16.55912 C 9.1478114,48.884724 0.5025814,37.917064 2.2242714,26.115344 3.9456414,14.313304 15.382171,6.1464443 27.768141,7.8738443 c 9.07129,1.26519 16.48969,7.6127197 18.79595,16.0826497 -2.26663,-9.28592 -10.01821,-16.2487697 -19.57295,-17.5811697 -0.0104,-0.002 -0.0206,-0.003 -0.0311,-0.004"
     style="fill:#d3f4d5;fill-opacity:1;fill-rule:nonzero;stroke:none;stroke-width:0.317012"
     id="path25075"
     clip-path="none" />
  <path
     d="m 26.275891,6.6883743 c -11.56554,0 -20.9417996,9.4269797 -20.9417996,21.0559297 0,11.62895 9.3762596,21.05594 20.9417996,21.05594 7.56043,0 14.53373,-4.09707 18.245,-10.72008 -3.74043,5.87518 -10.34791,9.45139 -17.46292,9.45139 -11.33762,0 -20.5281096,-8.92135 -20.5281096,-19.92641 -3.2e-4,-11.00476 9.1904896,-19.9261097 20.5281096,-19.9261097 6.10438,0 11.89206,2.6369097 15.79195,7.1949097 -3.9655,-5.1622297 -10.08637,-8.1855697 -16.57403,-8.1855697"
     style="fill:#d3f4d5;fill-opacity:1;fill-rule:nonzero;stroke:none;stroke-width:0.317012"
     id="path25077"
     clip-path="none" />
  <path
     d="m 44.431041,22.299184 c -2.79794,-7.54171 -10.76319,-14.2839197 -19.60021,-14.2839197 -11.61278,0 -19.3386796,8.1278597 -19.3386796,20.4678697 0,11.19306 10.0537196,20.71007 21.0977796,20.71007 9.41303,0 15.92415,-5.48652 18.79405,-13.855 -2.42165,9.89838 -11.37851,17.19916 -21.64874,17.19916 -12.04931,0 -21.8776296,-10.16086 -21.8776296,-22.66413 0,-12.50327 9.6679196,-22.8083797 22.3379296,-22.8083797 9.6416,0 18.22089,6.5726097 21.10538,15.5722597"
     style="fill:none;stroke:#d8b800;stroke-width:0.280873;stroke-linecap:round;stroke-linejoin:round;stroke-miterlimit:4;stroke-dasharray:none;stroke-opacity:1"
     id="path25079"
     clip-path="none" />
  <g
     id="g25103"
     transform="translate(-144.42167,-16.052796)">
    <path
       d="m 186.81078,53.429829 c -0.96087,0.835326 -0.83469,1.946136 -0.83469,1.946136 0,0 1.37804,0.166431 2.00193,-0.500562 0.62387,-0.666993 1.19418,-1.761001 1.19418,-1.761001 0,0 -1.40056,-0.5199 -2.36142,0.315427 z"
       style="fill:#d8b800;fill-opacity:1;fill-rule:nonzero;stroke:none;stroke-width:0.317012"
       id="path25081"
       clip-path="none"
       sodipodi:nodetypes="scscs" />
    <g
       id="g25087"
       style="fill:#d8b800;fill-opacity:1;stroke:none">
      <path
         d="m 157.65697,65.288816 c -1.0192,-0.380415 -2.01208,-0.166749 -2.01208,-0.166749 0,0 0.83818,1.281045 1.871,1.556212 1.03283,0.275483 1.30704,-0.257097 1.30704,-0.257097 0,0 -0.14677,-0.752269 -1.16596,-1.132366 z"
         style="fill:#d8b800;fill-opacity:1;fill-rule:nonzero;stroke:none;stroke-width:0.317012"
         id="path25083"
         clip-path="none"
         sodipodi:nodetypes="ccccc" />
      <path
         d="m 159.46562,66.794371 c 0,0 -0.99574,0.11712 -1.49028,0.602464 -0.49454,0.485663 -0.90824,1.22113 -0.90824,1.22113 0,0 1.28676,0.310355 1.89859,-0.302112 0.61183,-0.612467 0.49993,-1.521482 0.49993,-1.521482 z"
         style="fill:#d8b800;fill-opacity:1;stroke:none;stroke-width:0.0348713;stroke-linecap:butt;stroke-linejoin:miter;stroke-miterlimit:4;stroke-dasharray:none;stroke-opacity:1"
         id="path25085"
         clip-path="none"
         sodipodi:nodetypes="cccsc" />
    </g>
    <g
       id="g25093"
       style="fill:#d8b800;fill-opacity:1;stroke:none;stroke-opacity:1"
       transform="translate(0,0.1)">
      <path
         d="m 156.69009,59.377647 c 0,0 -0.56725,-0.77019 -1.30506,-0.785013 -0.80056,-0.01608 -1.37766,0.580717 -1.37766,0.580717 0,0 0.54161,0.780376 1.37964,0.7402 0.83767,-0.04012 1.30308,-0.535904 1.30308,-0.535904 z"
         style="fill:#d8b800;fill-opacity:1;stroke:none;stroke-width:0.0348713;stroke-linecap:butt;stroke-linejoin:miter;stroke-miterlimit:4;stroke-dasharray:none;stroke-opacity:1"
         id="path25089"
         clip-path="none"
         sodipodi:nodetypes="csccc" />
      <path
         d="m 155.48261,56.893121 c -0.45301,-0.641316 -1.57492,-0.711058 -1.57492,-0.711058 0,0 -0.27326,0.951035 0.31068,1.579671 0.5833,0.628634 1.61866,0.612466 1.61866,0.612466 0,0 0.0986,-0.839765 -0.35442,-1.481079 z"
         style="fill:#d8b800;fill-opacity:1;fill-rule:nonzero;stroke:none;stroke-width:0.317012;stroke-opacity:1"
         id="path25091"
         clip-path="none"
         sodipodi:nodetypes="scccs" />
    </g>
    <g
       id="g25101"
       style="fill:#d8b800;fill-opacity:1;stroke:none">
      <path
         d="m 188.53415,35.82473 c 0,0 0.41592,-1.795239 -0.80363,-2.67146 -1.21985,-0.876221 -2.40834,-0.728494 -2.40834,-0.728494 0,0 -0.32271,1.714717 0.82709,2.578576 1.14948,0.86354 2.38488,0.821378 2.38488,0.821378 z"
         style="fill:#d8b800;fill-opacity:1;stroke:none;stroke-width:0.0348713;stroke-linecap:butt;stroke-linejoin:miter;stroke-miterlimit:4;stroke-dasharray:none;stroke-opacity:1"
         id="path25095"
         clip-path="none" />
      <path
         d="m 187.77469,36.843162 c -1.05978,-0.08972 -1.79841,0.220006 -1.79841,0.220006 0,0 0.43367,1.12571 1.65511,1.207182 1.22145,0.08147 1.83582,-0.585521 1.83582,-0.585521 0,0 -0.63276,-0.751953 -1.69252,-0.841667 z"
         style="fill:#d8b800;fill-opacity:1;fill-rule:nonzero;stroke:none;stroke-width:0.317012"
         id="path25097"
         clip-path="none"
         sodipodi:nodetypes="scscs" />
      <path
         d="m 190.99299,36.606671 c 0.37027,-0.788409 0.21747,-1.721058 0.21747,-1.721058 0,0 -0.92631,-0.0168 -1.47569,0.788092 -0.62737,0.9187 -0.26756,2.011124 -0.26756,2.011124 0,0 1.15583,-0.290066 1.52578,-1.078158 z"
         style="fill:#d8b800;fill-opacity:1;fill-rule:nonzero;stroke:none;stroke-width:0.317012"
         id="path25099"
         clip-path="none"
         sodipodi:nodetypes="ccccc" />
    </g>
  </g>
  <g
     id="g25109"
     transform="translate(-144.42167,-16.052796)">
    <path
       id="path25105"
       clip-path="none"
       style="fill:#745b00;fill-opacity:1;fill-rule:nonzero;stroke:none;stroke-width:0.317012"
       d="m 168.84548,49.494137 c -0.0265,9e-5 -0.0535,0.0014 -0.0811,0.0041 -0.20511,0.02029 -0.43788,0.126335 -0.69815,0.31781 -0.25995,0.191475 -0.54265,0.494654 -0.84697,0.908988 -0.22509,0.301161 -0.43242,0.636703 -0.62167,1.006657 -0.18958,0.369635 -0.34146,0.73062 -0.45527,1.083138 h -5.2e-4 c 0.001,-0.105565 0.002,-0.261133 0.006,-0.465605 0.003,-0.204789 -7.4e-4,-0.426001 -0.0134,-0.662491 -0.0127,-0.236809 -0.0364,-0.473427 -0.0703,-0.710551 -0.0342,-0.236808 -0.0917,-0.442861 -0.1726,-0.617534 -0.0881,-0.19306 -0.18981,-0.321392 -0.30489,-0.384472 -0.11507,-0.06341 -0.21991,-0.09033 -0.31471,-0.08113 -0.11063,0.0111 -0.19311,0.0519 -0.24701,0.121956 -0.0542,0.07038 -0.0444,0.130468 0.0294,0.180868 0.0635,0.04692 0.10433,0.115809 0.12403,0.207739 0.0197,0.09193 0.0302,0.19322 0.0305,0.303857 0.01,0.580766 0.003,1.148685 -0.0196,1.703772 -0.0221,0.555088 -0.0445,1.110244 -0.0667,1.665015 -0.0222,0.555403 -0.0363,1.115803 -0.0413,1.681034 -0.005,0.565549 0.014,1.153552 0.0584,1.76475 0.002,0.0764 0.0403,0.139199 0.11421,0.187069 0.0739,0.0482 0.15524,0.06781 0.24494,0.05891 0.0735,-0.0073 0.14484,-0.03869 0.21394,-0.09353 0.0687,-0.05484 0.1212,-0.14405 0.1571,-0.267684 0.0475,-0.163261 0.0863,-0.351192 0.11575,-0.563273 0.0298,-0.211764 0.0517,-0.429298 0.0672,-0.652157 0.0148,-0.222543 0.0271,-0.443638 0.0341,-0.663008 0.008,-0.21969 0.013,-0.418386 0.0171,-0.596863 0.002,-0.307502 0.0454,-0.641165 0.1323,-1.000973 0.0865,-0.35949 0.19894,-0.719196 0.33589,-1.079004 0.13758,-0.359491 0.29351,-0.704035 0.46819,-1.034045 0.17467,-0.329692 0.35566,-0.619509 0.54364,-0.868681 0.23903,-0.326521 0.44416,-0.561859 0.61598,-0.706417 0.17182,-0.144243 0.31075,-0.221567 0.41599,-0.232027 0.10525,-0.01046 0.1789,0.03938 0.2217,0.147795 0.0425,0.108735 0.0531,0.255465 0.0315,0.440283 -0.0216,0.184819 -0.0741,0.395829 -0.1571,0.632003 -0.0827,0.236806 -0.19453,0.479983 -0.33434,0.729154 -0.12236,0.213984 -0.25486,0.421915 -0.39688,0.623218 -0.14234,0.201619 -0.28738,0.402313 -0.43511,0.60203 -0.14773,0.199401 -0.29367,0.401493 -0.43822,0.605648 -0.14456,0.204157 -0.27504,0.41545 -0.39171,0.633553 -0.1046,0.18355 -0.12246,0.338001 -0.0543,0.463538 0.0682,0.125536 0.1914,0.179507 0.37052,0.161747 0.0789,-0.0079 0.15148,-0.02464 0.21808,-0.05064 0.0612,-0.02505 0.12632,-0.04084 0.19482,-0.04754 0.15788,-0.01585 0.2921,0.02603 0.40307,0.125574 0.11031,0.09986 0.20476,0.231347 0.28216,0.394291 0.0773,0.163261 0.13801,0.347996 0.18241,0.555005 0.0444,0.207324 0.0804,0.412097 0.10801,0.613399 0.0279,0.201936 0.0458,0.385756 0.0548,0.553454 0.008,0.167066 0.0141,0.296594 0.0181,0.387574 0.004,0.09574 0.0101,0.227425 0.0191,0.394808 0.009,0.167698 0.0245,0.352234 0.047,0.554488 0.0225,0.202253 0.0566,0.41015 0.10128,0.624768 0.0453,0.213982 0.10572,0.413595 0.18242,0.598413 0.078,0.194329 0.17639,0.32986 0.29559,0.40721 0.1192,0.07703 0.24196,0.109512 0.36845,0.09715 0.15248,-0.01522 0.29673,-0.0859 0.43305,-0.21239 0.13631,-0.126488 0.24793,-0.292737 0.33383,-0.498161 0.22095,-0.560476 0.41886,-1.108477 0.5948,-1.644861 0.12527,-0.382841 0.26091,-0.777074 0.40566,-1.181323 l 5.1e-4,5.17e-4 c 0.11065,0.07158 0.22928,0.100726 0.35554,0.08837 0.18957,-0.0187 0.35698,-0.123834 0.50281,-0.316259 0.10746,-0.14963 0.20879,-0.317478 0.30489,-0.502295 0.0957,-0.185135 0.18472,-0.367226 0.26562,-0.545704 0.006,-0.01391 0.0119,-0.0271 0.0181,-0.04082 0.0524,0.350113 0.15699,0.621994 0.31265,0.815971 0.16675,0.20733 0.36851,0.298895 0.60564,0.275435 0.16295,-0.01617 0.33396,-0.09061 0.51212,-0.223759 0.17816,-0.132827 0.35778,-0.333122 0.53847,-0.600996 h -5.2e-4 c 0.0463,-0.06689 0.10442,-0.155614 0.17312,-0.265617 0.0688,-0.11032 0.13837,-0.22645 0.20877,-0.348816 0.0192,-0.03343 0.038,-0.06555 0.0568,-0.09819 0.0171,0.129136 0.0503,0.24786 0.10025,0.356567 0.0732,0.151531 0.16839,0.264901 0.28474,0.340031 0.11634,0.07513 0.23731,0.105904 0.3638,0.09353 0.0948,-0.0095 0.18751,-0.04356 0.27751,-0.102836 0.0897,-0.05928 0.16847,-0.147805 0.23667,-0.2651 h -5.1e-4 c 0.0409,-0.07133 0.0932,-0.161932 0.15658,-0.271301 0.0638,-0.109686 0.10879,-0.192567 0.13539,-0.248047 -0.0138,0.07355 -0.0132,0.16407 0.003,0.270268 0.0158,0.106832 0.0373,0.212961 0.0636,0.318843 0.0264,0.105248 0.0572,0.204053 0.093,0.296623 0.0355,0.09288 0.0665,0.162409 0.0925,0.207739 0.0948,0.154068 0.20132,0.265837 0.31988,0.335897 0.11857,0.06975 0.23836,0.09906 0.35915,0.08733 0.10556,-0.01046 0.20621,-0.05402 0.30231,-0.130741 0.0957,-0.07672 0.17654,-0.188004 0.24184,-0.33383 0.0615,-0.131242 0.12364,-0.284013 0.18604,-0.45837 0.0558,-0.156625 0.10995,-0.315216 0.16175,-0.475423 0.009,0.06705 0.0194,0.136655 0.0315,0.211356 0.0202,0.123001 0.0473,0.247451 0.0806,0.373621 0.0336,0.126488 0.0773,0.242734 0.13023,0.348299 0.0539,0.11444 0.12104,0.201366 0.20154,0.260966 0.0802,0.05928 0.15933,0.08512 0.23823,0.07752 0.13155,-0.013 0.2301,-0.116247 0.2961,-0.310576 0.008,-0.02948 0.0251,-0.09829 0.0517,-0.206705 0.0263,-0.108418 0.0544,-0.227826 0.0842,-0.358118 0.0299,-0.130292 0.0574,-0.25574 0.0827,-0.376204 0.025,-0.120148 0.0405,-0.209354 0.0455,-0.267684 0.0273,0.06499 0.0821,0.125668 0.16485,0.182418 0.0827,0.05675 0.16898,0.08073 0.25838,0.07183 0.11064,-0.0111 0.19213,-0.07446 0.24443,-0.190169 0.0226,-0.04089 0.0463,-0.105741 0.0724,-0.194821 0.0257,-0.08908 0.0514,-0.183046 0.0765,-0.281636 0.0247,-0.09859 0.0506,-0.195799 0.0785,-0.292489 0.0276,-0.09637 0.0491,-0.174091 0.0646,-0.233061 0.0121,-0.03963 0.0412,-0.11963 0.0879,-0.239778 0.0466,-0.11983 0.0989,-0.246359 0.15761,-0.379822 0.0587,-0.133144 0.11722,-0.25227 0.17622,-0.356567 0.0584,-0.104293 0.10686,-0.158248 0.14366,-0.161748 0.0368,-0.0038 0.0559,0.04048 0.0568,0.131775 10e-4,0.0913 -0.005,0.19583 -0.0165,0.31471 -0.0124,0.119196 -0.0272,0.237206 -0.045,0.3545 -0.0174,0.116977 -0.0296,0.202219 -0.0346,0.255798 -0.0212,0.26629 -0.0468,0.549185 -0.076,0.847494 -0.0291,0.298625 -0.0473,0.599607 -0.0543,0.903304 -0.008,0.303698 7.9e-4,0.602317 0.0243,0.895553 0.0235,0.293552 0.0777,0.570573 0.16226,0.831473 0.0533,0.162945 0.12316,0.284636 0.21136,0.364836 0.0872,0.08021 0.17562,0.115987 0.26562,0.107487 0.13155,-0.013 0.23154,-0.102204 0.30024,-0.267684 0.052,-0.120464 0.11518,-0.283354 0.19068,-0.487825 0.0758,-0.20479 0.15817,-0.430011 0.24857,-0.676962 0.0897,-0.246952 0.18253,-0.50389 0.27853,-0.770495 0.0957,-0.266608 0.19029,-0.521064 0.28319,-0.763261 0.003,-0.0083 0.006,-0.0155 0.009,-0.02377 0.009,0.03942 0.0197,0.07835 0.0315,0.116788 0.0704,0.228883 0.18186,0.416979 0.33435,0.565341 0.15311,0.14836 0.33737,0.212442 0.55294,0.191202 0.14741,-0.01458 0.2777,-0.06746 0.39119,-0.15813 0.11317,-0.09035 0.21004,-0.198474 0.29094,-0.324011 0.0805,-0.125854 0.14473,-0.257025 0.19223,-0.394291 0.0476,-0.136632 0.0822,-0.258802 0.10336,-0.366903 0.29704,-0.05801 0.54993,-0.1791 0.75757,-0.363285 0.20764,-0.18355 0.36646,-0.3922 0.47646,-0.624251 0.0211,-0.05484 0.0223,-0.09573 0.004,-0.12299 -0.0183,-0.02697 -0.0459,-0.03842 -0.0827,-0.03462 -0.0422,0.0041 -0.0822,0.02956 -0.11988,0.07648 -0.1211,0.175308 -0.2615,0.344636 -0.42065,0.506946 -0.15946,0.162309 -0.34699,0.25667 -0.56224,0.28267 0.0231,-0.136949 0.0294,-0.281799 0.0171,-0.434599 -0.0123,-0.152483 -0.0432,-0.302093 -0.092,-0.448552 -0.0488,-0.146776 -0.12121,-0.283905 -0.21601,-0.411344 -0.0948,-0.127755 -0.21035,-0.232993 -0.34571,-0.315743 -0.12427,-0.07418 -0.25476,-0.104787 -0.39171,-0.09147 -0.0948,0.0095 -0.18385,0.04011 -0.26665,0.09147 -0.0821,0.05136 -0.15309,0.115039 -0.21239,0.190169 -0.0587,0.07576 -0.10374,0.160295 -0.13384,0.254765 -0.031,0.09415 -0.0428,0.19168 -0.0388,0.292489 0,0.05294 0.001,0.0849 0.005,0.09663 0.004,0.0117 -0.016,0.04683 -0.0579,0.103352 -0.11373,0.16887 -0.19059,0.356593 -0.22944,0.563274 -0.0699,0.16851 -0.14615,0.358094 -0.2279,0.570507 -0.0869,0.225078 -0.1759,0.462413 -0.2682,0.711585 -0.0923,0.249488 -0.17883,0.489102 -0.25993,0.718302 -0.0812,0.2292 -0.15266,0.434336 -0.21446,0.615983 -0.0618,0.181647 -0.11018,0.314696 -0.14418,0.399976 -0.0789,0.224128 -0.13131,0.337531 -0.15761,0.340031 -0.0213,0.0022 -0.0332,-0.03986 -0.0362,-0.126091 -0.003,-0.08623 -0.006,-0.200958 -0.0103,-0.345198 -0.01,-0.42226 0.008,-0.847009 0.0537,-1.274341 0.0457,-0.42765 0.0739,-0.853796 0.0853,-1.277958 0.001,-0.04375 0.003,-0.125199 0.007,-0.24598 0.004,-0.120465 0.005,-0.255114 5.2e-4,-0.40411 -0.004,-0.148362 -0.0128,-0.303295 -0.0258,-0.465604 -0.0137,-0.161994 -0.0405,-0.309723 -0.0801,-0.442867 -0.0396,-0.133145 -0.0913,-0.239874 -0.15503,-0.320394 -0.0637,-0.07989 -0.14828,-0.115053 -0.25321,-0.104903 -0.11603,0.01173 -0.22976,0.0937 -0.34262,0.246496 -0.11222,0.153117 -0.21527,0.326571 -0.30747,0.520899 -0.0926,0.194327 -0.17315,0.385021 -0.24185,0.572058 -0.0695,0.187355 -0.124,0.323687 -0.1633,0.409277 -0.005,-0.04755 -0.0112,-0.105556 -0.0212,-0.174666 -0.01,-0.06879 -0.0214,-0.136115 -0.0357,-0.202055 -0.0145,-0.06594 -0.034,-0.128906 -0.0584,-0.189136 -0.0247,-0.06023 -0.0542,-0.105282 -0.0894,-0.135392 -0.0815,-0.07354 -0.15917,-0.106519 -0.23307,-0.09922 -0.0789,0.0076 -0.14048,0.05712 -0.18448,0.147795 -0.0444,0.09098 -0.0749,0.180277 -0.093,0.268717 -0.0529,0.216837 -0.10271,0.430692 -0.14831,0.641821 -0.0454,0.211446 -0.0869,0.42502 -0.12402,0.640271 -0.0266,0.161044 -0.0528,0.242963 -0.0791,0.245463 -0.0155,0.0016 -0.0299,-0.04494 -0.0419,-0.140043 -0.012,-0.09479 -0.0215,-0.185391 -0.0305,-0.271301 -0.0241,-0.189889 -0.0389,-0.378304 -0.0439,-0.56534 -0.005,-0.186721 -0.0171,-0.37585 -0.0362,-0.566374 -0.0155,-0.156921 -0.0454,-0.270168 -0.0894,-0.340547 -0.0444,-0.07006 -0.0948,-0.102435 -0.15245,-0.09663 -0.0843,0.0082 -0.15504,0.07765 -0.21084,0.208256 -0.0565,0.130609 -0.0993,0.277938 -0.12816,0.441833 -0.0162,0.09107 -0.0285,0.180529 -0.0382,0.268718 -0.0268,0.08535 -0.0554,0.174916 -0.0879,0.273368 -0.0488,0.148996 -0.10039,0.302283 -0.15399,0.458887 -0.0539,0.156919 -0.1093,0.308892 -0.1664,0.456303 -0.0571,0.147409 -0.1096,0.276736 -0.1571,0.387056 -0.0355,0.07101 -0.0707,0.130694 -0.10593,0.179834 -0.0349,0.04914 -0.0733,0.076 -0.11524,0.0801 -0.0894,0.0089 -0.16605,-0.09213 -0.22945,-0.302307 -0.0552,-0.181965 -0.0916,-0.376617 -0.10903,-0.583943 -0.0182,-0.207325 -0.0253,-0.420499 -0.0233,-0.639238 0.002,-0.219055 0.01,-0.438869 0.0222,-0.658874 0.0128,-0.220006 0.0202,-0.42882 0.0222,-0.626319 0.001,-0.04311 -0.0219,-0.0744 -0.0692,-0.09405 -0.0469,-0.01931 -0.0995,-0.02647 -0.15762,-0.02067 -0.0577,0.006 -0.11266,0.02514 -0.16536,0.05684 -0.0526,0.03138 -0.0867,0.08139 -0.10129,0.149861 -0.059,-0.0615 -0.14828,-0.115821 -0.26716,-0.164331 -0.11919,-0.04857 -0.24937,-0.06563 -0.39171,-0.05168 -0.10525,0.01046 -0.21128,0.04166 -0.31781,0.09302 -0.10651,0.05136 -0.20776,0.129563 -0.30386,0.235128 -0.1005,0.110954 -0.1887,0.249565 -0.2651,0.415995 -0.077,0.166115 -0.1354,0.341367 -0.1757,0.52555 -0.0135,0.06236 -0.0239,0.124663 -0.032,0.187068 -0.0198,0.03197 -0.0404,0.06579 -0.063,0.103353 -0.0662,0.11032 -0.13344,0.22377 -0.20154,0.341065 -0.0678,0.117295 -0.13534,0.230545 -0.20154,0.340547 -0.0663,0.110002 -0.123,0.195933 -0.1695,0.258383 -0.11825,0.151214 -0.22401,0.262696 -0.31781,0.334346 -0.0938,0.07196 -0.17816,0.111039 -0.25166,0.118339 -0.10018,0.0098 -0.18163,-0.03482 -0.24443,-0.134359 -0.0628,-0.09954 -0.10929,-0.231911 -0.13849,-0.397391 -0.03,-0.165164 -0.0433,-0.350216 -0.0393,-0.555005 0.004,-0.20479 0.0199,-0.406648 0.0481,-0.606682 0.0279,-0.200034 0.0693,-0.385886 0.12454,-0.557071 0.0545,-0.171187 0.11697,-0.30584 0.18707,-0.40411 0.0748,-0.103664 0.14883,-0.159098 0.22273,-0.166398 0.063,-0.0063 0.10899,0.01802 0.13849,0.07286 0.0294,0.05452 0.0462,0.105919 0.0512,0.153479 0.013,0.08052 0.0489,0.118137 0.10697,0.112137 0.0259,-0.0022 0.0511,-0.0171 0.0749,-0.04341 0.0244,-0.02663 0.0395,-0.06167 0.0455,-0.10542 0.007,-0.09193 -0.0188,-0.188178 -0.0765,-0.288354 -0.0498,-0.07703 -0.11543,-0.131361 -0.19533,-0.164331 -0.0805,-0.03301 -0.16772,-0.04516 -0.26252,-0.03566 -0.13663,0.01363 -0.27567,0.06452 -0.41548,0.152962 -0.14044,0.08845 -0.2564,0.204694 -0.3483,0.348299 -0.0831,0.12839 -0.16042,0.272524 -0.23202,0.433566 -0.072,0.161041 -0.13117,0.329054 -0.17777,0.504362 -0.0408,0.153116 -0.07,0.309154 -0.0879,0.467671 -0.008,0.01697 -0.0154,0.0337 -0.0238,0.05219 -0.0501,0.110636 -0.10572,0.232407 -0.16692,0.365869 -0.0615,0.133462 -0.12468,0.270791 -0.19068,0.411861 -0.0656,0.141388 -0.13159,0.270596 -0.19689,0.387573 -0.0656,0.116978 -0.12765,0.213421 -0.18655,0.288871 -0.059,0.07545 -0.1127,0.115606 -0.1602,0.120406 -0.0472,0.0044 -0.0852,-0.03516 -0.11472,-0.118855 -0.0298,-0.08369 -0.0466,-0.228224 -0.0506,-0.434599 3e-4,-0.264387 0.0153,-0.537766 0.046,-0.819588 0.0305,-0.281824 0.0336,-0.55164 0.008,-0.808737 -0.005,-0.04755 -0.029,-0.08932 -0.0724,-0.12609 -0.0438,-0.03644 -0.0971,-0.05188 -0.1602,-0.04548 -0.0736,0.0073 -0.15456,0.06302 -0.24236,0.167948 -0.0884,0.104932 -0.16398,0.292545 -0.22738,0.563273 -0.0189,0.07862 -0.0335,0.172785 -0.0439,0.282154 -0.01,0.109051 -0.0177,0.222819 -0.0217,0.341064 -0.004,0.117928 -0.006,0.236056 -0.005,0.353984 9e-4,0.117611 0.007,0.22426 0.0155,0.31936 0.0183,0.186166 0.0645,0.339124 0.13849,0.45992 -0.0454,0.120838 -0.0919,0.247574 -0.13952,0.380339 -0.0935,0.261534 -0.18762,0.52451 -0.28112,0.788582 -0.0935,0.263753 -0.18337,0.52277 -0.27027,0.776697 -0.0862,0.253609 -0.16738,0.482825 -0.24288,0.687296 -0.11159,0.323353 -0.23564,0.491766 -0.37259,0.505396 -0.17373,0.01712 -0.29,-0.216539 -0.3483,-0.701249 -0.034,-0.237125 -0.0641,-0.471864 -0.0894,-0.704867 -0.0257,-0.233321 -0.0477,-0.469057 -0.0661,-0.70745 -0.019,-0.248221 -0.0528,-0.533678 -0.10026,-0.855762 -0.0479,-0.322085 -0.1236,-0.635347 -0.22789,-0.939994 -0.10462,-0.304331 -0.24846,-0.579107 -0.43201,-0.823206 -0.18323,-0.243783 -0.42068,-0.411512 -0.71107,-0.502811 0.1433,-0.163262 0.2815,-0.322472 0.41496,-0.477491 0.13347,-0.155018 0.26227,-0.316591 0.38654,-0.485241 0.12395,-0.168333 0.24544,-0.349825 0.36432,-0.544153 0.11888,-0.194646 0.23408,-0.410499 0.34313,-0.646989 0.1715,-0.363296 0.28141,-0.714281 0.33021,-1.053166 0.0496,-0.339203 0.0483,-0.637787 -0.004,-0.897103 -0.0523,-0.259315 -0.15103,-0.462488 -0.29559,-0.609265 -0.12677,-0.128147 -0.28251,-0.192354 -0.46768,-0.191719 z m 15.17272,3.129524 c 0.0748,-0.0029 0.15494,0.02765 0.24081,0.09095 0.0916,0.06816 0.17447,0.165565 0.24857,0.293005 0.0732,0.127438 0.12903,0.27565 0.16743,0.444934 0.0381,0.169284 0.0381,0.354536 -5.2e-4,0.555522 h -5.1e-4 c -0.0859,-0.006 -0.17352,-0.03086 -0.26252,-0.07493 -0.0894,-0.04375 -0.16973,-0.09139 -0.24133,-0.14211 -0.0713,-0.05072 -0.13098,-0.101199 -0.17828,-0.151929 -0.0479,-0.05072 -0.0724,-0.08505 -0.0744,-0.104386 -0.006,-0.06657 0.0185,-0.139175 0.0749,-0.216524 0.0554,-0.07798 0.0804,-0.152109 0.0734,-0.223759 -0.008,-0.08084 -0.0433,-0.126483 -0.10542,-0.136943 -0.0621,-0.0107 -0.12213,-0.01355 -0.17983,-0.0078 0.0171,-0.203522 0.0912,-0.312055 0.22273,-0.325045 0.005,-4.96e-4 0.01,-8.38e-4 0.015,-10e-4 z m -12.55065,0.359151 c -0.008,-1.21e-4 -0.0159,2.84e-4 -0.0238,10e-4 -0.0948,0.0095 -0.16326,0.04268 -0.20516,0.09974 -0.0425,0.05674 -0.0597,0.121433 -0.0527,0.192753 6e-4,0.06245 0.0289,0.119772 0.0847,0.172082 0.0558,0.05199 0.11754,0.07491 0.18603,0.06821 0.10525,-0.01046 0.17621,-0.0449 0.21291,-0.10387 0.0365,-0.05897 0.0492,-0.121842 0.0372,-0.188102 -0.0118,-0.06594 -0.043,-0.124266 -0.093,-0.174666 -0.0438,-0.0441 -0.0924,-0.06633 -0.14624,-0.06718 z m 5.02088,0.49351 c 0.0878,-2.1e-4 0.17626,0.0288 0.26613,0.08733 0.003,0.03804 0.001,0.07892 -0.008,0.12299 -0.009,0.04406 -0.0178,0.08607 -0.0238,0.125056 -0.0136,0.0783 -0.0213,0.143067 -0.0243,0.193787 -0.003,0.05072 -0.007,0.09677 -0.0108,0.137976 -0.004,0.04153 -0.0142,0.08417 -0.031,0.129191 -0.0168,0.04501 -0.0455,0.105501 -0.0858,0.181901 l -0.33228,0.588078 c -0.091,0.157873 -0.17311,0.24023 -0.24701,0.24753 -0.0684,0.0067 -0.11595,-0.04687 -0.14315,-0.162264 -0.0273,-0.115075 -0.0357,-0.255084 -0.0253,-0.419612 0.008,-0.07767 0.0243,-0.182516 0.0481,-0.31471 0.0244,-0.132194 0.0608,-0.26468 0.10904,-0.396875 0.0479,-0.132194 0.11102,-0.248406 0.18862,-0.349849 0.0777,-0.101441 0.17182,-0.157882 0.28215,-0.168982 0.0125,-0.0012 0.0247,-0.0015 0.0372,-0.0016 z m 7.32823,0.565857 c 0.0612,0.0279 0.15463,0.07522 0.28112,0.142111 0.12585,0.0669 0.29103,0.10925 0.49455,0.12764 -0.0527,0.110954 -0.10365,0.215603 -0.15245,0.314193 -0.0488,0.09859 -0.11405,0.190466 -0.19585,0.275435 -0.0726,0.0745 -0.14316,0.11474 -0.21136,0.12144 -0.0789,0.0079 -0.13948,-0.02564 -0.18138,-0.100769 -0.0422,-0.07545 -0.0694,-0.153058 -0.0827,-0.233577 -0.012,-0.06626 -0.0122,-0.161868 -5.1e-4,-0.288355 0.0114,-0.126172 0.0277,-0.245262 0.0486,-0.358118 z" />
    <path
       id="path25107"
       clip-path="none"
       style="fill:#d8b800;fill-opacity:1;fill-rule:nonzero;stroke:none;stroke-width:0.317012"
       d="m 168.7752,49.349443 c -0.0265,9e-5 -0.054,0.0014 -0.0816,0.0041 -0.20511,0.02029 -0.43705,0.126335 -0.69764,0.31781 -0.25995,0.191476 -0.54284,0.494854 -0.84749,0.909505 -0.22508,0.300844 -0.43222,0.636504 -0.62115,1.00614 -0.18958,0.369636 -0.34146,0.73062 -0.45527,1.083138 h -5.2e-4 c 0,-0.105565 0.001,-0.260815 0.005,-0.465605 0.004,-0.204788 -7.3e-4,-0.425684 -0.0134,-0.662491 -0.0127,-0.236808 -0.0364,-0.473426 -0.0703,-0.710551 -0.0342,-0.236807 -0.0915,-0.442543 -0.1726,-0.617534 -0.0881,-0.19306 -0.18981,-0.321392 -0.30489,-0.384472 -0.11507,-0.0631 -0.21991,-0.09012 -0.31471,-0.08062 -0.11063,0.01078 -0.19312,0.05138 -0.24702,0.12144 -0.0545,0.07038 -0.0444,0.130468 0.0295,0.180867 0.0635,0.04692 0.10464,0.11612 0.12454,0.20774 0.0193,0.09193 0.0297,0.19322 0.03,0.303857 0.009,0.580765 0.003,1.148685 -0.0191,1.703772 -0.0225,0.555088 -0.045,1.110443 -0.0672,1.665532 -0.0225,0.555087 -0.0363,1.115286 -0.0413,1.680517 -0.005,0.565549 0.0136,1.153553 0.0584,1.76475 0.002,0.0764 0.0407,0.139199 0.11421,0.187069 0.0739,0.04787 0.15525,0.06741 0.24495,0.05891 0.0735,-0.0073 0.14484,-0.03869 0.21394,-0.09353 0.0687,-0.05484 0.12119,-0.144049 0.15709,-0.267684 0.0475,-0.163261 0.086,-0.350874 0.11576,-0.563273 0.0295,-0.211763 0.052,-0.429097 0.0672,-0.65164 0.0152,-0.222543 0.0271,-0.444154 0.0341,-0.663525 0.008,-0.219689 0.0131,-0.418385 0.0171,-0.596863 0.002,-0.307501 0.0451,-0.641482 0.13229,-1.000973 0.0865,-0.359491 0.19895,-0.718996 0.3359,-1.078487 0.13726,-0.359808 0.2935,-0.704552 0.46818,-1.034562 0.17499,-0.329692 0.35618,-0.619511 0.54416,-0.868681 0.23871,-0.326523 0.44364,-0.56186 0.61546,-0.706417 0.17182,-0.143922 0.31043,-0.221567 0.416,-0.232027 0.10493,-0.01046 0.17889,0.03906 0.22169,0.147795 0.0428,0.108734 0.0531,0.255464 0.0315,0.440283 -0.0219,0.184818 -0.0741,0.396029 -0.15709,0.632519 -0.0827,0.236807 -0.19423,0.479467 -0.33435,0.728638 -0.12236,0.2143 -0.25454,0.422115 -0.39688,0.623735 -0.14202,0.201301 -0.28686,0.402113 -0.43459,0.601513 -0.14773,0.199717 -0.29418,0.401493 -0.43874,0.605648 -0.14455,0.204156 -0.27556,0.415966 -0.39222,0.63407 -0.1043,0.183234 -0.12184,0.337484 -0.0537,0.463021 0.0682,0.125535 0.1916,0.179507 0.37103,0.161747 0.0789,-0.0076 0.15148,-0.02445 0.21808,-0.05013 0.0612,-0.02535 0.1261,-0.04198 0.1943,-0.04858 0.15787,-0.01553 0.29213,0.02675 0.40308,0.126607 0.11064,0.09954 0.20455,0.230514 0.28215,0.393775 0.077,0.162944 0.13802,0.347996 0.18242,0.555005 0.044,0.207325 0.0804,0.412097 0.108,0.613399 0.0279,0.201938 0.0468,0.385756 0.0548,0.553454 0.008,0.167383 0.0141,0.296594 0.0181,0.387574 0.004,0.09574 0.0106,0.227426 0.0196,0.394808 0.008,0.167698 0.0237,0.352234 0.0465,0.554488 0.0225,0.202253 0.0561,0.41015 0.10077,0.624768 0.0453,0.213982 0.10593,0.413595 0.18293,0.598413 0.0777,0.194328 0.17589,0.32986 0.29508,0.40721 0.11919,0.07735 0.24228,0.109522 0.36845,0.09715 0.1528,-0.01522 0.29726,-0.0859 0.43356,-0.21239 0.13632,-0.126488 0.24742,-0.292737 0.33332,-0.498161 0.22095,-0.560477 0.41969,-1.108159 0.59531,-1.644861 0.12533,-0.382769 0.26084,-0.777347 0.40566,-1.18184 0.11104,0.07213 0.22963,0.101804 0.35657,0.0894 0.18957,-0.0187 0.35698,-0.124151 0.50281,-0.316259 0.10747,-0.149947 0.20931,-0.317478 0.30541,-0.502295 0.0957,-0.185135 0.18368,-0.36691 0.26458,-0.545704 0.006,-0.01406 0.0124,-0.02747 0.0186,-0.04134 0.0526,0.350102 0.15661,0.62212 0.31265,0.816488 0.16675,0.207013 0.36851,0.298895 0.60564,0.275435 0.16263,-0.01617 0.33364,-0.09061 0.51212,-0.223759 0.17785,-0.132827 0.35725,-0.333123 0.53795,-0.600997 0.0463,-0.06689 0.10442,-0.155613 0.17312,-0.265616 0.0691,-0.11032 0.13807,-0.226767 0.20877,-0.348816 0.0192,-0.03351 0.038,-0.0655 0.0568,-0.09819 0.0172,0.129137 0.0502,0.247861 0.10025,0.356568 0.0732,0.151215 0.1684,0.264704 0.28474,0.339514 0.11666,0.07514 0.23731,0.106731 0.3638,0.09405 0.0948,-0.0092 0.18729,-0.04356 0.27699,-0.102836 0.0897,-0.05928 0.16848,-0.147806 0.23668,-0.2651 0.0409,-0.07133 0.0931,-0.161615 0.15658,-0.271301 0.0634,-0.109686 0.10857,-0.19205 0.13487,-0.24753 -0.0138,0.07355 -0.0127,0.163235 0.003,0.269751 0.0156,0.106515 0.0367,0.212761 0.063,0.318326 0.0266,0.105565 0.058,0.205087 0.0935,0.297657 0.0359,0.09257 0.0663,0.161882 0.092,0.207222 0.0951,0.154067 0.20183,0.266354 0.32039,0.336414 0.11857,0.06974 0.23837,0.09887 0.35915,0.08682 0.10525,-0.01046 0.20591,-0.05402 0.30231,-0.130741 0.0957,-0.07703 0.17654,-0.188522 0.24184,-0.334347 0.0618,-0.130926 0.12364,-0.283697 0.18604,-0.45837 0.0562,-0.156584 0.10993,-0.314964 0.16175,-0.475423 0.01,0.06714 0.0199,0.136456 0.032,0.211357 0.0202,0.123 0.047,0.247967 0.0806,0.374137 0.0336,0.126488 0.0773,0.242734 0.13023,0.348299 0.0536,0.114758 0.12082,0.201366 0.20102,0.260966 0.0802,0.05928 0.15984,0.08541 0.23874,0.07751 0.13124,-0.013 0.22959,-0.116247 0.29559,-0.310576 0.008,-0.02948 0.0251,-0.09829 0.0517,-0.206705 0.0266,-0.108418 0.0547,-0.227509 0.0848,-0.358118 0.0295,-0.129975 0.0569,-0.25574 0.0822,-0.376204 0.0251,-0.120148 0.0405,-0.209354 0.0455,-0.267684 0.0273,0.06467 0.0826,0.125151 0.16536,0.181901 0.0824,0.05675 0.16847,0.08125 0.25787,0.07235 0.11064,-0.01078 0.19213,-0.07446 0.24443,-0.19017 0.0224,-0.04089 0.0466,-0.10543 0.0724,-0.19482 0.0257,-0.08876 0.0513,-0.18253 0.076,-0.281119 0.0247,-0.09859 0.0512,-0.196316 0.0791,-0.293006 0.0275,-0.09637 0.0494,-0.173781 0.0646,-0.233061 0.0121,-0.03963 0.041,-0.11963 0.0873,-0.239778 0.0469,-0.11983 0.0998,-0.24636 0.15813,-0.379822 0.059,-0.133145 0.11732,-0.25227 0.17622,-0.356567 0.0587,-0.104293 0.10656,-0.157948 0.14366,-0.161748 0.0365,-0.0035 0.0559,0.03996 0.0568,0.131259 10e-4,0.0913 -0.005,0.196547 -0.0171,0.315743 -0.012,0.118879 -0.0272,0.236689 -0.045,0.353983 -0.0174,0.116978 -0.0291,0.202219 -0.0341,0.255798 -0.0216,0.266608 -0.0471,0.548869 -0.076,0.847494 -0.0292,0.298309 -0.0473,0.599924 -0.0543,0.903304 -0.007,0.303698 0.001,0.602 0.0248,0.895553 0.0235,0.293235 0.0774,0.570573 0.16174,0.831473 0.0532,0.163261 0.12356,0.284636 0.21136,0.364836 0.0875,0.08052 0.17592,0.116387 0.26562,0.107487 0.13156,-0.013 0.23154,-0.10272 0.30024,-0.268201 0.0517,-0.120464 0.1157,-0.28252 0.1912,-0.487308 0.0758,-0.204474 0.15765,-0.430327 0.24805,-0.676962 0.0897,-0.246951 0.18243,-0.503889 0.27853,-0.770495 0.0957,-0.266607 0.19051,-0.520747 0.28371,-0.763261 0.003,-0.0078 0.006,-0.01448 0.009,-0.02222 0.009,0.03888 0.0188,0.07731 0.0305,0.115238 0.0707,0.228883 0.18258,0.417296 0.33538,0.56534 0.1528,0.14836 0.33706,0.212443 0.55294,0.191203 0.14709,-0.01458 0.27738,-0.06746 0.39119,-0.15813 0.11318,-0.09035 0.20992,-0.198157 0.29042,-0.324011 0.0805,-0.125854 0.14494,-0.256825 0.19224,-0.393774 0.0476,-0.13695 0.0824,-0.259319 0.10335,-0.36742 0.29736,-0.05801 0.54994,-0.179418 0.75758,-0.363285 0.20764,-0.183867 0.36644,-0.392199 0.47645,-0.624251 0.0211,-0.05483 0.0225,-0.09552 0.004,-0.122473 -0.0187,-0.02729 -0.0464,-0.03864 -0.0832,-0.03514 -0.0422,0.0041 -0.0822,0.02956 -0.11989,0.07648 -0.1211,0.175307 -0.2612,0.344635 -0.42065,0.506946 -0.15946,0.162309 -0.34647,0.25667 -0.56172,0.28267 0.0238,-0.13695 0.0289,-0.282116 0.0165,-0.434599 -0.0124,-0.1528 -0.0432,-0.302092 -0.092,-0.448552 -0.0491,-0.146775 -0.12091,-0.284106 -0.21601,-0.411861 -0.0948,-0.127756 -0.21003,-0.232993 -0.34571,-0.315743 -0.12427,-0.07418 -0.25528,-0.10458 -0.39223,-0.09095 -0.0948,0.0092 -0.18281,0.03959 -0.26561,0.09095 -0.0824,0.05136 -0.15339,0.115236 -0.21239,0.190686 -0.059,0.07577 -0.10386,0.160615 -0.13436,0.254765 -0.0306,0.09415 -0.0438,0.191679 -0.0388,0.292489 0,0.05295 0.001,0.08523 0.005,0.09664 0.004,0.01173 -0.0154,0.04609 -0.0579,0.102836 -0.11354,0.168518 -0.18931,0.35598 -0.22841,0.562239 -0.0701,0.168912 -0.14588,0.358665 -0.22789,0.572058 -0.0869,0.224761 -0.17682,0.462414 -0.26872,0.711585 -0.0926,0.249805 -0.17903,0.489103 -0.25993,0.718302 -0.0812,0.2292 -0.15296,0.434336 -0.21446,0.615983 -0.0618,0.181648 -0.10976,0.314696 -0.14366,0.399976 -0.079,0.224127 -0.13183,0.337531 -0.15813,0.340031 -0.0213,0.0022 -0.0322,-0.03986 -0.0362,-0.126091 -0.003,-0.08623 -0.006,-0.201275 -0.0103,-0.345198 -0.01,-0.42226 0.008,-0.846691 0.0538,-1.274341 0.0457,-0.427649 0.0742,-0.853797 0.0853,-1.277958 0.001,-0.04375 0.003,-0.125515 0.007,-0.24598 0.004,-0.120782 0.004,-0.255114 0,-0.40411 -0.004,-0.148361 -0.0125,-0.303811 -0.0258,-0.466121 -0.0133,-0.161993 -0.04,-0.309722 -0.0796,-0.442867 -0.0399,-0.133145 -0.0913,-0.239357 -0.15503,-0.319877 -0.0637,-0.07988 -0.14848,-0.115363 -0.25373,-0.104903 -0.11571,0.01141 -0.22957,0.09421 -0.3421,0.247013 -0.11223,0.152799 -0.21487,0.326371 -0.30747,0.520382 -0.0926,0.194327 -0.17367,0.385022 -0.24237,0.572058 -0.0695,0.187354 -0.12369,0.323687 -0.16329,0.409277 -0.005,-0.04724 -0.0112,-0.105876 -0.0212,-0.174666 -0.01,-0.06879 -0.0217,-0.135805 -0.0362,-0.202055 -0.0143,-0.06594 -0.0334,-0.128906 -0.0579,-0.189136 -0.0244,-0.05991 -0.0542,-0.105282 -0.0894,-0.135392 -0.0812,-0.07354 -0.15916,-0.106519 -0.23306,-0.09922 -0.0789,0.0079 -0.14009,0.05682 -0.18449,0.147795 -0.0444,0.09098 -0.0753,0.180277 -0.093,0.268717 -0.0532,0.216836 -0.10272,0.430892 -0.14832,0.642338 -0.0457,0.21113 -0.0866,0.424504 -0.12402,0.639754 -0.0266,0.161044 -0.0528,0.242963 -0.0791,0.245463 -0.0159,0.0016 -0.0304,-0.04494 -0.0424,-0.140043 -0.012,-0.09479 -0.0215,-0.185194 -0.0305,-0.270784 -0.0241,-0.190207 -0.0394,-0.378304 -0.0434,-0.56534 -0.006,-0.187037 -0.0177,-0.37585 -0.0367,-0.566374 -0.0155,-0.157239 -0.0449,-0.270685 -0.0889,-0.341064 -0.0444,-0.07006 -0.0953,-0.102435 -0.15296,-0.09663 -0.0843,0.0082 -0.15453,0.07733 -0.21033,0.208256 -0.0565,0.13029 -0.0992,0.277938 -0.12815,0.441833 -0.0164,0.09286 -0.0294,0.18399 -0.0393,0.273885 -0.0264,0.08401 -0.0547,0.171569 -0.0863,0.268201 -0.0491,0.148996 -0.10039,0.302283 -0.15399,0.458887 -0.0536,0.15692 -0.109,0.309209 -0.1664,0.456302 -0.0571,0.147727 -0.10971,0.276737 -0.15761,0.387057 -0.0352,0.07101 -0.0702,0.130694 -0.10542,0.179834 -0.0348,0.04883 -0.0737,0.076 -0.11576,0.0801 -0.0894,0.0089 -0.16563,-0.09213 -0.22893,-0.302307 -0.0549,-0.181965 -0.0916,-0.376618 -0.10903,-0.583943 -0.0184,-0.207643 -0.0258,-0.4207 -0.0238,-0.639755 0.002,-0.218738 0.01,-0.438351 0.0227,-0.658357 0.0128,-0.220006 0.0202,-0.428304 0.0222,-0.625802 0.001,-0.04311 -0.0219,-0.07492 -0.0692,-0.09457 -0.0469,-0.01931 -0.0995,-0.02595 -0.15762,-0.02015 -0.0577,0.006 -0.11318,0.02442 -0.16588,0.05581 -0.0526,0.0317 -0.0865,0.08243 -0.10077,0.150895 -0.0593,-0.0615 -0.14797,-0.116338 -0.26716,-0.164848 -0.1192,-0.04826 -0.24936,-0.06563 -0.39171,-0.05168 -0.10524,0.01046 -0.2113,0.04146 -0.31781,0.0925 -0.10683,0.05136 -0.20776,0.130079 -0.30386,0.235644 -0.10049,0.110954 -0.18921,0.249365 -0.26561,0.415479 -0.0767,0.166114 -0.1354,0.341881 -0.1757,0.526066 -0.0135,0.06254 -0.024,0.125031 -0.032,0.187585 -0.0197,0.03185 -0.0405,0.06541 -0.0631,0.102836 -0.0659,0.110003 -0.13304,0.22377 -0.20154,0.341065 -0.0678,0.117294 -0.13534,0.230545 -0.20154,0.340547 -0.0662,0.110003 -0.12289,0.196253 -0.16949,0.258383 -0.11793,0.151214 -0.22401,0.262696 -0.31781,0.334346 -0.0938,0.07196 -0.17817,0.111339 -0.25167,0.118339 -0.10018,0.0098 -0.18163,-0.03482 -0.24443,-0.134359 -0.0631,-0.09954 -0.10899,-0.231911 -0.13849,-0.397391 -0.0296,-0.165163 -0.0428,-0.350216 -0.0388,-0.555005 0.004,-0.204474 0.0193,-0.406648 0.0475,-0.606682 0.0282,-0.200034 0.0697,-0.385568 0.12454,-0.557071 0.0545,-0.171186 0.11737,-0.30584 0.18707,-0.40411 0.0748,-0.103344 0.14883,-0.159098 0.22273,-0.166398 0.0631,-0.0063 0.10951,0.01802 0.13901,0.07286 0.0292,0.05452 0.0466,0.105919 0.0506,0.153479 0.013,0.08052 0.0489,0.117937 0.10697,0.112137 0.0263,-0.0025 0.0513,-0.0171 0.0754,-0.04341 0.0242,-0.02663 0.0395,-0.06167 0.0455,-0.10542 0.007,-0.09193 -0.0188,-0.188178 -0.0765,-0.288354 -0.0501,-0.07672 -0.11543,-0.131361 -0.19533,-0.164331 -0.0802,-0.033 -0.16824,-0.04516 -0.26304,-0.03566 -0.13663,0.01363 -0.27485,0.06483 -0.41496,0.152962 -0.14012,0.08845 -0.25651,0.204175 -0.34881,0.347783 -0.083,0.128388 -0.16043,0.27304 -0.23203,0.434082 -0.072,0.161041 -0.13065,0.329372 -0.17725,0.504362 -0.0405,0.153394 -0.0699,0.309211 -0.0879,0.467671 -0.008,0.01693 -0.0154,0.03324 -0.0238,0.05168 -0.0501,0.110638 -0.10572,0.233441 -0.16692,0.366902 -0.0615,0.133145 -0.1252,0.270591 -0.1912,0.411345 -0.0656,0.141387 -0.13077,0.270596 -0.19637,0.387573 -0.0653,0.116978 -0.12807,0.212905 -0.18707,0.288355 -0.059,0.07545 -0.11166,0.116122 -0.15916,0.120922 -0.0472,0.0044 -0.0863,-0.03516 -0.11576,-0.118855 -0.0295,-0.08369 -0.0466,-0.228742 -0.0506,-0.435116 3e-4,-0.264071 0.0158,-0.537248 0.0465,-0.819071 0.0308,-0.281823 0.0336,-0.551641 0.008,-0.808737 -0.005,-0.04755 -0.029,-0.08932 -0.0724,-0.12609 -0.0434,-0.03643 -0.0971,-0.05188 -0.1602,-0.04548 -0.0736,0.0073 -0.15404,0.06302 -0.24184,0.167948 -0.0881,0.104932 -0.1642,0.292545 -0.2279,0.563273 -0.0187,0.07862 -0.0337,0.172785 -0.0439,0.282154 -0.0104,0.109052 -0.0182,0.222819 -0.0222,0.341064 -0.004,0.118246 -0.006,0.236373 -0.005,0.353984 10e-4,0.117611 0.007,0.223743 0.0155,0.318843 0.0183,0.185659 0.0644,0.338759 0.13798,0.459404 -0.0454,0.121215 -0.0918,0.248032 -0.13953,0.381372 -0.0939,0.261534 -0.18762,0.52451 -0.28112,0.788582 -0.0935,0.26407 -0.18377,0.522772 -0.27027,0.776697 -0.0865,0.25361 -0.16778,0.482825 -0.24288,0.687296 -0.11191,0.32367 -0.23563,0.492076 -0.37258,0.505396 -0.17372,0.01712 -0.2896,-0.216539 -0.3483,-0.701249 -0.0339,-0.237125 -0.0637,-0.471864 -0.0894,-0.704867 -0.0256,-0.233321 -0.0475,-0.46874 -0.0656,-0.70745 -0.0193,-0.248221 -0.0529,-0.533361 -0.10077,-0.855762 -0.0479,-0.322085 -0.12411,-0.635346 -0.22841,-0.939994 -0.10461,-0.304648 -0.24794,-0.578907 -0.4315,-0.822689 -0.18355,-0.244099 -0.42088,-0.411709 -0.71158,-0.503329 0.14329,-0.16326 0.28168,-0.322471 0.41547,-0.47749 0.13346,-0.155018 0.26227,-0.316591 0.38654,-0.485241 0.12396,-0.168333 0.24563,-0.349824 0.36484,-0.544153 0.11887,-0.194645 0.23324,-0.410182 0.34261,-0.646989 0.1715,-0.362979 0.28163,-0.71428 0.33073,-1.053166 0.0499,-0.338884 0.0479,-0.637787 -0.004,-0.897103 -0.0523,-0.259315 -0.15104,-0.462171 -0.29559,-0.609265 -0.12649,-0.128147 -0.28193,-0.192354 -0.46716,-0.191719 z m 15.17272,3.129524 c 0.075,-0.0027 0.15494,0.02787 0.24081,0.09147 0.0916,0.06784 0.17467,0.165366 0.24857,0.292488 0.0736,0.127439 0.12943,0.275649 0.16743,0.444934 0.0381,0.169284 0.0376,0.354536 -10e-4,0.555522 h -5.2e-4 c -0.0856,-0.006 -0.1729,-0.03055 -0.262,-0.07493 -0.0894,-0.04375 -0.17003,-0.09138 -0.24133,-0.14211 -0.0716,-0.0504 -0.1315,-0.101209 -0.1788,-0.151929 -0.0478,-0.05041 -0.0719,-0.08505 -0.0739,-0.104386 -0.006,-0.06657 0.018,-0.139175 0.0744,-0.216524 0.0558,-0.07767 0.0809,-0.152109 0.0739,-0.223759 -0.008,-0.08085 -0.0436,-0.12669 -0.10542,-0.13746 -0.0621,-0.0107 -0.12213,-0.01303 -0.17983,-0.0072 0.0168,-0.203521 0.0912,-0.312055 0.22273,-0.325045 0.005,-4.76e-4 0.01,-8.53e-4 0.015,-10e-4 z m -12.55065,0.359151 c -0.008,-1.29e-4 -0.0154,2.84e-4 -0.0233,10e-4 -0.0948,0.0095 -0.16377,0.04268 -0.20567,0.09974 -0.0423,0.05706 -0.0597,0.121103 -0.0527,0.192753 3e-4,0.06213 0.0284,0.119772 0.0842,0.172082 0.0558,0.05231 0.11786,0.07481 0.18656,0.06821 0.10492,-0.01046 0.1764,-0.0449 0.2129,-0.10387 0.0368,-0.05897 0.049,-0.121852 0.0372,-0.188102 -0.012,-0.06594 -0.0432,-0.124266 -0.093,-0.174666 -0.0438,-0.04382 -0.0924,-0.06627 -0.14624,-0.06718 z m 5.02088,0.49351 c 0.0879,-2.1e-4 0.17653,0.0288 0.26613,0.08733 0.003,0.03804 7.3e-4,0.07913 -0.008,0.123506 -0.009,0.04406 -0.0172,0.08555 -0.0232,0.12454 -0.0133,0.0783 -0.0208,0.143387 -0.0248,0.193787 -0.003,0.05072 -0.006,0.09677 -0.0103,0.137976 -0.004,0.04121 -0.0142,0.08449 -0.031,0.129191 -0.0171,0.04502 -0.0455,0.105295 -0.0858,0.181385 l -0.33279,0.588077 c -0.091,0.158182 -0.1726,0.240747 -0.2465,0.248047 -0.0685,0.007 -0.11646,-0.04719 -0.14366,-0.162264 -0.0273,-0.115075 -0.0357,-0.255084 -0.0253,-0.419612 0.008,-0.07767 0.0245,-0.182716 0.0486,-0.315227 0.0241,-0.131877 0.0606,-0.263964 0.10852,-0.395841 0.0479,-0.132193 0.11102,-0.249122 0.18862,-0.350883 0.0777,-0.101124 0.17183,-0.157685 0.28216,-0.168465 0.0125,-0.0012 0.0252,-0.0015 0.0377,-0.0016 z m 7.32772,0.565857 c 0.0609,0.0279 0.15494,0.07522 0.28112,0.142111 0.12616,0.0669 0.29071,0.10925 0.49454,0.12764 -0.053,0.11127 -0.10343,0.215603 -0.15193,0.314193 -0.0491,0.09859 -0.11457,0.190476 -0.19637,0.275435 -0.0723,0.07482 -0.14316,0.114957 -0.21136,0.121957 -0.0789,0.0076 -0.13928,-0.02616 -0.18138,-0.101286 -0.0418,-0.07545 -0.0689,-0.153058 -0.0822,-0.233577 -0.012,-0.06594 -0.0127,-0.161667 -10e-4,-0.287838 0.0114,-0.126171 0.0274,-0.245778 0.0486,-0.358635 z" />
  </g>
  <g
     id="g25115"
     transform="translate(-144.42167,-16.052796)">
    <path
       id="path25111"
       clip-path="none"
       style="fill:#745b00;fill-opacity:1;fill-rule:nonzero;stroke:none;stroke-width:0.317012"
       d="m 161.61285,30.659627 c -0.88384,0 -1.95826,0.8289 -3.22409,2.487187 -0.75291,0.982419 -1.43818,2.204902 -2.05414,3.66696 -0.61658,1.462374 -1.08303,3.038687 -1.3994,4.729943 -0.17467,0.03296 -0.38456,0.07621 -0.62993,0.130742 -0.24568,0.05484 -0.49391,0.117609 -0.74466,0.188619 -0.25107,0.07101 -0.4886,0.1417 -0.7121,0.21239 -0.22381,0.07133 -0.41234,0.139339 -0.56482,0.204639 -0.24029,0.109367 -0.4066,0.21077 -0.4992,0.30334 -0.0929,0.09257 -0.13901,0.174257 -0.13901,0.244947 0,0.07132 0.03,0.125971 0.0899,0.164331 0.0599,0.03838 0.11214,0.05172 0.15554,0.04031 0.0986,-0.02156 0.25937,-0.06544 0.48318,-0.130741 0.2235,-0.06562 0.47458,-0.138869 0.75292,-0.220659 0.27834,-0.0821 0.56455,-0.161311 0.85938,-0.237711 0.29418,-0.0764 0.55608,-0.130844 0.78497,-0.163814 -0.0872,0.600419 -0.19382,1.219824 -0.31936,1.858284 -0.12522,0.638144 -0.24523,1.282226 -0.35967,1.931148 -0.11476,0.649241 -0.21276,1.293203 -0.29456,1.931665 -0.0821,0.638461 -0.12821,1.257149 -0.13901,1.857251 0,0.218104 0.0326,0.382074 0.0982,0.491443 0.0653,0.108738 0.14164,0.163298 0.22944,0.163298 0.0869,0 0.17399,-0.05188 0.26149,-0.155546 0.0869,-0.103664 0.15257,-0.258797 0.19637,-0.466122 0.033,-0.174673 0.0817,-0.453091 0.14727,-0.835091 0.0653,-0.381998 0.13908,-0.81823 0.22118,-1.308964 0.0818,-0.49105 0.1691,-1.007005 0.262,-1.547192 0.0926,-0.539871 0.18225,-1.060867 0.26975,-1.562696 0.0872,-0.502147 0.16641,-0.955217 0.23771,-1.35909 0.0707,-0.403556 0.12757,-0.708898 0.17157,-0.916223 0.0216,-0.130927 0.0383,-0.212493 0.0491,-0.245463 0.0108,-0.03265 0.071,-0.0603 0.18035,-0.08217 0.85086,-0.141704 1.70215,-0.277835 2.55333,-0.408761 0.85118,-0.131243 1.67451,-0.272697 2.47117,-0.425814 -0.0325,1.276607 -0.0407,2.551089 -0.0243,3.821989 0.0165,1.271217 0.0707,2.452299 0.1633,3.543453 0.0926,1.091155 0.22922,2.043338 0.40928,2.856156 0.18006,0.813135 0.41728,1.404898 0.7121,1.776119 0.0872,0.11983 0.19351,0.204592 0.31936,0.253732 0.12522,0.04914 0.24798,0.07338 0.36845,0.07338 0.20701,0 0.38639,-0.0712 0.5395,-0.212907 0.15255,-0.14202 0.21849,-0.349036 0.19689,-0.621667 -0.0875,-1.004292 -0.16936,-1.961919 -0.24546,-2.872693 -0.0767,-0.911408 -0.13982,-1.830712 -0.18862,-2.757971 -0.0491,-0.927259 -0.0791,-1.893005 -0.0899,-2.896981 -0.0114,-1.00366 0.005,-2.10081 0.0491,-3.290238 0.27263,-0.07608 0.57019,-0.144202 0.89194,-0.204122 0.32177,-0.05991 0.64631,-0.117553 0.9741,-0.172083 0.21572,-0.03595 0.42996,-0.06673 0.64337,-0.0956 -0.002,0.01573 -0.004,0.03073 -0.006,0.04651 -0.0761,0.687282 -0.13604,1.394127 -0.17984,2.119767 -0.0439,0.725956 -0.0572,1.429408 -0.0408,2.110982 0.0165,0.682209 0.0652,1.323293 0.14728,1.923397 0.0818,0.600103 0.20434,1.107419 0.36793,1.522388 h -5.1e-4 c 0.12015,0.294503 0.27598,0.50984 0.46715,0.646472 0.19051,0.136313 0.39499,0.204638 0.6134,0.204638 0.19624,0 0.39052,-0.05188 0.58136,-0.155546 0.19085,-0.10398 0.35174,-0.259312 0.48266,-0.466638 0.12015,-0.185452 0.26748,-0.438909 0.44183,-0.760677 0.17436,-0.322083 0.35713,-0.676947 0.54829,-1.064018 0.19053,-0.387388 0.38481,-0.788376 0.58136,-1.203027 0.0545,-0.115174 0.10457,-0.224007 0.15658,-0.33538 -0.006,0.129423 -0.009,0.252392 -0.009,0.367936 h -5.1e-4 c 0,0.611198 0.13089,1.083389 0.39274,1.415934 0.26185,0.332862 0.5674,0.499195 0.91674,0.499195 0.39278,0 0.75832,-0.202092 1.09657,-0.605648 0.25107,-0.316378 0.49353,-0.673287 0.72812,-1.071769 0.23491,-0.398484 0.45248,-0.791034 0.65474,-1.17874 0.0162,-0.03097 0.0312,-0.06039 0.047,-0.09095 0.0369,0.807 0.19571,1.448196 0.47697,1.923913 0.29989,0.507536 0.69544,0.761194 1.18649,0.761194 0.33793,0 0.7038,-0.130889 1.09658,-0.392741 0.39277,-0.261851 0.80209,-0.676083 1.22783,-1.243851 0.10904,-0.141703 0.24539,-0.330236 0.40928,-0.564824 0.16358,-0.234589 0.32939,-0.482805 0.49867,-0.744657 0.0877,-0.136077 0.17402,-0.268926 0.2589,-0.398942 -0.004,0.180792 -5.7e-4,0.360067 0.0114,0.537951 0.033,0.485345 0.11453,0.916653 0.24546,1.292945 0.13124,0.37661 0.30846,0.679272 0.53227,0.908471 0.22349,0.229199 0.48815,0.343649 0.79375,0.343649 0.21811,0 0.44733,-0.05937 0.6873,-0.179834 0.23998,-0.119831 0.49651,-0.316165 0.76946,-0.589112 0.18544,-0.174672 0.40655,-0.42577 0.66301,-0.752925 0.25614,-0.327474 0.51535,-0.668458 0.77721,-1.023194 0.26185,-0.354419 0.5077,-0.69552 0.73691,-1.022676 0.0447,-0.06382 0.085,-0.122354 0.12506,-0.180351 0.0231,0.133252 0.0467,0.264848 0.0708,0.392741 0.10904,0.578546 0.20736,1.061102 0.29456,1.44849 0.0874,0.387388 0.13126,0.597483 0.13126,0.630453 -0.0983,0.185452 -0.24326,0.406863 -0.43409,0.663008 -0.19053,0.256463 -0.40074,0.515362 -0.62993,0.777214 -0.22951,0.262169 -0.46673,0.509753 -0.7121,0.744657 -0.24568,0.234272 -0.47715,0.417361 -0.69557,0.548287 -0.13092,0.08718 -0.20999,0.16958 -0.23719,0.24598 -0.0272,0.07608 -0.0272,0.141324 0,0.195854 0.0272,0.05453 0.0732,0.101166 0.13849,0.139526 0.0656,0.03804 0.12615,0.05736 0.18035,0.05736 0.033,0 0.0548,-0.0058 0.0656,-0.01654 0.3167,-0.120147 0.69549,-0.398883 1.1374,-0.835092 0.44191,-0.436524 0.91902,-1.009088 1.43195,-1.718241 0.0545,0.272947 0.16404,0.616494 0.32763,1.031462 0.16357,0.414333 0.36279,0.818 0.59738,1.210778 0.23459,0.392778 0.49637,0.728322 0.78548,1.006657 0.28943,0.27802 0.58634,0.417546 0.89194,0.417546 0.20732,0 0.41485,-0.08188 0.62218,-0.245463 0.207,-0.163895 0.40334,-0.436557 0.58911,-0.818555 0.15281,-0.305601 0.36291,-0.744909 0.63046,-1.317749 0.26723,-0.57284 0.54226,-1.170162 0.8263,-1.792139 0.28373,-0.621976 0.55671,-1.219616 0.81856,-1.792138 0.26185,-0.572841 0.46393,-1.017392 0.60564,-1.333769 0.0655,-0.130926 0.0706,-0.229452 0.016,-0.295072 -0.0548,-0.0653 -0.12549,-0.09819 -0.21239,-0.09819 -0.1528,0 -0.26203,0.06 -0.32763,0.179834 -0.15311,0.272948 -0.35489,0.673935 -0.60564,1.203028 -0.25108,0.529409 -0.51029,1.086047 -0.77722,1.669665 -0.26755,0.583619 -0.52666,1.143454 -0.77773,1.677934 -0.25107,0.534483 -0.44741,0.938349 -0.58911,1.211296 -0.1528,0.294504 -0.2783,0.52084 -0.3762,0.679028 -0.0983,0.158193 -0.19134,0.237195 -0.27854,0.237195 -0.0875,0 -0.18263,-0.101204 -0.28629,-0.302824 -0.10366,-0.201936 -0.20452,-0.455394 -0.30282,-0.760677 -0.098,-0.305599 -0.19677,-0.644023 -0.29507,-1.014925 -0.098,-0.370905 -0.18509,-0.722888 -0.26149,-1.05575 -0.0764,-0.332863 -0.14187,-0.627204 -0.19637,-0.883667 -0.0549,-0.256462 -0.0877,-0.428231 -0.0982,-0.515731 0.23935,-0.567133 0.52363,-1.110527 0.85111,-1.628841 0.32716,-0.517997 0.6547,-0.995429 0.98185,-1.431954 0.32716,-0.436208 0.63302,-0.815314 0.91674,-1.137398 0.28373,-0.321767 0.50162,-0.570184 0.65474,-0.745174 0.0979,-0.108735 0.1147,-0.204498 0.0491,-0.286288 -0.0653,-0.08178 -0.15839,-0.122473 -0.27854,-0.122473 -0.10905,0 -0.20162,0.03811 -0.27802,0.114205 -0.6001,0.578547 -1.1513,1.20319 -1.65313,1.874304 -0.50215,0.671113 -0.99826,1.448329 -1.48931,2.332158 0,-0.07608 -0.0441,-0.302735 -0.13126,-0.679029 -0.0875,-0.376609 -0.18262,-0.785401 -0.28629,-1.227315 -0.10365,-0.442232 -0.20482,-0.853784 -0.30282,-1.2361 -0.0983,-0.381683 -0.15804,-0.616333 -0.17984,-0.703833 -0.0219,-0.07608 -0.0634,-0.177287 -0.12299,-0.302824 -0.0602,-0.12522 -0.12854,-0.245744 -0.20464,-0.360185 -0.0764,-0.114441 -0.15826,-0.215324 -0.24546,-0.302824 -0.0875,-0.08719 -0.1748,-0.130741 -0.262,-0.130741 -0.19655,0 -0.31925,0.104083 -0.36845,0.311092 -0.0491,0.207325 -0.0734,0.4091 -0.0734,0.605648 0,0.633072 0.0441,1.292643 0.13126,1.980241 0.0359,0.282894 0.0741,0.55459 0.11368,0.819071 -0.10245,0.137254 -0.23569,0.319182 -0.39997,0.54777 -0.22381,0.310989 -0.46134,0.63297 -0.7121,0.965833 -0.25139,0.332862 -0.49641,0.646524 -0.73639,0.941028 -0.23998,0.294504 -0.43139,0.507278 -0.57309,0.638204 -0.26185,0.228883 -0.47432,0.343648 -0.63821,0.343648 -0.13093,0 -0.23734,-0.08681 -0.31884,-0.261483 -0.0818,-0.174357 -0.11725,-0.480215 -0.10645,-0.91674 0.0108,-0.261851 0.0218,-0.51263 0.0326,-0.752925 0.0114,-0.239979 0.016,-0.419871 0.016,-0.540019 0.11983,-0.05453 0.22646,-0.09573 0.31936,-0.12299 0.0926,-0.02695 0.25346,-0.117151 0.48266,-0.270268 0.4584,-0.316377 0.7885,-0.698045 0.99012,-1.145666 0.20194,-0.447303 0.30282,-0.875415 0.30282,-1.284676 0,-0.409263 -0.0926,-0.758367 -0.27801,-1.047481 -0.18577,-0.289115 -0.43687,-0.433566 -0.75293,-0.433566 -0.20733,0 -0.43943,0.071 -0.69557,0.21239 -0.25646,0.142021 -0.52656,0.382436 -0.81028,0.72037 -0.33826,0.393094 -0.61124,0.832086 -0.81856,1.317749 -0.17856,0.418302 -0.31211,0.844697 -0.40152,1.278992 -0.0827,0.114914 -0.18065,0.254797 -0.29404,0.422713 -0.15818,0.234906 -0.31907,0.477881 -0.48266,0.728637 -0.16357,0.251072 -0.32447,0.493851 -0.48266,0.728121 -0.15819,0.234906 -0.29196,0.417361 -0.40101,0.548287 -0.27295,0.316695 -0.51304,0.545909 -0.72037,0.687297 -0.20733,0.142022 -0.38753,0.213424 -0.54001,0.213424 -0.20765,0 -0.36597,-0.120206 -0.47439,-0.360185 -0.10939,-0.239977 -0.17764,-0.551279 -0.20464,-0.933277 -0.0276,-0.381682 -0.0166,-0.804352 0.0325,-1.268139 0.0491,-0.463789 0.12236,-0.91922 0.22066,-1.366842 0.098,-0.446985 0.22104,-0.859489 0.36845,-1.2361 0.14741,-0.376294 0.30274,-0.668073 0.46664,-0.875399 0.17403,-0.218104 0.33833,-0.327628 0.49145,-0.327628 0.13092,0 0.22055,0.06596 0.26975,0.196887 0.0492,0.130926 0.0739,0.251133 0.0739,0.360185 0.0108,0.185765 0.0757,0.278019 0.19586,0.278019 0.0545,0 0.10901,-0.02733 0.16381,-0.08217 0.0546,-0.05453 0.0925,-0.130966 0.11472,-0.228926 0.0326,-0.207326 1.2e-4,-0.430983 -0.0982,-0.671277 -0.0875,-0.185135 -0.21026,-0.324139 -0.36845,-0.417029 -0.15819,-0.09257 -0.33604,-0.13901 -0.53227,-0.13901 -0.28373,0 -0.57839,0.08425 -0.88367,0.253215 -0.3056,0.169602 -0.56738,0.407018 -0.78548,0.712618 -0.19655,0.27263 -0.38444,0.583731 -0.56482,0.932759 -0.17974,0.349347 -0.33571,0.717454 -0.46664,1.104843 -0.11373,0.337318 -0.20477,0.682756 -0.27337,1.036629 -0.0203,0.03803 -0.0402,0.07567 -0.062,0.117305 -0.12523,0.240296 -0.26454,0.504954 -0.41703,0.79375 -0.15279,0.289115 -0.31081,0.586653 -0.47439,0.891936 -0.1639,0.305598 -0.32467,0.583818 -0.48318,0.834574 -0.15817,0.251074 -0.30552,0.456244 -0.44183,0.614433 -0.13695,0.158194 -0.25392,0.236678 -0.35192,0.236678 -0.0983,0 -0.16929,-0.09801 -0.21239,-0.294556 -0.044,-0.19623 -0.0495,-0.529211 -0.0165,-0.998389 0.0545,-0.600103 0.14101,-1.216427 0.26148,-1.849499 0.11984,-0.632755 0.17983,-1.243639 0.17983,-1.832963 0,-0.108735 -0.0402,-0.209934 -0.12195,-0.302824 -0.0821,-0.09257 -0.18844,-0.13901 -0.31936,-0.13901 -0.15312,0 -0.33033,0.108691 -0.53227,0.327112 -0.20193,0.218421 -0.3957,0.627729 -0.58084,1.227832 -0.0545,0.174674 -0.10348,0.384251 -0.14728,0.629936 -0.002,0.01209 -0.004,0.02455 -0.006,0.03669 -0.12059,0.278183 -0.25804,0.588515 -0.41961,0.945679 -0.18544,0.408944 -0.38467,0.837372 -0.59738,1.284676 -0.21304,0.447303 -0.42313,0.859291 -0.63046,1.235583 -0.20732,0.37661 -0.40098,0.68791 -0.58136,0.933277 -0.17974,0.245367 -0.32451,0.367936 -0.43356,0.367936 -0.13091,0 -0.20159,-0.179893 -0.21239,-0.540019 0,-0.120147 -0.003,-0.341559 -0.008,-0.663008 -0.006,-0.321767 -0.0115,-0.687312 -0.0165,-1.096574 -0.005,-0.408945 -0.005,-0.842813 0,-1.301213 0.006,-0.458398 0.0167,-0.88383 0.0331,-1.276924 0.0165,-0.392778 0.038,-0.728322 0.0656,-1.006657 0.027,-0.278019 0.0682,-0.444355 0.12299,-0.499195 0.27263,-0.381681 0.52576,-0.747227 0.76067,-1.096574 0.23427,-0.349029 0.45282,-0.703375 0.65474,-1.0635 0.20163,-0.360125 0.38727,-0.733673 0.55656,-1.121379 0.16896,-0.387071 0.33005,-0.804816 0.48317,-1.25212 0.22889,-0.687598 0.37058,-1.303605 0.42478,-1.8495 0.0545,-0.545577 0.0415,-1.006768 -0.0403,-1.383378 -0.0818,-0.376292 -0.21556,-0.662314 -0.40101,-0.858862 -0.18577,-0.196544 -0.4045,-0.294556 -0.65526,-0.294556 -0.22888,0 -0.47455,0.08744 -0.73639,0.261483 -0.26186,0.174991 -0.52363,0.442093 -0.78548,0.802535 -0.26185,0.359808 -0.51296,0.817921 -0.75293,1.374593 -0.2403,0.556356 -0.45275,1.222318 -0.6382,1.996778 -0.0983,0.425745 -0.19915,0.935742 -0.30282,1.530139 -0.0671,0.385162 -0.12778,0.791669 -0.18346,1.215429 -0.298,0.01832 -0.61298,0.05775 -0.94567,0.118856 -0.47457,0.08749 -1.00645,0.17975 -1.59577,0.278019 0,-0.960228 0.0218,-1.909217 0.0656,-2.847888 0.0434,-0.938355 0.0543,-1.887343 0.0325,-2.847888 -0.0222,-1.254732 -0.18852,-2.198797 -0.49919,-2.831868 -0.31131,-0.632756 -0.72862,-0.94878 -1.25264,-0.94878 z m -0.26148,0.94878 c 0.26186,0 0.44718,0.212974 0.55655,0.63872 0.10904,0.42543 0.10904,1.151079 0,2.176612 -0.0437,0.436524 -0.11203,0.916518 -0.20463,1.440222 -0.0929,0.52402 -0.18286,1.05558 -0.26976,1.595768 -0.0875,0.540187 -0.16671,1.072265 -0.23771,1.596285 -0.0713,0.523386 -0.10645,1.004015 -0.10645,1.440222 -0.80743,0.142021 -1.64485,0.28391 -2.51251,0.425297 -0.86734,0.142022 -1.72644,0.273111 -2.57762,0.393258 0.1528,-0.884145 0.35982,-1.729367 0.62167,-2.536796 0.26185,-0.807428 0.54602,-1.549719 0.85163,-2.226221 0.30527,-0.676503 0.61093,-1.276903 0.91622,-1.800924 0.30528,-0.523702 0.57283,-0.938052 0.80202,-1.243335 0.42575,-0.556672 0.82929,-1.012105 1.21129,-1.366841 0.38168,-0.354419 0.69823,-0.532267 0.9493,-0.532267 z m 8.0362,1.669665 c 0.11983,0 0.21776,0.08188 0.29456,0.245463 0.0761,0.163578 0.12015,0.398234 0.13125,0.703833 0.0108,0.3056 -0.0249,0.674024 -0.10645,1.104842 -0.0821,0.431137 -0.21556,0.914208 -0.40101,1.449007 -0.21811,0.610882 -0.49685,1.254645 -0.83509,1.931149 -0.33826,0.67682 -0.69803,1.276703 -1.08004,1.800407 0,-0.567134 0.0435,-1.21634 0.13074,-1.947685 0.0872,-0.731029 0.20759,-1.445879 0.36071,-2.144572 0.25075,-1.123489 0.51233,-1.928144 0.78496,-2.413806 0.27294,-0.485345 0.51304,-0.728638 0.72037,-0.728638 z m 2.19315,5.270479 c -0.19623,0 -0.34354,0.0602 -0.44184,0.180351 -0.0983,0.11983 -0.14727,0.261719 -0.14727,0.425297 -0.0111,0.142021 0.0353,0.278352 0.13901,0.409278 0.10366,0.130599 0.22643,0.19637 0.36845,0.19637 0.21779,0 0.37065,-0.06277 0.45785,-0.188619 0.0876,-0.12522 0.12604,-0.26423 0.11524,-0.417029 -0.0111,-0.1528 -0.0635,-0.292008 -0.15606,-0.417545 -0.0929,-0.125218 -0.20446,-0.188103 -0.33538,-0.188103 z m 10.1477,1.227316 c 0.13125,0 0.23726,0.08784 0.31936,0.262516 0.0818,0.174357 0.12247,0.343368 0.12247,0.506946 0,0.284041 -0.0381,0.534822 -0.1142,0.752925 -0.0767,0.218421 -0.17493,0.409513 -0.29507,0.573092 -0.0872,0.130926 -0.23451,0.281135 -0.44184,0.450102 -0.20732,0.169285 -0.40397,0.275413 -0.58911,0.318843 0,-0.119831 0.0218,-0.337529 0.0656,-0.654223 0.0434,-0.316378 0.10865,-0.638876 0.19585,-0.96635 0.0875,-0.327155 0.19147,-0.616057 0.31161,-0.86713 0.11983,-0.251073 0.26173,-0.376721 0.4253,-0.376721 z" />
    <path
       id="path25113"
       clip-path="none"
       style="fill:#d8b800;fill-opacity:1;fill-rule:nonzero;stroke:none;stroke-width:0.317012"
       d="m 161.54257,30.514933 c -0.88384,0 -1.95845,0.828899 -3.22461,2.487187 -0.75289,0.982419 -1.43735,2.204901 -2.05362,3.66696 -0.61659,1.462374 -1.08303,3.038686 -1.3994,4.729943 -0.17498,0.03296 -0.38509,0.07621 -0.63045,0.130742 -0.24569,0.05484 -0.49391,0.117609 -0.74466,0.188619 -0.2514,0.07101 -0.48861,0.1417 -0.7121,0.21239 -0.22381,0.07133 -0.41183,0.139339 -0.5643,0.204639 -0.24029,0.109367 -0.40712,0.21077 -0.49972,0.30334 -0.0929,0.09257 -0.13901,0.174257 -0.13901,0.244947 0,0.07133 0.0302,0.125454 0.0904,0.163814 0.0599,0.03838 0.11163,0.05223 0.15503,0.04082 0.0983,-0.02156 0.25917,-0.06544 0.48266,-0.130741 0.2235,-0.06562 0.4751,-0.138869 0.75344,-0.220659 0.27801,-0.0821 0.56436,-0.161311 0.85886,-0.237711 0.29451,-0.0764 0.55712,-0.130844 0.786,-0.163814 -0.0875,0.600419 -0.19382,1.219824 -0.31936,1.858284 -0.12554,0.638144 -0.24523,1.282226 -0.35967,1.931148 -0.11476,0.649241 -0.21297,1.292687 -0.29507,1.931149 -0.0817,0.638461 -0.12861,1.257665 -0.13901,1.857767 0,0.218104 0.0329,0.382074 0.0982,0.491443 0.0653,0.108738 0.14143,0.163298 0.22893,0.163298 0.0872,0 0.1748,-0.05188 0.262,-0.155546 0.0872,-0.103663 0.15237,-0.258796 0.19637,-0.466122 0.0326,-0.174673 0.082,-0.453092 0.14728,-0.835091 0.0656,-0.381999 0.13937,-0.818229 0.22117,-1.308964 0.0818,-0.49105 0.16859,-1.007005 0.26149,-1.547192 0.0926,-0.539871 0.18306,-1.060867 0.27026,-1.562696 0.0872,-0.502147 0.1659,-0.955217 0.2372,-1.35909 0.071,-0.403556 0.12828,-0.708898 0.17208,-0.916223 0.0216,-0.130926 0.038,-0.212493 0.0491,-0.245463 0.0105,-0.03265 0.0713,-0.0603 0.18035,-0.08217 0.85117,-0.141704 1.70195,-0.277835 2.55282,-0.408761 0.85117,-0.131242 1.67554,-0.272698 2.4722,-0.425814 -0.0327,1.276606 -0.0412,2.551089 -0.0248,3.821989 0.0165,1.271217 0.0709,2.452298 0.16381,3.543453 0.0926,1.091154 0.2289,2.043338 0.40928,2.856156 0.17974,0.813135 0.41728,1.404898 0.7121,1.776119 0.0869,0.119831 0.1933,0.204592 0.31884,0.253732 0.12521,0.04913 0.24832,0.07338 0.36846,0.07338 0.20701,0 0.38689,-0.0712 0.54001,-0.212907 0.15243,-0.14202 0.21797,-0.349036 0.19637,-0.621667 -0.0872,-1.004292 -0.16936,-1.961919 -0.24546,-2.872693 -0.0767,-0.911408 -0.13942,-1.830712 -0.18862,-2.757971 -0.0488,-0.927258 -0.0791,-1.893005 -0.0899,-2.896981 -0.011,-1.003659 0.006,-2.100812 0.0496,-3.290238 0.27263,-0.07608 0.56965,-0.144202 0.89142,-0.204122 0.32208,-0.05992 0.64663,-0.117553 0.9741,-0.172083 0.21593,-0.03595 0.43045,-0.06673 0.64389,-0.0956 -0.002,0.01573 -0.004,0.03073 -0.006,0.04651 -0.0761,0.687282 -0.13604,1.394128 -0.17984,2.119767 -0.0442,0.725957 -0.0575,1.429407 -0.0413,2.110982 0.0165,0.682208 0.0655,1.323293 0.14728,1.923397 0.0821,0.600102 0.20455,1.107419 0.36845,1.522388 0.11983,0.294503 0.27548,0.50984 0.46664,0.646472 0.19052,0.136313 0.3953,0.204122 0.6134,0.204122 0.19655,0 0.39,-0.05137 0.58084,-0.15503 0.19084,-0.10398 0.35226,-0.259313 0.48318,-0.466638 0.11983,-0.185452 0.26747,-0.43891 0.44183,-0.760677 0.17467,-0.322084 0.35733,-0.676946 0.54881,-1.064018 0.19052,-0.387387 0.38461,-0.788376 0.58084,-1.203027 0.0546,-0.115174 0.10456,-0.224008 0.15658,-0.33538 -0.006,0.129423 -0.009,0.252393 -0.009,0.367936 0,0.611199 0.13089,1.08339 0.39274,1.415934 0.26184,0.332862 0.56759,0.499195 0.91725,0.499195 0.39278,0 0.75749,-0.202092 1.09606,-0.605648 0.25076,-0.316378 0.49373,-0.673802 0.72864,-1.072286 0.23458,-0.398484 0.45228,-0.790518 0.65422,-1.178223 0.016,-0.03062 0.0308,-0.0597 0.0465,-0.08992 0.037,0.806522 0.19605,1.447363 0.47749,1.92288 0.2999,0.507536 0.69544,0.761194 1.18649,0.761194 0.33793,0 0.7038,-0.130889 1.09658,-0.392741 0.39278,-0.261851 0.80188,-0.676083 1.22731,-1.243851 0.10905,-0.141705 0.24539,-0.330235 0.40928,-0.564824 0.1639,-0.234588 0.3299,-0.482805 0.49919,-0.744657 0.0877,-0.13608 0.17406,-0.268923 0.2589,-0.398942 -0.004,0.180792 -5.7e-4,0.360067 0.0114,0.537951 0.0326,0.485345 0.11453,0.916651 0.24546,1.292945 0.13124,0.376609 0.30795,0.679273 0.53175,0.908471 0.22349,0.2292 0.48817,0.343649 0.79375,0.343649 0.21843,0 0.44752,-0.05937 0.68782,-0.179834 0.23998,-0.11983 0.49619,-0.316165 0.76946,-0.589112 0.18545,-0.174673 0.40571,-0.42577 0.66249,-0.752925 0.25583,-0.327473 0.51588,-0.668457 0.77773,-1.023194 0.26186,-0.354418 0.50719,-0.69552 0.73639,-1.022676 0.0446,-0.06375 0.085,-0.122408 0.12506,-0.180351 0.0231,0.133252 0.0467,0.264848 0.0708,0.392741 0.10905,0.578547 0.20735,1.061103 0.29455,1.44849 0.0874,0.387388 0.13126,0.597483 0.13126,0.630453 -0.0983,0.185452 -0.24324,0.406864 -0.43408,0.663008 -0.19053,0.256463 -0.40074,0.515362 -0.62994,0.777214 -0.22951,0.262169 -0.46674,0.509752 -0.7121,0.744657 -0.24537,0.234271 -0.47746,0.417361 -0.69556,0.548287 -0.13093,0.08718 -0.2096,0.169063 -0.2372,0.245463 -0.027,0.07608 -0.027,0.141841 0,0.196371 0.0276,0.05453 0.0734,0.100649 0.13901,0.139009 0.0653,0.03804 0.12563,0.05736 0.17983,0.05736 0.033,0 0.055,-0.0052 0.0661,-0.01602 0.31638,-0.120148 0.69496,-0.398883 1.13688,-0.835092 0.44192,-0.436524 0.91955,-1.009086 1.43247,-1.718241 0.0545,0.272948 0.16354,0.615977 0.32711,1.030945 0.16359,0.414334 0.3628,0.818518 0.59738,1.211295 0.23459,0.392778 0.49637,0.728322 0.78549,1.006657 0.28942,0.278019 0.58634,0.417029 0.89193,0.417029 0.20733,0 0.41538,-0.08137 0.6227,-0.244946 0.20702,-0.163896 0.40284,-0.436556 0.5886,-0.818555 0.1528,-0.3056 0.36288,-0.744908 0.63045,-1.317749 0.26724,-0.57284 0.54225,-1.170161 0.8263,-1.792139 0.28372,-0.621976 0.5567,-1.219615 0.81856,-1.792138 0.26185,-0.572841 0.46395,-1.017908 0.60565,-1.334286 0.0656,-0.130926 0.0711,-0.228925 0.0165,-0.294555 -0.0548,-0.0653 -0.126,-0.09819 -0.2129,-0.09819 -0.1528,0 -0.26203,0.06 -0.32763,0.179834 -0.15312,0.272947 -0.35437,0.673935 -0.60513,1.203028 -0.25107,0.529409 -0.51081,1.086047 -0.77773,1.669665 -0.26756,0.583619 -0.52666,1.143453 -0.77773,1.677934 -0.25108,0.534482 -0.44742,0.938349 -0.58911,1.211296 -0.1528,0.294503 -0.27821,0.520839 -0.37621,0.679028 -0.0983,0.158193 -0.19134,0.237195 -0.27854,0.237195 -0.0875,0 -0.18262,-0.101204 -0.28628,-0.302824 -0.10367,-0.201937 -0.20453,-0.455912 -0.30283,-0.761194 -0.098,-0.3056 -0.19625,-0.643505 -0.29455,-1.014408 -0.0979,-0.370904 -0.1856,-0.722888 -0.262,-1.05575 -0.0764,-0.332862 -0.14177,-0.627204 -0.19637,-0.883667 -0.0548,-0.256463 -0.0873,-0.428231 -0.0977,-0.515731 0.23934,-0.567133 0.52312,-1.110526 0.85059,-1.628841 0.32715,-0.517996 0.65521,-0.995429 0.98237,-1.431954 0.32716,-0.436208 0.6325,-0.815313 0.91623,-1.137398 0.28372,-0.321767 0.50214,-0.570183 0.65525,-0.745174 0.0979,-0.108735 0.11418,-0.204498 0.0486,-0.286288 -0.0653,-0.08178 -0.1584,-0.122473 -0.27854,-0.122473 -0.10906,0 -0.20162,0.03812 -0.27802,0.114205 -0.6001,0.578547 -1.15131,1.20319 -1.65313,1.874304 -0.50215,0.671114 -0.99826,1.448329 -1.48931,2.332158 0,-0.07608 -0.0435,-0.302736 -0.13074,-0.679029 -0.0875,-0.376609 -0.18315,-0.7854 -0.28681,-1.227315 -0.10367,-0.44223 -0.20482,-0.853784 -0.30282,-1.2361 -0.0983,-0.381682 -0.15803,-0.616333 -0.17983,-0.703833 -0.0219,-0.07608 -0.0629,-0.177287 -0.12248,-0.302824 -0.0602,-0.125219 -0.12905,-0.245744 -0.20515,-0.360185 -0.0764,-0.114442 -0.15827,-0.215324 -0.24547,-0.302824 -0.0875,-0.08718 -0.17428,-0.130741 -0.26148,-0.130741 -0.19655,0 -0.31935,0.104083 -0.36845,0.311092 -0.0491,0.207326 -0.0734,0.408584 -0.0734,0.605131 0,0.633073 0.0435,1.293161 0.13074,1.980758 0.0359,0.28301 0.074,0.554489 0.11369,0.819071 -0.10246,0.137252 -0.23519,0.319189 -0.39946,0.54777 -0.22381,0.310988 -0.46134,0.632455 -0.7121,0.965316 -0.25107,0.332863 -0.49641,0.647041 -0.73639,0.941545 -0.24029,0.294504 -0.43139,0.507278 -0.57309,0.638204 -0.26154,0.228883 -0.47463,0.343648 -0.63821,0.343648 -0.13092,0 -0.23786,-0.08681 -0.31936,-0.261483 -0.0821,-0.174357 -0.11745,-0.480732 -0.10645,-0.917256 0.0108,-0.261851 0.0215,-0.512631 0.0326,-0.752926 0.0105,-0.239978 0.0165,-0.419354 0.0165,-0.539502 0.11983,-0.05453 0.22676,-0.09573 0.31936,-0.12299 0.0929,-0.02695 0.25378,-0.117152 0.48266,-0.270268 0.45871,-0.316377 0.78819,-0.698046 0.99012,-1.145666 0.20194,-0.447303 0.30231,-0.875415 0.30231,-1.284676 0,-0.409263 -0.0926,-0.758367 -0.27802,-1.047482 -0.18576,-0.289114 -0.43603,-0.433565 -0.75241,-0.433565 -0.20733,0 -0.4391,0.071 -0.69557,0.21239 -0.25645,0.142021 -0.52655,0.381918 -0.81028,0.719853 -0.33825,0.393095 -0.61124,0.832605 -0.81856,1.318266 -0.17842,0.41795 -0.31191,0.843527 -0.40152,1.277441 -0.0828,0.115074 -0.1806,0.255915 -0.29404,0.424264 -0.15819,0.234906 -0.31929,0.477882 -0.48318,0.728637 -0.16326,0.251073 -0.32428,0.493851 -0.48214,0.728121 -0.15851,0.234906 -0.29247,0.417361 -0.40152,0.548287 -0.27264,0.316696 -0.51286,0.54591 -0.71986,0.687297 -0.20765,0.142022 -0.38752,0.213424 -0.54001,0.213424 -0.20764,0 -0.36617,-0.120207 -0.47491,-0.360185 -0.10939,-0.239979 -0.17744,-0.551278 -0.20464,-0.933277 -0.0272,-0.381682 -0.0163,-0.804351 0.0331,-1.268139 0.0491,-0.463788 0.12206,-0.91922 0.22066,-1.366842 0.0979,-0.446985 0.22106,-0.85949 0.36845,-1.2361 0.14741,-0.376293 0.30274,-0.668073 0.46664,-0.875399 0.17403,-0.218104 0.33781,-0.327628 0.49093,-0.327628 0.13093,0 0.22095,0.06596 0.26975,0.196887 0.0492,0.130926 0.0739,0.251134 0.0739,0.360185 0.0108,0.185766 0.0762,0.278019 0.19637,0.278019 0.0542,0 0.10901,-0.02733 0.16381,-0.08217 0.0546,-0.05453 0.0925,-0.130967 0.11472,-0.228926 0.0323,-0.207326 -1e-4,-0.430982 -0.0987,-0.671277 -0.0872,-0.185135 -0.21005,-0.324149 -0.36793,-0.417029 -0.15851,-0.09257 -0.33604,-0.139526 -0.53227,-0.139526 -0.28372,0 -0.5784,0.08476 -0.88367,0.253731 -0.30592,0.169602 -0.56769,0.407017 -0.78548,0.712618 -0.19687,0.272629 -0.38476,0.583212 -0.56482,0.932243 -0.18007,0.349345 -0.33571,0.71797 -0.46664,1.105359 -0.114,0.337317 -0.20483,0.682757 -0.27337,1.036629 -0.0203,0.03803 -0.0403,0.07567 -0.062,0.117305 -0.12554,0.240295 -0.26475,0.504953 -0.41755,0.79375 -0.1528,0.289115 -0.3105,0.586654 -0.47439,0.891936 -0.16357,0.305599 -0.32448,0.583817 -0.48266,0.834574 -0.1585,0.251074 -0.30604,0.455727 -0.44235,0.613916 -0.13663,0.158185 -0.25361,0.237195 -0.35191,0.237195 -0.0983,0 -0.16899,-0.09801 -0.21239,-0.294556 -0.0436,-0.196231 -0.0495,-0.529212 -0.0165,-0.998389 0.0545,-0.600103 0.14186,-1.216426 0.262,-1.849499 0.12017,-0.632754 0.17984,-1.243638 0.17984,-1.832963 0,-0.108735 -0.0404,-0.209944 -0.12248,-0.302824 -0.0818,-0.09257 -0.18844,-0.139526 -0.31936,-0.139526 -0.15313,0 -0.32982,0.109207 -0.53175,0.327628 -0.20226,0.218421 -0.3959,0.627213 -0.58136,1.227315 -0.0545,0.174674 -0.10348,0.384769 -0.14728,0.630453 -0.002,0.01279 -0.004,0.02591 -0.007,0.03876 -0.12019,0.277685 -0.25742,0.586822 -0.41858,0.943095 -0.18577,0.408946 -0.38466,0.837889 -0.59738,1.285193 -0.21272,0.447303 -0.42313,0.85929 -0.63046,1.235583 -0.20732,0.376609 -0.40078,0.687393 -0.58084,0.93276 -0.18007,0.245368 -0.3245,0.368453 -0.43356,0.368453 -0.13092,0 -0.20233,-0.179894 -0.21343,-0.540019 0,-0.120148 -0.003,-0.341558 -0.008,-0.663008 -0.006,-0.321766 -0.0115,-0.687313 -0.0165,-1.096574 -0.005,-0.408946 -0.005,-0.842814 0,-1.301213 0.005,-0.458398 0.0167,-0.883829 0.0331,-1.276924 0.0165,-0.392778 0.0379,-0.728321 0.0651,-1.006657 0.0273,-0.278019 0.0687,-0.444355 0.12351,-0.499195 0.27231,-0.381681 0.52608,-0.747227 0.76067,-1.096574 0.23458,-0.349028 0.45281,-0.703893 0.65474,-1.064017 0.20194,-0.360126 0.38728,-0.733156 0.55656,-1.120862 0.16897,-0.387072 0.32954,-0.804816 0.48266,-1.25212 0.22888,-0.687598 0.37079,-1.303605 0.42529,-1.8495 0.0545,-0.545576 0.0412,-1.006769 -0.0403,-1.383378 -0.0821,-0.376293 -0.21607,-0.662315 -0.40153,-0.858862 -0.18544,-0.196544 -0.40398,-0.294556 -0.65474,-0.294556 -0.2292,0 -0.47454,0.08744 -0.73639,0.261483 -0.26154,0.17499 -0.52362,0.441577 -0.78548,0.802018 -0.26185,0.359809 -0.51295,0.818438 -0.75293,1.37511 -0.2403,0.556356 -0.45275,1.222318 -0.6382,1.996778 -0.0986,0.425746 -0.19947,0.935742 -0.30282,1.530139 -0.0673,0.385162 -0.12827,0.791669 -0.18397,1.215429 -0.29792,0.01832 -0.61277,0.05775 -0.94568,0.118856 -0.47457,0.08749 -1.00593,0.17975 -1.59525,0.278019 0,-0.960227 0.0217,-1.909218 0.0651,-2.847888 0.0438,-0.938355 0.0547,-1.887342 0.0331,-2.847888 -0.0222,-1.254732 -0.1882,-2.198795 -0.49919,-2.831868 -0.31099,-0.632755 -0.72862,-0.94878 -1.25264,-0.94878 z m -0.26148,0.94878 c 0.26186,0 0.44699,0.212974 0.55604,0.63872 0.10905,0.42543 0.10905,1.151079 0,2.176612 -0.0437,0.436524 -0.11122,0.916518 -0.20412,1.440222 -0.0926,0.52402 -0.18307,1.055581 -0.27027,1.595768 -0.0872,0.540188 -0.1665,1.072265 -0.2372,1.596285 -0.0713,0.523386 -0.10645,1.004015 -0.10645,1.440222 -0.80775,0.142021 -1.64484,0.28391 -2.51251,0.425297 -0.86734,0.142022 -1.72696,0.273111 -2.57814,0.393258 0.1528,-0.884146 0.36033,-1.729367 0.62219,-2.536796 0.26185,-0.807427 0.54571,-1.549719 0.85163,-2.226221 0.30527,-0.676503 0.61043,-1.276903 0.9157,-1.800924 0.30561,-0.523702 0.57335,-0.938052 0.80254,-1.243335 0.42575,-0.556672 0.82878,-1.012106 1.21078,-1.366841 0.382,-0.354419 0.69874,-0.532267 0.94981,-0.532267 z m 8.0362,1.669665 c 0.12014,0 0.21776,0.08188 0.29456,0.245463 0.0761,0.163578 0.11985,0.398234 0.13125,0.703833 0.0105,0.305601 -0.0249,0.674024 -0.10645,1.104842 -0.0818,0.431136 -0.21556,0.914208 -0.40101,1.449007 -0.21841,0.610882 -0.49652,1.254646 -0.83509,1.931149 -0.33825,0.67682 -0.69835,1.276703 -1.08004,1.800407 0,-0.567134 0.0432,-1.216856 0.13074,-1.948202 0.0872,-0.731029 0.20708,-1.445361 0.36019,-2.144055 0.25076,-1.123489 0.51252,-1.928146 0.78548,-2.413806 0.27262,-0.485346 0.51304,-0.728638 0.72037,-0.728638 z m 2.19315,5.270479 c -0.19655,0 -0.34354,0.0602 -0.44184,0.180351 -0.098,0.11983 -0.14779,0.261719 -0.14779,0.425297 -0.0108,0.142022 0.0356,0.278352 0.13953,0.409278 0.10334,0.1306 0.22623,0.19637 0.36793,0.19637 0.2181,0 0.37087,-0.06277 0.45837,-0.188619 0.0872,-0.125219 0.12574,-0.264229 0.11524,-0.417029 -0.0114,-0.1528 -0.0635,-0.292008 -0.15606,-0.417545 -0.0929,-0.125218 -0.20477,-0.188103 -0.33538,-0.188103 z m 10.14718,1.227316 c 0.13124,0 0.23756,0.08733 0.31936,0.261999 0.0818,0.174356 0.12299,0.343885 0.12299,0.507463 0,0.284041 -0.0383,0.534821 -0.11472,0.752925 -0.0767,0.218421 -0.17472,0.408997 -0.29455,0.572575 -0.0875,0.130926 -0.23451,0.281652 -0.44184,0.450619 -0.20732,0.169284 -0.40365,0.275413 -0.58911,0.318843 0,-0.11983 0.0213,-0.338046 0.0651,-0.65474 0.0437,-0.316378 0.10887,-0.63836 0.19637,-0.965833 0.0875,-0.327155 0.19095,-0.616057 0.3111,-0.86713 0.12014,-0.251074 0.2617,-0.376721 0.42529,-0.376721 z" />
  </g>
  <g
     id="g25185"
     transform="translate(-203.97517,-12.206566)"
     style="display:inline">
    <g
       id="g25121">
      <path
         id="path25117"
         style="display:inline;fill:url(#linearGradient15201);fill-opacity:1;stroke:none;stroke-width:0.0991159px;stroke-linecap:butt;stroke-linejoin:miter;stroke-opacity:1"
         d="m 208.48902,26.693804 c 0.37528,0.428275 1.2304,-0.673825 1.69407,-0.91334 0.19312,-0.09976 0.34363,-0.386154 0.42472,-0.71162 l -0.33703,-0.888369 -0.66752,-0.05995 c -0.0923,0.07424 -0.28377,0.295732 -0.49704,0.545146 -0.21326,0.249414 -0.99249,1.599855 -0.6172,2.028133 z"
         sodipodi:nodetypes="ssccccs" />
      <path
         sodipodi:nodetypes="cccccccc"
         id="path25119"
         d="m 209.5425,24.108879 c 0,0 0.33742,-0.63206 1.00593,-0.345781 0.53543,-0.23937 1.27314,-0.237324 1.27314,-0.237324 l -0.037,0.254132 c 0,0 -0.66928,-0.101845 -1.02092,0.218485 0.2292,0.412575 -0.11044,1.137673 -0.11044,1.137673 -0.17251,-0.292969 -0.57632,-0.454426 -0.38252,-0.955672 -0.25643,0.142293 -0.35678,0.199238 -0.72822,-0.07151 z"
         style="display:inline;fill:#005310;fill-opacity:1;stroke:none;stroke-width:0.00198232;stroke-linecap:butt;stroke-linejoin:miter;stroke-miterlimit:4;stroke-dasharray:none;stroke-opacity:1" />
    </g>
    <g
       id="g25127">
      <path
         sodipodi:nodetypes="ccccccccc"
         id="path25123"
         d="m 244.11195,25.744613 c 0,0 -0.50362,-0.365561 -0.52224,-0.796664 -0.8661,-0.493734 -0.84732,-1.62266 -0.84732,-1.62266 l 0.20374,-0.03918 c 0,0 -0.12978,1.175367 0.74505,1.489625 0.22973,-0.221205 0.89287,-0.205407 0.89287,-0.205407 -0.15971,0.16239 -0.13985,0.420119 -0.58396,0.431526 0.19645,0.106513 0.39575,0.437966 0.11186,0.742758 z"
         style="display:inline;fill:#005310;fill-opacity:1;stroke:none;stroke-width:0.00138866;stroke-linecap:butt;stroke-linejoin:miter;stroke-miterlimit:4;stroke-dasharray:none;stroke-opacity:1" />
      <path
         id="path25125"
         style="display:inline;fill:url(#linearGradient15203);fill-opacity:1;stroke:none;stroke-width:0.0097399;stroke-linecap:butt;stroke-linejoin:miter;stroke-miterlimit:4;stroke-dasharray:none;stroke-opacity:1"
         d="m 244.49987,24.68535 c -0.0881,0.147211 -0.15136,0.30756 -0.49984,0.316513 0.17849,0.09677 0.35807,0.379141 0.17675,0.658579 0.0709,0.05532 0.14985,0.109375 0.2385,0.160869 0.60936,0.353993 1.5421,0.517938 1.64373,0.331033 0.15879,-0.292021 -0.1087,-0.356229 -0.35949,-0.61851 -0.15806,-0.165301 -0.31888,-0.421561 -0.47157,-0.573013 -0.17492,-0.173487 -0.45934,-0.265858 -0.72808,-0.275471 z" />
    </g>
    <g
       id="g25133">
      <path
         sodipodi:nodetypes="ccccccccc"
         id="path25129"
         d="m 242.50506,20.72 c 0,0 -0.80633,-0.289474 -1.48103,-0.01225 -1.1783,-0.590879 -2.27984,-0.06722 -2.27984,-0.06722 l 0.0373,0.246101 c 0,0 1.11997,-0.675043 2.02529,0.04898 -0.23132,0.399539 0.11146,1.101726 0.11146,1.101726 0.1741,-0.283712 0.58165,-0.440068 0.38605,-0.925475 0.2588,0.137798 0.86635,0.123559 1.20075,-0.391866 z"
         style="display:inline;fill:#005310;fill-opacity:1;stroke:none;stroke-width:0.00195975;stroke-linecap:butt;stroke-linejoin:miter;stroke-miterlimit:4;stroke-dasharray:none;stroke-opacity:1" />
      <path
         id="path25131"
         style="display:inline;fill:url(#linearGradient15205);fill-opacity:1;stroke:none;stroke-width:0.0097399;stroke-linecap:butt;stroke-linejoin:miter;stroke-miterlimit:4;stroke-dasharray:none;stroke-opacity:1"
         d="m 242.40643,20.847701 c -0.34448,0.387742 -0.86693,0.38945 -1.10208,0.264244 0.1682,0.417415 -0.10919,0.591684 -0.30103,0.812675 0.1825,0.379867 0.55009,0.772265 0.8663,1.06356 0.3045,0.280509 1.06382,0.516788 1.66368,0.741049 0.53542,0.20017 0.9153,0.422551 1.18281,0.155449 0.27737,-0.276947 0.18134,-0.533552 -0.0134,-0.856812 -0.20346,-0.337799 -0.52421,-0.743874 -1.09124,-1.1077 -0.53176,-0.341197 -0.6636,-0.844386 -1.03413,-1.007807 -0.0575,-0.02536 -0.11446,-0.04609 -0.17094,-0.06466 z" />
    </g>
    <g
       id="g25145">
      <g
         id="g25141"
         transform="matrix(0.37461163,0,0,0.37461163,195.45023,0.82762413)"
         style="display:inline">
        <path
           style="fill:url(#linearGradient15207);fill-opacity:1;stroke:none;stroke-width:0.026;stroke-linecap:butt;stroke-linejoin:miter;stroke-miterlimit:4;stroke-dasharray:none;stroke-opacity:1"
           d="m 102.99079,47.671453 c 0.58298,-2.337254 6.93614,-5.073505 10.58008,-3.603954 3.64394,1.469554 2.73742,6.982588 1.45291,9.278802 -1.57489,2.815299 -5.48843,6.976637 -8.32212,5.710979 -2.83369,-1.265656 -4.57406,-7.925149 -3.71087,-11.385827 z"
           id="path25135" />
        <path
           style="fill:url(#linearGradient15209);fill-opacity:1;stroke:none;stroke-width:0.026;stroke-linecap:butt;stroke-linejoin:miter;stroke-miterlimit:4;stroke-dasharray:none;stroke-opacity:1"
           d="m 103.16928,47.738471 c 0.93104,-2.732191 6.19274,-2.928215 9.86346,-1.888686 1.91179,0.541411 3.53028,0.891117 3.94761,2.42212 0.38395,1.408576 -0.33301,3.976396 -0.90789,5.081183 -0.54063,1.038961 -0.85717,3.587138 -2.72469,4.429942 -2.27679,1.027499 -6.09179,-0.212068 -7.55485,-1.485284 -2.66312,-2.317573 -3.48353,-6.035883 -2.62364,-8.559275 z"
           id="path25137" />
        <path
           style="fill:url(#linearGradient15211);fill-opacity:1;stroke:none;stroke-width:0.026;stroke-linecap:butt;stroke-linejoin:miter;stroke-miterlimit:4;stroke-dasharray:none;stroke-opacity:1"
           d="m 103.93425,47.810806 c 0.49124,-1.187842 6.50013,-1.576308 8.9268,-0.403305 1.14421,0.55309 4.76542,4.228291 4.15316,6.023158 -0.61225,1.794867 -5.76107,2.213793 -7.79836,1.422659 -2.16393,-0.840316 -6.46443,-4.182369 -5.2816,-7.042512 z"
           id="path25139" />
      </g>
      <path
         sodipodi:nodetypes="cccccccc"
         id="path25143"
         d="m 231.0796,18.04924 c 0.82955,-0.03941 1.77991,0.08047 2.78205,0.564877 0.93728,-1.39738 2.47834,-1.236323 2.47834,-1.236323 l -2.24135,1.333216 0.006,1.846124 c -0.22634,-0.54778 -0.4004,-1.095541 -0.31853,-1.561898 -0.82563,-0.470865 -1.69078,-0.755461 -2.75169,-0.778084 z"
         style="display:inline;fill:#005310;fill-opacity:1;stroke:none;stroke-width:0.0991159px;stroke-linecap:butt;stroke-linejoin:miter;stroke-opacity:1" />
    </g>
    <g
       id="g25161">
      <path
         sodipodi:nodetypes="ccccc"
         id="path25147"
         d="m 223.56624,17.91871 c 0.72163,-0.109109 1.37531,-0.251061 2.04583,-0.01809 l 0.0889,-0.24231 c -0.50838,-0.247664 -1.27746,-0.06474 -2.0938,3e-5 z"
         style="display:inline;fill:#005310;fill-opacity:1;stroke:none;stroke-width:0.0991159px;stroke-linecap:butt;stroke-linejoin:miter;stroke-opacity:1" />
      <g
         id="g25159"
         transform="matrix(0.37461163,0,0,0.37461163,195.45023,0.82762413)"
         style="display:inline">
        <path
           style="fill:url(#linearGradient15213);fill-opacity:1;stroke:none;stroke-width:0.065;stroke-linecap:butt;stroke-linejoin:miter;stroke-miterlimit:4;stroke-dasharray:none;stroke-opacity:1"
           d="m 87.609641,48.824211 c -0.419291,1.536607 -0.429855,1.992025 -0.201941,3.748538 0.155339,1.197179 0.24324,2.239761 1.126136,2.644737 2.178299,0.999166 4.800345,-1.75659 5.480625,-2.350265 0.6803,-0.593675 2.223058,-1.775905 2.107416,-3.157564 -0.122742,-1.466493 -0.774471,-5.17716 -2.003751,-5.374806 -1.22927,-0.197644 -3.832106,-0.05651 -4.569346,0.351799 -0.73723,0.40831 -1.551254,2.716048 -1.939139,4.137561 z"
           id="path25149" />
        <path
           style="fill:url(#linearGradient15215);fill-opacity:1;stroke:none;stroke-width:0.065;stroke-linecap:butt;stroke-linejoin:miter;stroke-miterlimit:4;stroke-dasharray:none;stroke-opacity:1"
           d="m 89.336221,45.37825 c 1.15746,1.24473 5.03757,0.850731 6.29896,-0.631066 1.26138,-1.481796 4.748489,-6.31336 1.81877,-8.345646 -2.2995,-1.595119 -5.25248,2.90715 -6.00383,4.080519 -0.75135,1.173371 -3.91075,2.717844 -2.1139,4.896193 z"
           id="path25151" />
        <path
           style="fill:url(#linearGradient15217);fill-opacity:1;stroke:none;stroke-width:0.065;stroke-linecap:butt;stroke-linejoin:miter;stroke-miterlimit:4;stroke-dasharray:none;stroke-opacity:1"
           d="m 87.800224,46.350176 c 0.07249,1.716401 1.024372,2.460414 2.393894,2.436154 0.964795,-0.01709 1.959174,-2.165059 1.580226,-4.185527 -0.368094,-1.962602 -1.2748,-3.043652 -2.83945,-2.0991 -1.56466,0.944552 -1.186979,2.609937 -1.13467,3.848473 z"
           id="path25153"
           sodipodi:nodetypes="sssss" />
        <path
           style="fill:url(#linearGradient15219);fill-opacity:1;stroke:none;stroke-width:0.065;stroke-linecap:butt;stroke-linejoin:miter;stroke-miterlimit:4;stroke-dasharray:none;stroke-opacity:1"
           d="m 85.692839,43.359343 c 0.77022,1.475642 5.47444,-0.235456 6.80586,-3.03796 0.68373,-1.439164 1.61184,-4.023794 0.86232,-6.358935 -0.71003,-2.212116 -2.59838,-4.143801 -4.7369,-3.44001 -1.66571,0.548187 -0.29273,1.249768 -0.0514,2.007288 0.39551,1.241652 0.69217,3.190391 0.13112,4.437166 -0.49995,1.111015 -1.30032,2.346385 -2.09646,3.776521 -0.64236,1.153888 -1.60348,1.791801 -0.91451,2.61593 z"
           id="path25155" />
        <path
           style="fill:url(#linearGradient15221);fill-opacity:1;stroke:none;stroke-width:0.0645178;stroke-linecap:butt;stroke-linejoin:miter;stroke-miterlimit:4;stroke-dasharray:none;stroke-opacity:1"
           d="m 83.734743,41.14393 c 1.273913,0.03282 2.309351,-0.31378 3.185642,0.503593 0.590954,0.551227 1.110084,3.157253 1.210049,4.038632 0.184701,1.628593 0.631206,2.088873 0.245094,3.876996 -0.238623,1.105045 -1.040609,1.796237 -1.708878,2.478947 -0.595593,0.608468 -1.031269,1.270569 -1.705527,1.270569 -1.292534,0 -2.62068,-0.903861 -3.432517,-2.351669 -0.855708,-1.526046 -1.393449,-3.707355 -1.422081,-4.912676 -0.0558,-2.348848 1.364298,-4.56625 3.628218,-4.904392 z"
           id="path25157" />
      </g>
    </g>
    <g
       id="g25167">
      <path
         style="display:inline;fill:#005310;fill-opacity:1;stroke:none;stroke-width:0.00198232;stroke-linecap:butt;stroke-linejoin:miter;stroke-miterlimit:4;stroke-dasharray:none;stroke-opacity:1"
         d="m 223.04216,18.745939 c 0,0 -0.79895,0.298921 -1.46746,0.01262 -0.53543,0.239366 -1.27315,0.237321 -1.27315,0.237321 l 0.037,-0.254133 c 0,0 0.66928,0.101849 1.02092,-0.218481 -0.22919,-0.412575 0.11044,-1.137673 0.11044,-1.137673 0.17251,0.292969 0.57632,0.454422 0.38252,0.955668 0.25643,-0.142293 0.85841,-0.127589 1.18975,0.404655 z"
         id="path25163"
         sodipodi:nodetypes="cccccccc" />
      <path
         id="path25165"
         style="display:inline;fill:url(#linearGradient15223);fill-opacity:1;stroke:none;stroke-width:0.0991159px;stroke-linecap:butt;stroke-linejoin:miter;stroke-opacity:1"
         d="m 224.74617,15.46911 c -0.73403,-0.02982 -2.0871,0.859378 -2.46571,1.237983 -0.23072,0.230719 -0.51819,0.517882 -0.69903,0.82603 0.18773,0.214 0.42998,0.397099 0.27102,0.80822 0.24839,-0.137834 0.82026,-0.126952 1.15706,0.357556 0.21697,-0.07507 0.41633,-0.20601 0.56643,-0.415437 0.53509,-0.746545 2.03779,-2.197198 1.50436,-2.694135 -0.0833,-0.07765 -0.1982,-0.114695 -0.33413,-0.120217 z" />
    </g>
    <g
       id="g1">
      <path
         id="path25169"
         d="m 216.24425,27.446853 c -0.93407,-7.86e-4 -1.79577,-1.384701 -1.90291,-2.084737 -0.10714,-0.700036 -0.19333,-3.795991 1.85603,-3.66337 0.4906,0.03175 0.92346,0.393483 1.19207,0.664234 0.85346,0.860243 0.92389,2.403481 0.80034,3.042849 -0.0854,0.441848 -0.5598,0.812395 -0.97883,1.230697 -0.37817,0.377505 -0.16891,0.810992 -0.9667,0.810327 z"
         style="fill:url(#linearGradient15225);fill-opacity:1;stroke:none;stroke-width:0.0243498;stroke-linecap:butt;stroke-linejoin:miter;stroke-miterlimit:4;stroke-dasharray:none;stroke-opacity:1" />
      <path
         style="fill:url(#linearGradient15227);fill-opacity:1;stroke:none;stroke-width:0.0991159px;stroke-linecap:butt;stroke-linejoin:miter;stroke-opacity:1"
         d="m 215.6349,20.776277 c 0.3772,1.274221 2.20663,2.091835 4.43795,1.653202 2.23132,-0.438633 2.3196,-1.884962 2.04812,-2.439599 -0.27148,-0.554636 -0.94306,-1.462098 -2.79025,-1.21313 -1.84719,0.248969 -4.152,0.458513 -3.69582,1.999527 z"
         id="path25171" />
      <path
         style="fill:url(#linearGradient15229);fill-opacity:1;stroke:none;stroke-width:0.0991159px;stroke-linecap:butt;stroke-linejoin:miter;stroke-opacity:1"
         d="m 215.99465,20.796642 c 0.41933,0.539065 2.8422,0.958868 4.22907,-0.538952 1.38687,-1.497819 0.19035,-1.774577 0.5702,-2.794562 0.37985,-1.019986 0.50112,-1.455305 0.36551,-1.530884 -0.1356,-0.07558 -0.76276,0.217963 -1.83775,0.105437 -1.07498,-0.112526 -2.65371,-0.243975 -2.97543,1.360215 -0.32172,1.60419 -0.74133,2.752684 -0.3516,3.398746 z"
         id="path25173" />
      <path
         style="fill:url(#linearGradient15231);fill-opacity:1;stroke:none;stroke-width:0.0243498;stroke-linecap:butt;stroke-linejoin:miter;stroke-miterlimit:4;stroke-dasharray:none;stroke-opacity:1"
         d="m 211.52003,16.622305 c 0.60718,-0.587067 1.21679,-0.187305 1.83724,-0.0953 1.00601,0.149174 1.74765,-0.04993 2.55633,0.790199 0.51733,0.53744 0.80065,2.82689 -0.0373,3.453663 -0.83798,0.626775 -3.00227,1.04202 -3.72081,-0.322322 -0.30706,-0.583037 -0.4065,-0.981898 -0.59118,-1.595115 -0.22946,-0.761846 -0.71032,-1.587121 -0.0443,-2.231121 z"
         id="path25175" />
      <path
         id="path25177"
         d="m 211.47466,25.655471 c -0.41736,-0.39947 0.15974,-1.203037 0.24233,-1.595456 0.0826,-0.392418 0.003,-2.026534 0.7074,-2.717298 0.78005,-0.764655 2.99884,-1.060687 3.63031,-0.07094 0.63147,0.989747 0.50723,2.542265 0.0272,3.261926 -0.61582,0.923149 -3.9322,1.819862 -4.6072,1.121769 z"
         style="fill:url(#linearGradient15233);fill-opacity:1;stroke:none;stroke-width:0.374612" />
      <path
         id="path25181"
         style="display:inline;fill:#9700da;fill-opacity:1;stroke:none;stroke-width:0.0808183px;stroke-linecap:butt;stroke-linejoin:miter;stroke-opacity:1"
         d="m 215.53703,21.402192 c 0.0956,-0.194269 0.26281,-0.236387 0.48004,-0.01146 0.21722,0.224934 0.26837,0.496888 0.15752,0.546257 -0.11085,0.04937 -0.27294,0.07415 -0.41689,-0.0045 -0.14353,-0.07844 -0.35283,-0.261563 -0.22067,-0.530273 z m 0.55485,-0.541179 c 0.12144,-0.229921 0.33399,-0.279768 0.61005,-0.01356 0.27606,0.266212 0.34105,0.588073 0.20019,0.646502 -0.14087,0.05843 -0.34686,0.08776 -0.52981,-0.0054 -0.1824,-0.09284 -0.44839,-0.309564 -0.28043,-0.627587 z" />
    </g>
  </g>
</svg>
