<svg width="467.839" height="218.801" viewBox="0 0 123.782 57.891" xmlns:xlink="http://www.w3.org/1999/xlink" xmlns="http://www.w3.org/2000/svg">
   <defs>
      <linearGradient id="a">
         <stop offset="0" stop-color="#d597ff" />
         <stop offset="1" stop-color="#fff8fd" />
      </linearGradient>
      <linearGradient id="b">
         <stop offset="0" stop-color="#ab30ff" />
         <stop offset="1" stop-color="#ff87dd" />
      </linearGradient>
      <linearGradient xlink:href="#a" id="d" gradientTransform="scale(.91155 1.09704)" x1="228.61" y1="21.987" x2="231.045" y2="21.987" gradientUnits="userSpaceOnUse" />
      <linearGradient xlink:href="#a" id="e" gradientTransform="scale(1.16771 .85638)" x1="208.956" y1="28.825" x2="210.76" y2="28.825" gradientUnits="userSpaceOnUse" />
      <linearGradient xlink:href="#a" id="f" gradientTransform="scale(1.10888 .9018)" x1="217.339" y1="23.118" x2="220.843" y2="23.118" gradientUnits="userSpaceOnUse" />
      <linearGradient xlink:href="#a" id="g" gradientUnits="userSpaceOnUse" x1="103.117" y1="47.145" x2="116.799" y2="52.615" />
      <linearGradient xlink:href="#a" id="h" gradientUnits="userSpaceOnUse" x1="105.616" y1="54.977" x2="120.368" y2="57.047" />
      <linearGradient xlink:href="#a" id="i" gradientUnits="userSpaceOnUse" x1="103.732" y1="50.968" x2="117.083" y2="50.968" />
      <linearGradient xlink:href="#a" id="j" gradientUnits="userSpaceOnUse" x1="87.227" y1="49.84" x2="96.161" y2="49.84" />
      <linearGradient xlink:href="#a" id="k" gradientUnits="userSpaceOnUse" x1="88.759" y1="41.093" x2="98.628" y2="41.093" />
      <linearGradient xlink:href="#b" id="l" gradientUnits="userSpaceOnUse" x1="87.556" y1="45.531" x2="91.93" y2="45.531" />
      <linearGradient xlink:href="#a" id="m" gradientUnits="userSpaceOnUse" x1="85.422" y1="37.138" x2="93.672" y2="37.138" />
      <linearGradient xlink:href="#a" id="n" gradientUnits="userSpaceOnUse" x1="80.073" y1="47.205" x2="88.56" y2="47.205" />
      <linearGradient xlink:href="#a" id="o" gradientTransform="scale(1.05735 .94576)" x1="209.564" y1="16.355" x2="212.98" y2="16.355" gradientUnits="userSpaceOnUse" />
      <linearGradient xlink:href="#a" id="p" gradientUnits="userSpaceOnUse" x1="50.715" y1="60.487" x2="60.895" y2="62.445" gradientTransform="translate(195.45 .828) scale(.37461)" />
      <linearGradient xlink:href="#a" id="q" gradientUnits="userSpaceOnUse" x1="64.595" y1="57.747" x2="64.537" y2="48.697" gradientTransform="translate(195.45 .828) scale(.37461)" />
      <linearGradient xlink:href="#a" id="r" gradientUnits="userSpaceOnUse" x1="64.241" y1="53.225" x2="60.489" y2="40.626" gradientTransform="translate(195.45 .828) scale(.37461)" />
      <linearGradient xlink:href="#a" id="s" gradientTransform="matrix(.38117 0 0 .36817 195.45 .828)" x1="42.53" y1="43.58" x2="54.076" y2="51.573" gradientUnits="userSpaceOnUse" />
      <linearGradient xlink:href="#a" id="t" gradientTransform="matrix(.371 0 0 .37826 195.45 .828)" x1="45.17" y1="55.905" x2="54.483" y2="63.403" gradientUnits="userSpaceOnUse" />
      <linearGradient xlink:href="#b" id="c" x1="0" y1="28.946" x2="123.782" y2="28.946" gradientUnits="userSpaceOnUse" />
   </defs>
   <path style="-inkscape-stroke:hairline" d="M123.782 0c0 31.972-27.71 57.891-61.89 57.891C27.71 57.891 0 31.972 0 0Z" vector-effect="non-scaling-stroke" fill="url(#c)" />
   <path style="-inkscape-stroke:hairline" d="M119.782 0c0 31.972-25.918 57.891-57.89 57.891C29.918 57.891 4 31.972 4 0Z" vector-effect="non-scaling-stroke" fill="#fff" />
   <path d="M65.212 8.328c-12.896-1.78-24.85 7.126-26.714 19.903-1.866 12.787 7.084 24.613 19.99 26.413 12.408 1.73 24.054-6.45 26.525-18.633-2.547 10.982-13.53 18.19-25.227 16.56-12.386-1.729-21.031-12.697-19.31-24.499C42.198 16.271 53.634 8.104 66.02 9.832c9.071 1.265 16.49 7.613 18.796 16.082-2.267-9.285-10.018-16.248-19.573-17.58a.326.326 0 0 0-.031-.005" fill="#d3f4d5" />
   <path d="M64.528 8.646c-11.566 0-20.942 9.427-20.942 21.056 0 11.63 9.376 21.056 20.942 21.056 7.56 0 14.534-4.097 18.245-10.72-3.74 5.875-10.348 9.452-17.463 9.452-11.338 0-20.528-8.922-20.528-19.927 0-11.005 9.19-19.925 20.528-19.925 6.104 0 11.892 2.637 15.792 7.195a20.902 20.902 0 0 0-16.574-8.186" fill="#d3f4d5" />
   <path d="M82.683 24.258c-2.798-7.543-10.763-14.285-19.6-14.285-11.613 0-19.339 8.128-19.339 20.468 0 11.193 10.054 20.71 21.098 20.71 9.413 0 15.924-5.486 18.794-13.855-2.422 9.899-11.379 17.2-21.649 17.2-12.05 0-21.877-10.161-21.877-22.665 0-12.503 9.668-22.808 22.338-22.808 9.641 0 18.22 6.572 21.105 15.572" fill="none" stroke="#d8b800" stroke-width=".281" stroke-linecap="round" stroke-linejoin="round" />
   <path d="M80.64 39.335c-.96.835-.834 1.946-.834 1.946s1.378.166 2.002-.5c.624-.668 1.194-1.762 1.194-1.762s-1.4-.52-2.361.316zM51.487 51.194c-1.02-.38-2.012-.167-2.012-.167s.838 1.281 1.87 1.556c1.034.276 1.308-.257 1.308-.257s-.147-.752-1.166-1.132zm1.809 1.505s-.996.117-1.49.603c-.495.485-.909 1.221-.909 1.221s1.287.31 1.899-.302c.612-.613.5-1.522.5-1.522zm-2.776-7.316s-.567-.77-1.305-.785c-.8-.016-1.378.58-1.378.58s.542.78 1.38.74c.838-.04 1.303-.535 1.303-.535zm-1.207-2.485c-.453-.641-1.575-.71-1.575-.71s-.274.95.31 1.579c.584.628 1.619.612 1.619.612s.099-.84-.354-1.48zM82.364 21.73s.416-1.796-.803-2.672c-1.22-.876-2.409-.728-2.409-.728s-.323 1.714.827 2.578c1.15.864 2.385.822 2.385.822zm-.759 1.018c-1.06-.09-1.799.22-1.799.22s.434 1.126 1.655 1.207c1.222.082 1.836-.585 1.836-.585s-.633-.752-1.692-.842zm3.218-.236c.37-.789.217-1.721.217-1.721s-.926-.017-1.475.788c-.628.918-.268 2.01-.268 2.01s1.156-.29 1.526-1.077z" fill="#d8b800" />
   <path d="M62.675 35.399a.862.862 0 0 0-.08.004c-.206.02-.438.127-.699.318-.26.192-.542.495-.847.909a7.01 7.01 0 0 0-.621 1.007c-.19.37-.342.73-.456 1.083 0-.106.002-.261.006-.466.003-.205 0-.426-.014-.662a8.071 8.071 0 0 0-.07-.71 2.226 2.226 0 0 0-.172-.618c-.089-.193-.19-.322-.305-.385a.548.548 0 0 0-.315-.081.338.338 0 0 0-.247.122c-.054.07-.045.13.03.18a.332.332 0 0 1 .123.209c.02.092.03.193.03.303.01.581.004 1.15-.019 1.704l-.066 1.665a54.058 54.058 0 0 0-.042 1.681c-.005.566.014 1.154.059 1.765.002.076.04.14.114.187a.368.368 0 0 0 .245.059.409.409 0 0 0 .214-.094.515.515 0 0 0 .157-.267c.047-.163.086-.351.116-.563.03-.212.051-.43.067-.653.015-.222.027-.443.034-.663.008-.22.013-.418.017-.596a4.4 4.4 0 0 1 .132-1.001 9.122 9.122 0 0 1 .804-2.114 6.47 6.47 0 0 1 .544-.868c.239-.327.444-.562.616-.707.172-.144.31-.221.416-.232.105-.01.179.04.222.148a.936.936 0 0 1 .031.44 2.988 2.988 0 0 1-.157.632 4.59 4.59 0 0 1-.334.73 7.783 7.783 0 0 1-.397.623c-.143.201-.288.402-.435.602-.148.2-.294.401-.438.605a5.96 5.96 0 0 0-.392.634c-.105.184-.123.338-.055.464.069.125.192.18.371.161a.822.822 0 0 0 .218-.05.689.689 0 0 1 .195-.048.502.502 0 0 1 .403.126c.11.1.205.231.282.394.077.163.138.348.183.555.044.207.08.412.108.613.027.202.045.386.054.554a110.013 110.013 0 0 1 .038.782c.009.168.024.352.047.555.022.202.056.41.1.625.046.213.107.413.183.598.078.194.177.33.296.407.12.077.242.11.368.097a.743.743 0 0 0 .433-.212 1.41 1.41 0 0 0 .334-.498c.221-.56.419-1.109.595-1.645.125-.383.26-.777.406-1.181.11.072.23.1.356.088.19-.018.357-.123.503-.316a4.17 4.17 0 0 0 .304-.502 11.812 11.812 0 0 0 .284-.587c.053.35.157.622.313.816.167.208.368.3.605.276.163-.016.334-.09.513-.224.178-.133.357-.333.538-.601a11.44 11.44 0 0 0 .382-.614l.056-.099c.017.13.05.248.1.357a.812.812 0 0 0 .285.34.555.555 0 0 0 .641-.01.777.777 0 0 0 .237-.264c.04-.072.093-.162.156-.272.064-.11.109-.192.136-.248a.82.82 0 0 0 .003.27c.015.107.037.213.063.32a2.525 2.525 0 0 0 .186.504.964.964 0 0 0 .32.336.58.58 0 0 0 .359.087.571.571 0 0 0 .302-.13.877.877 0 0 0 .242-.335c.061-.13.124-.284.186-.458.056-.157.11-.315.162-.475l.031.21c.02.124.047.248.08.375.034.126.078.242.131.348a.672.672 0 0 0 .202.26c.08.06.159.086.238.078.131-.013.23-.116.296-.31l.052-.207a28.15 28.15 0 0 0 .166-.734c.025-.12.041-.21.046-.268a.437.437 0 0 0 .165.182.38.38 0 0 0 .258.072c.11-.01.192-.074.245-.19a1.06 1.06 0 0 0 .072-.195c.026-.089.051-.183.077-.281.024-.099.05-.196.078-.293a7.45 7.45 0 0 0 .065-.233 9.45 9.45 0 0 1 .246-.62c.058-.133.116-.252.175-.356.059-.104.107-.158.144-.162.037-.004.056.04.057.132 0 .091-.005.196-.017.315s-.027.237-.045.354c-.017.117-.03.202-.034.256-.021.266-.047.55-.076.847-.03.3-.048.6-.055.904-.008.303.001.602.025.895.023.294.077.57.162.832a.833.833 0 0 0 .211.365c.088.08.176.116.266.107.132-.013.231-.102.3-.268.052-.12.115-.283.19-.487.077-.205.159-.43.25-.677l.278-.77c.096-.267.19-.522.283-.764l.01-.024c.008.04.019.078.03.117.071.229.183.417.335.565a.665.665 0 0 0 .553.191.728.728 0 0 0 .391-.158c.113-.09.21-.198.291-.324.08-.126.145-.257.192-.394.048-.137.083-.259.104-.367.297-.058.55-.179.757-.363a1.94 1.94 0 0 0 .477-.624c.02-.055.022-.096.004-.123-.019-.027-.046-.039-.083-.035-.042.004-.082.03-.12.076a3.855 3.855 0 0 1-.42.507.926.926 0 0 1-.563.283 1.898 1.898 0 0 0-.075-.883 1.457 1.457 0 0 0-.216-.411 1.217 1.217 0 0 0-.345-.316.629.629 0 0 0-.659 0 .818.818 0 0 0-.385.737.46.46 0 0 0 .005.097c.004.012-.016.047-.058.103a1.49 1.49 0 0 0-.23.564 29.77 29.77 0 0 0-.227.57 55.928 55.928 0 0 0-.743 2.046c-.061.182-.11.315-.144.4-.079.224-.131.337-.157.34-.022.002-.034-.04-.037-.126l-.01-.345a9.75 9.75 0 0 1 .054-1.275 16.093 16.093 0 0 0 .092-1.524 8.82 8.82 0 0 0-.025-.87 2.207 2.207 0 0 0-.08-.442.949.949 0 0 0-.155-.32.272.272 0 0 0-.254-.106c-.116.012-.23.094-.342.247a3.198 3.198 0 0 0-.308.52 6.707 6.707 0 0 0-.241.573 6.52 6.52 0 0 1-.164.41 4.324 4.324 0 0 0-.057-.378 1.174 1.174 0 0 0-.058-.189.348.348 0 0 0-.09-.135c-.081-.074-.159-.107-.233-.1-.078.008-.14.058-.184.149-.044.09-.075.18-.093.268-.053.217-.103.43-.148.642-.046.211-.087.425-.124.64-.027.161-.053.243-.08.246-.015.001-.03-.045-.041-.14a12.483 12.483 0 0 1-.03-.272 5.698 5.698 0 0 1-.045-.565 7.766 7.766 0 0 0-.036-.566.822.822 0 0 0-.09-.34c-.044-.07-.094-.103-.152-.097-.084.008-.155.077-.21.208-.057.13-.1.278-.129.442-.016.09-.028.18-.038.268a36.655 36.655 0 0 1-.242.732 12.553 12.553 0 0 1-.323.844 1.48 1.48 0 0 1-.106.18c-.035.049-.074.076-.116.08-.089.009-.166-.092-.229-.302a2.822 2.822 0 0 1-.109-.584 6.623 6.623 0 0 1-.023-.64c.002-.219.01-.438.022-.658.013-.22.02-.43.022-.627.001-.043-.022-.074-.07-.094a.324.324 0 0 0-.157-.02.398.398 0 0 0-.165.056.218.218 0 0 0-.101.15.772.772 0 0 0-.268-.164.812.812 0 0 0-.391-.052.946.946 0 0 0-.622.328c-.1.111-.189.25-.265.416a2.533 2.533 0 0 0-.208.713l-.063.103c-.066.11-.133.224-.201.341-.068.118-.136.23-.202.34a3.23 3.23 0 0 1-.17.26 1.891 1.891 0 0 1-.317.334.519.519 0 0 1-.252.118c-.1.01-.181-.035-.244-.134-.063-.1-.11-.232-.139-.398a2.81 2.81 0 0 1-.039-.555 5.07 5.07 0 0 1 .048-.606c.028-.2.07-.386.125-.558a1.47 1.47 0 0 1 .187-.404c.075-.103.149-.159.222-.166a.13.13 0 0 1 .139.073c.03.054.046.106.051.153.013.08.049.118.107.112.026-.002.051-.017.075-.043a.19.19 0 0 0 .045-.105.5.5 0 0 0-.076-.289.419.419 0 0 0-.195-.164.54.54 0 0 0-.263-.036.956.956 0 0 0-.415.153c-.14.089-.257.205-.349.349a3.327 3.327 0 0 0-.498 1.406l-.023.051-.167.366-.19.412c-.066.141-.132.27-.198.388a2.319 2.319 0 0 1-.186.288c-.06.076-.113.116-.16.12-.048.005-.086-.034-.115-.118-.03-.084-.047-.228-.05-.435 0-.264.015-.537.045-.82.03-.281.034-.55.008-.808a.19.19 0 0 0-.072-.126.207.207 0 0 0-.16-.045c-.074.007-.155.063-.243.167-.088.105-.164.293-.227.564a2.061 2.061 0 0 0-.044.282c-.01.109-.018.223-.022.341a8.357 8.357 0 0 0-.005.354c.001.118.007.224.016.32.018.185.064.338.138.46l-.14.38-.28.788a52.76 52.76 0 0 0-.27.777 35.12 35.12 0 0 1-.243.687c-.112.324-.236.492-.373.506-.174.017-.29-.217-.348-.702a20.745 20.745 0 0 1-.156-1.412 12.527 12.527 0 0 0-.1-.856 5.304 5.304 0 0 0-.228-.94 2.961 2.961 0 0 0-.432-.823 1.391 1.391 0 0 0-.711-.503l.415-.477a7.654 7.654 0 0 0 .75-1.03c.12-.194.235-.41.344-.647a3.73 3.73 0 0 0 .33-1.053c.05-.339.048-.638-.004-.897-.052-.26-.15-.462-.295-.61a.63.63 0 0 0-.468-.19zm15.173 3.13a.388.388 0 0 1 .241.09.958.958 0 0 1 .249.294c.073.127.129.275.167.445.038.169.038.354 0 .555h-.001a.7.7 0 0 1-.263-.075 1.74 1.74 0 0 1-.24-.142 1.173 1.173 0 0 1-.18-.152c-.047-.05-.072-.085-.074-.104a.323.323 0 0 1 .075-.217.331.331 0 0 0 .074-.224c-.008-.08-.044-.126-.106-.137a.668.668 0 0 0-.18-.007c.018-.204.092-.312.223-.325l.015-.001zm-12.55.359h-.024c-.095.01-.164.043-.205.1a.268.268 0 0 0-.053.193c0 .063.029.12.085.172a.231.231 0 0 0 .186.069c.105-.01.176-.045.213-.104a.26.26 0 0 0 .037-.188.326.326 0 0 0-.093-.175.206.206 0 0 0-.147-.067zm5.02.493c.088 0 .177.03.267.088a.439.439 0 0 1-.008.123c-.01.044-.018.086-.024.125a1.774 1.774 0 0 0-.025.193l-.01.138a.507.507 0 0 1-.031.13 1.681 1.681 0 0 1-.086.182l-.332.588c-.091.158-.174.24-.247.247-.069.007-.116-.047-.144-.162a1.448 1.448 0 0 1-.025-.42c.008-.077.024-.182.048-.314a2.46 2.46 0 0 1 .11-.397 1.3 1.3 0 0 1 .188-.35.4.4 0 0 1 .32-.17zm7.329.566c.06.028.154.075.28.142.127.067.292.11.495.128a21.51 21.51 0 0 1-.152.314 1.1 1.1 0 0 1-.196.276c-.073.074-.143.114-.211.121-.08.008-.14-.026-.182-.1a.713.713 0 0 1-.082-.234 1.14 1.14 0 0 1 0-.289c.01-.126.027-.245.048-.358z" fill="#745b00" />
   <path d="M62.605 35.255a.872.872 0 0 0-.081.004c-.206.02-.437.126-.698.317-.26.192-.543.495-.848.91-.225.3-.432.636-.62 1.006-.19.37-.342.73-.456 1.083a24 24 0 0 1 .005-.465 9.127 9.127 0 0 0-.084-1.374 2.222 2.222 0 0 0-.173-.617c-.088-.193-.19-.321-.305-.385a.547.547 0 0 0-.314-.08.333.333 0 0 0-.247.121c-.055.07-.045.13.03.181a.334.334 0 0 1 .124.208c.019.092.03.193.03.304.009.58.003 1.148-.02 1.704l-.067 1.665a53.088 53.088 0 0 0-.04 1.68c-.006.566.013 1.154.057 1.765.002.077.041.14.115.187a.373.373 0 0 0 .245.06.409.409 0 0 0 .214-.094.515.515 0 0 0 .157-.268c.047-.163.086-.35.115-.563.03-.212.052-.43.068-.652.015-.222.027-.444.034-.663.008-.22.013-.419.017-.597.002-.308.045-.642.132-1.001a9.276 9.276 0 0 1 .804-2.113c.175-.33.356-.62.544-.869.239-.326.444-.562.616-.706.172-.144.31-.222.416-.232.105-.01.179.039.221.147.043.11.054.256.032.44a3.015 3.015 0 0 1-.157.633c-.083.237-.194.48-.334.729a7.703 7.703 0 0 1-.397.624c-.142.2-.287.402-.435.601-.148.2-.294.402-.439.606a5.972 5.972 0 0 0-.392.634c-.104.183-.122.337-.054.463.069.125.192.18.371.162a.822.822 0 0 0 .219-.05.676.676 0 0 1 .194-.05.502.502 0 0 1 .403.128c.11.1.204.23.282.393.077.163.138.348.182.555.044.208.08.412.108.614.028.202.047.385.055.553l.018.388.02.395c.008.167.024.352.046.554.023.202.057.41.101.625.046.214.106.413.183.598.078.195.176.33.295.407.12.078.243.11.369.098a.743.743 0 0 0 .433-.213c.137-.126.248-.293.334-.498.22-.56.42-1.108.595-1.645.125-.383.26-.777.406-1.182a.54.54 0 0 0 .356.09c.19-.019.357-.124.503-.317.107-.15.21-.317.305-.502.096-.185.184-.367.265-.546l.019-.04c.052.35.156.621.312.816.167.207.369.298.606.275a1.04 1.04 0 0 0 .512-.224 2.46 2.46 0 0 0 .538-.6 11.841 11.841 0 0 0 .382-.614l.057-.1c.017.13.05.249.1.357a.81.81 0 0 0 .285.34.554.554 0 0 0 .64-.009.777.777 0 0 0 .237-.265l.157-.271c.063-.11.108-.192.134-.248a.831.831 0 0 0 .003.27c.016.106.037.213.063.318a2.62 2.62 0 0 0 .186.505.97.97 0 0 0 .32.336c.119.07.239.1.36.087a.573.573 0 0 0 .302-.13.882.882 0 0 0 .242-.335 5.52 5.52 0 0 0 .186-.458c.056-.157.11-.315.161-.476l.032.212c.02.123.047.248.081.374s.077.243.13.348a.676.676 0 0 0 .201.261c.08.06.16.086.24.078.13-.013.229-.117.295-.311l.051-.207a26.386 26.386 0 0 0 .167-.734 2.9 2.9 0 0 0 .046-.268.44.44 0 0 0 .165.182.38.38 0 0 0 .258.073c.11-.011.192-.075.245-.19a1.09 1.09 0 0 0 .072-.195c.026-.09.051-.183.076-.282.025-.098.051-.196.079-.293.028-.096.05-.173.065-.233a3.6 3.6 0 0 1 .087-.24c.047-.12.1-.246.158-.38.059-.132.117-.251.176-.356.059-.104.107-.158.144-.162.036-.003.056.04.057.132 0 .091-.005.196-.017.315a7.13 7.13 0 0 1-.045.354c-.018.117-.03.203-.034.256-.022.267-.048.55-.076.848-.03.298-.048.6-.055.903a8.57 8.57 0 0 0 .025.896c.024.293.077.57.162.831a.834.834 0 0 0 .211.365c.088.08.176.116.266.107.131-.013.231-.102.3-.268.052-.12.116-.282.191-.487l.248-.677.279-.77c.095-.267.19-.521.283-.764l.01-.022a1.307 1.307 0 0 0 .366.68.665.665 0 0 0 .552.192.73.73 0 0 0 .391-.158c.114-.09.21-.199.29-.324a1.85 1.85 0 0 0 .193-.394c.048-.137.083-.26.103-.368.298-.058.55-.179.758-.363a1.94 1.94 0 0 0 .477-.624c.02-.055.022-.096.004-.123-.02-.027-.047-.038-.084-.035-.042.004-.082.03-.12.077a3.832 3.832 0 0 1-.42.507.925.925 0 0 1-.562.282 1.9 1.9 0 0 0-.076-.883 1.464 1.464 0 0 0-.215-.412 1.213 1.213 0 0 0-.346-.315.628.628 0 0 0-.658 0 .816.816 0 0 0-.386.738c0 .052.001.085.005.096.004.012-.015.046-.057.103-.114.169-.19.356-.229.562-.07.17-.146.359-.228.572a48.844 48.844 0 0 0-.528 1.43c-.082.23-.153.435-.215.616-.062.182-.11.315-.144.4-.079.224-.131.338-.158.34-.021.002-.032-.04-.036-.126l-.01-.345c-.01-.422.008-.847.054-1.274a15.953 15.953 0 0 0 .092-1.524 8.529 8.529 0 0 0-.026-.87 2.18 2.18 0 0 0-.08-.443.951.951 0 0 0-.154-.32.271.271 0 0 0-.254-.105c-.116.011-.23.094-.342.247a3.22 3.22 0 0 0-.308.52 6.716 6.716 0 0 0-.242.572c-.07.188-.124.324-.163.41a2.88 2.88 0 0 0-.057-.377 1.144 1.144 0 0 0-.059-.19.347.347 0 0 0-.09-.135c-.08-.073-.158-.106-.232-.099-.08.008-.14.057-.185.148-.044.09-.075.18-.093.269-.053.216-.102.43-.148.642-.046.211-.087.424-.124.64-.027.16-.053.243-.08.245-.015.002-.03-.045-.042-.14-.012-.095-.021-.185-.03-.27a5.416 5.416 0 0 1-.043-.566 8.425 8.425 0 0 0-.037-.566.824.824 0 0 0-.089-.342c-.044-.07-.095-.102-.153-.096-.084.008-.155.077-.21.208-.057.13-.1.278-.128.442-.017.093-.03.184-.04.274a24.381 24.381 0 0 1-.406 1.183c-.058.148-.11.277-.158.387-.035.071-.07.13-.105.18-.035.049-.074.076-.116.08-.09.01-.166-.092-.23-.302a2.841 2.841 0 0 1-.108-.584 6.568 6.568 0 0 1-.024-.64c.002-.219.01-.438.023-.658.012-.22.02-.428.022-.626 0-.043-.022-.075-.07-.095a.324.324 0 0 0-.157-.02.403.403 0 0 0-.166.056.22.22 0 0 0-.1.151.772.772 0 0 0-.268-.165.816.816 0 0 0-.391-.052.952.952 0 0 0-.622.329c-.1.11-.19.249-.266.415a2.555 2.555 0 0 0-.207.714l-.064.103c-.065.11-.133.223-.201.34-.068.118-.135.231-.202.341-.066.11-.123.196-.17.259a1.88 1.88 0 0 1-.317.334.516.516 0 0 1-.252.118c-.1.01-.181-.035-.244-.134a1.106 1.106 0 0 1-.139-.397 2.844 2.844 0 0 1-.038-.555c.004-.205.019-.407.047-.607s.07-.386.125-.557c.054-.171.117-.306.187-.404.075-.104.149-.16.223-.167a.13.13 0 0 1 .139.073.407.407 0 0 1 .05.154c.013.08.049.118.107.112a.124.124 0 0 0 .076-.044.19.19 0 0 0 .045-.105.5.5 0 0 0-.076-.288.422.422 0 0 0-.196-.165.54.54 0 0 0-.263-.035.96.96 0 0 0-.415.153c-.14.088-.256.204-.349.347a3.338 3.338 0 0 0-.497 1.406l-.024.052a82.824 82.824 0 0 1-.358.778c-.065.142-.13.27-.196.388a2.262 2.262 0 0 1-.187.288c-.06.076-.112.116-.16.121-.047.005-.086-.035-.115-.119a1.56 1.56 0 0 1-.05-.435c0-.264.015-.537.046-.819.03-.282.033-.551.008-.809a.19.19 0 0 0-.073-.126.207.207 0 0 0-.16-.045c-.073.007-.154.063-.242.168-.088.105-.164.292-.228.563a2.061 2.061 0 0 0-.043.282c-.01.11-.019.223-.023.341a8.372 8.372 0 0 0-.005.354c.001.118.007.224.016.32.018.185.064.338.138.459a190.096 190.096 0 0 0-.42 1.17c-.094.264-.185.522-.271.776a31.41 31.41 0 0 1-.243.687c-.112.324-.236.493-.373.506-.173.017-.29-.217-.348-.701a22.095 22.095 0 0 1-.155-1.413 13.5 13.5 0 0 0-.1-.855 5.305 5.305 0 0 0-.229-.94 2.948 2.948 0 0 0-.432-.823 1.394 1.394 0 0 0-.711-.503c.143-.164.282-.323.415-.478a7.766 7.766 0 0 0 .751-1.03 6.35 6.35 0 0 0 .343-.646c.172-.363.282-.715.331-1.054.05-.338.048-.637-.004-.897-.052-.259-.15-.462-.295-.609a.627.627 0 0 0-.468-.192zm15.173 3.129a.388.388 0 0 1 .24.091.952.952 0 0 1 .25.293c.073.127.129.276.167.445.038.17.037.354-.001.555a.695.695 0 0 1-.263-.075 1.721 1.721 0 0 1-.241-.142 1.148 1.148 0 0 1-.179-.152c-.048-.05-.072-.085-.074-.104a.322.322 0 0 1 .075-.216.33.33 0 0 0 .073-.224c-.008-.081-.043-.127-.105-.138a.664.664 0 0 0-.18-.007c.017-.203.091-.312.223-.325l.015-.001zm-12.55.36h-.024c-.095.01-.164.043-.206.1a.269.269 0 0 0-.052.193c0 .062.028.12.084.172a.231.231 0 0 0 .186.068c.105-.01.177-.045.213-.104a.259.259 0 0 0 .037-.188.328.328 0 0 0-.093-.175.208.208 0 0 0-.146-.067zm5.02.493c.088 0 .177.028.266.087a.436.436 0 0 1-.008.123 2.645 2.645 0 0 0-.048.319c-.003.05-.006.097-.01.138a.507.507 0 0 1-.031.129 1.712 1.712 0 0 1-.086.181l-.333.588c-.09.159-.172.241-.246.248-.069.007-.117-.047-.144-.162a1.448 1.448 0 0 1-.025-.42 4.41 4.41 0 0 1 .049-.315c.024-.132.06-.264.108-.395a1.31 1.31 0 0 1 .189-.351.399.399 0 0 1 .32-.17zm7.328.565c.06.028.155.076.281.143.126.066.29.109.495.127a27.62 27.62 0 0 1-.152.314 1.11 1.11 0 0 1-.197.276c-.072.075-.143.115-.211.122-.079.007-.14-.026-.182-.101a.72.72 0 0 1-.082-.234 1.131 1.131 0 0 1 0-.288c.01-.126.027-.246.048-.359z" fill="#d8b800" />
   <path d="M55.443 16.565c-.884 0-1.958.829-3.224 2.487-.753.982-1.438 2.205-2.054 3.667a23.044 23.044 0 0 0-1.4 4.73c-.174.033-.384.076-.63.13a20.607 20.607 0 0 0-1.456.401 6.65 6.65 0 0 0-.565.205c-.24.11-.407.21-.5.303-.092.093-.138.175-.138.245 0 .072.03.126.09.165.06.038.112.051.155.04.099-.022.26-.065.483-.13l.753-.221c.278-.082.565-.162.86-.238.294-.076.555-.13.784-.164-.087.6-.193 1.22-.319 1.858-.125.639-.245 1.283-.36 1.932a42.424 42.424 0 0 0-.294 1.931 16.952 16.952 0 0 0-.14 1.857c0 .219.033.383.099.492.065.109.142.163.23.163.086 0 .173-.052.26-.155.088-.104.153-.26.197-.466.033-.175.082-.454.148-.836.065-.382.139-.818.22-1.309.083-.49.17-1.007.263-1.547a579.772 579.772 0 0 1 .507-2.922c.07-.403.128-.708.172-.916.021-.13.038-.212.049-.245.01-.033.07-.06.18-.082.851-.142 1.702-.278 2.554-.41a68.01 68.01 0 0 0 2.47-.425 99.664 99.664 0 0 0-.024 3.822 49.78 49.78 0 0 0 .164 3.544c.092 1.09.229 2.043.409 2.856.18.813.417 1.405.712 1.776.087.12.194.204.32.254a1 1 0 0 0 .368.073.768.768 0 0 0 .54-.213c.152-.142.218-.349.196-.622a815.22 815.22 0 0 1-.245-2.872 87.968 87.968 0 0 1-.189-2.758 68.346 68.346 0 0 1-.04-6.187c.272-.077.57-.145.891-.205.322-.06.647-.117.974-.172.216-.036.43-.066.644-.095l-.006.046a42.583 42.583 0 0 0-.18 2.12c-.044.726-.057 1.43-.04 2.11.016.683.064 1.324.146 1.924.082.6.205 1.108.368 1.523.12.294.276.51.467.646.19.136.395.205.613.205.197 0 .391-.052.582-.156.19-.104.352-.26.482-.466.12-.186.268-.44.442-.761.175-.322.357-.677.549-1.064.19-.387.384-.788.58-1.203l.158-.335c-.006.129-.01.252-.01.367 0 .612.13 1.084.393 1.416.262.333.567.5.916.5.393 0 .759-.203 1.097-.606.251-.316.494-.673.728-1.072a26 26 0 0 0 .655-1.179l.047-.09c.037.806.196 1.448.477 1.923.3.508.695.762 1.186.762.338 0 .704-.131 1.097-.393s.802-.676 1.228-1.244c.109-.142.245-.33.41-.565.163-.234.328-.483.498-.745.087-.136.174-.268.259-.398-.004.18 0 .36.011.538.033.485.115.916.246 1.292.13.377.308.68.532.909.223.23.488.344.794.344.218 0 .447-.06.687-.18.24-.12.496-.316.77-.59.185-.174.406-.425.662-.752a50.207 50.207 0 0 0 1.514-2.046l.125-.18.071.392c.11.579.208 1.061.295 1.449.087.387.131.597.131.63a5.36 5.36 0 0 1-.434.663 12.522 12.522 0 0 1-1.342 1.522 4.058 4.058 0 0 1-.696.548c-.13.088-.21.17-.237.246-.027.076-.027.142 0 .196a.341.341 0 0 0 .139.14.367.367 0 0 0 .18.057c.033 0 .055-.006.066-.016.316-.12.695-.4 1.137-.836.442-.436.92-1.009 1.432-1.718.054.273.164.617.328 1.032.163.414.362.818.597 1.21.235.393.496.729.785 1.007.29.278.587.418.892.418.208 0 .415-.082.623-.246.207-.164.403-.436.589-.818.153-.306.363-.745.63-1.318.267-.573.542-1.17.826-1.792l.819-1.792c.262-.573.464-1.018.606-1.334.065-.131.07-.23.016-.295a.265.265 0 0 0-.213-.098c-.153 0-.262.06-.327.18-.153.272-.355.673-.606 1.202-.251.53-.51 1.086-.777 1.67a199.5 199.5 0 0 1-.778 1.678 36.79 36.79 0 0 1-.589 1.211c-.153.295-.278.521-.376.68-.099.158-.192.237-.279.237-.087 0-.182-.102-.286-.303a5.142 5.142 0 0 1-.303-.761 20.716 20.716 0 0 1-.295-1.015c-.098-.37-.185-.723-.261-1.056a56.6 56.6 0 0 1-.197-.883 7.177 7.177 0 0 1-.098-.516c.24-.567.524-1.11.851-1.629.327-.518.655-.995.982-1.432.327-.436.633-.815.917-1.137l.654-.745c.098-.11.115-.205.05-.287a.336.336 0 0 0-.279-.122.38.38 0 0 0-.278.114c-.6.579-1.151 1.203-1.653 1.874a20.587 20.587 0 0 0-1.49 2.332c0-.076-.044-.302-.13-.679l-.287-1.227a61.493 61.493 0 0 0-.303-1.236l-.18-.704a2.99 2.99 0 0 0-.328-.663 2.001 2.001 0 0 0-.245-.303c-.087-.087-.175-.13-.262-.13-.196 0-.319.104-.368.31-.05.208-.074.41-.074.606 0 .633.044 1.293.132 1.98.036.284.074.555.113.82-.102.137-.235.319-.4.547-.223.311-.461.633-.712.966-.251.333-.496.647-.736.941-.24.295-.432.508-.573.639-.262.228-.475.343-.638.343-.131 0-.238-.087-.32-.261-.081-.175-.117-.48-.106-.917l.033-.753c.011-.24.016-.42.016-.54a2.32 2.32 0 0 1 .32-.123c.092-.027.253-.117.482-.27.458-.317.788-.698.99-1.146.202-.447.303-.875.303-1.285 0-.409-.093-.758-.278-1.047-.186-.29-.437-.434-.753-.434-.207 0-.44.071-.696.213-.256.142-.526.382-.81.72a5.041 5.041 0 0 0-.819 1.318 6.684 6.684 0 0 0-.401 1.279c-.083.115-.18.255-.294.423-.158.234-.32.477-.483.728-.163.251-.324.494-.482.728a6.975 6.975 0 0 1-.401.549c-.273.316-.513.546-.72.687-.208.142-.388.213-.54.213-.208 0-.367-.12-.475-.36-.11-.24-.178-.551-.205-.933a7.19 7.19 0 0 1 .033-1.268c.049-.464.122-.92.22-1.367.098-.447.221-.86.369-1.236.147-.377.303-.668.466-.876.174-.218.339-.327.492-.327.13 0 .22.066.27.197.049.13.074.25.074.36.01.186.075.278.195.278.055 0 .11-.027.164-.082a.458.458 0 0 0 .115-.23 1.25 1.25 0 0 0-.098-.67.926.926 0 0 0-.369-.418 1.035 1.035 0 0 0-.532-.139c-.284 0-.578.085-.884.254a2.38 2.38 0 0 0-.785.712 8.033 8.033 0 0 0-1.305 3.074l-.062.118a169.845 169.845 0 0 1-.891 1.686 13.59 13.59 0 0 1-.484.834 5.2 5.2 0 0 1-.441.615c-.137.158-.254.236-.352.236-.099 0-.17-.098-.213-.294-.044-.197-.05-.53-.016-.999.054-.6.14-1.216.261-1.85a9.82 9.82 0 0 0 .18-1.832.45.45 0 0 0-.122-.303.407.407 0 0 0-.32-.14c-.152 0-.33.11-.532.328-.201.218-.395.628-.58 1.228a5.221 5.221 0 0 0-.148.63l-.006.037a65.496 65.496 0 0 1-1.017 2.23c-.213.447-.423.86-.63 1.235a8.607 8.607 0 0 1-.581.934c-.18.245-.325.368-.434.368-.13 0-.202-.18-.212-.54 0-.12-.003-.342-.008-.663-.006-.322-.012-.688-.017-1.097a56.395 56.395 0 0 1 0-1.301c.006-.459.017-.884.033-1.277.017-.393.038-.728.066-1.007.027-.278.068-.444.123-.499.272-.382.526-.747.76-1.096.235-.35.453-.704.655-1.064.202-.36.387-.734.557-1.121.169-.387.33-.805.483-1.252.229-.688.37-1.304.425-1.85.054-.546.041-1.007-.04-1.383-.082-.377-.216-.663-.402-.86a.874.874 0 0 0-.655-.294c-.229 0-.474.088-.736.262-.262.175-.524.442-.786.802-.262.36-.513.818-.753 1.375a12.31 12.31 0 0 0-.638 1.997 29.335 29.335 0 0 0-.486 2.745 7.942 7.942 0 0 0-.946.119c-.474.088-1.006.18-1.596.278 0-.96.022-1.91.066-2.848a42.09 42.09 0 0 0 .033-2.848c-.023-1.254-.189-2.199-.5-2.832-.311-.632-.728-.948-1.252-.948zm-.262.948c.262 0 .448.213.557.64.109.425.109 1.15 0 2.176-.044.436-.112.916-.205 1.44-.093.524-.183 1.056-.27 1.596-.087.54-.166 1.072-.237 1.596a10.736 10.736 0 0 0-.107 1.44c-.807.142-1.644.284-2.512.426-.867.142-1.727.273-2.578.393.153-.884.36-1.73.622-2.537.262-.807.546-1.55.852-2.226.305-.677.61-1.277.916-1.801.305-.524.573-.938.802-1.243.426-.557.83-1.013 1.211-1.367.382-.355.698-.533.95-.533zm8.037 1.67c.12 0 .217.082.294.246.076.163.12.398.131.703a5.13 5.13 0 0 1-.106 1.105c-.082.431-.216.914-.401 1.45-.218.61-.497 1.254-.835 1.93a12.638 12.638 0 0 1-1.08 1.8c0-.566.043-1.216.13-1.947.088-.73.208-1.446.361-2.144.251-1.124.513-1.929.785-2.414.273-.486.513-.729.72-.729zm2.193 5.27c-.197 0-.344.06-.442.18a.65.65 0 0 0-.147.426.575.575 0 0 0 .139.41.46.46 0 0 0 .368.196c.218 0 .37-.063.458-.189a.63.63 0 0 0 .115-.417.788.788 0 0 0-.156-.417c-.093-.126-.204-.188-.335-.188zm10.147 1.228c.132 0 .238.088.32.262.082.175.122.344.122.507 0 .284-.038.535-.114.753-.077.219-.175.41-.295.573a2.22 2.22 0 0 1-.442.45c-.207.17-.404.276-.589.32 0-.12.022-.338.066-.655a7.91 7.91 0 0 1 .195-.966c.088-.327.192-.616.312-.867s.262-.377.425-.377z" fill="#745b00" />
   <path d="M55.373 16.42c-.884 0-1.959.829-3.225 2.487-.753.983-1.437 2.205-2.054 3.667a23.044 23.044 0 0 0-1.4 4.73c-.174.033-.384.076-.63.13a13.63 13.63 0 0 0-.744.19 23.98 23.98 0 0 0-.712.212c-.224.071-.412.14-.565.204-.24.11-.407.211-.5.304-.092.092-.138.174-.138.245 0 .071.03.125.09.164.06.038.112.052.155.04.098-.021.26-.065.483-.13l.753-.221c.278-.082.565-.161.86-.238.294-.076.556-.13.785-.164-.087.6-.194 1.22-.32 1.859a99.82 99.82 0 0 0-.359 1.93 41.5 41.5 0 0 0-.295 1.932 16.96 16.96 0 0 0-.139 1.858c0 .218.033.382.098.491.065.109.142.163.23.163.086 0 .174-.051.261-.155.087-.104.152-.259.196-.466.033-.175.082-.453.148-.835.065-.382.14-.818.22-1.31a297.593 297.593 0 0 1 .533-3.11l.237-1.358c.07-.404.128-.71.172-.916.022-.131.038-.213.05-.246.01-.033.07-.06.18-.082.85-.142 1.701-.278 2.552-.409a68.077 68.077 0 0 0 2.472-.426 99.26 99.26 0 0 0-.024 3.822 49.5 49.5 0 0 0 .163 3.544 22.01 22.01 0 0 0 .41 2.856c.18.813.417 1.405.712 1.776.087.12.193.205.319.254.125.049.248.073.368.073a.77.77 0 0 0 .54-.213c.153-.142.218-.349.196-.621a931.559 931.559 0 0 1-.245-2.873 89.33 89.33 0 0 1-.189-2.758 69.36 69.36 0 0 1-.09-2.897c-.01-1.004.007-2.1.05-3.29.273-.076.57-.144.892-.204.322-.06.646-.118.974-.172.216-.036.43-.067.644-.096l-.006.046a42.583 42.583 0 0 0-.18 2.12 24.97 24.97 0 0 0-.042 2.111c.017.682.066 1.323.148 1.924.082.6.204 1.107.368 1.522.12.294.276.51.467.646.19.137.395.205.613.205.197 0 .39-.052.581-.155.19-.104.352-.26.483-.467.12-.186.268-.439.442-.76.175-.323.357-.678.549-1.065.19-.387.384-.788.58-1.203.055-.115.105-.224.157-.335a7.98 7.98 0 0 0-.009.368c0 .61.131 1.083.393 1.416.262.333.568.499.917.499.393 0 .758-.202 1.096-.606a9.44 9.44 0 0 0 .729-1.072c.235-.399.452-.79.654-1.178.016-.03.03-.06.047-.09.037.806.196 1.447.477 1.923.3.507.696.76 1.187.76.338 0 .703-.13 1.096-.392.393-.262.802-.676 1.228-1.244a23.367 23.367 0 0 0 .908-1.309l.259-.4c-.004.182 0 .36.011.539.033.485.115.916.246 1.293.131.376.308.679.531.908.224.23.489.344.794.344.219 0 .448-.06.688-.18.24-.12.496-.316.77-.59.185-.174.405-.425.662-.752a47.029 47.029 0 0 0 1.514-2.046l.125-.18a43.25 43.25 0 0 0 .365 1.841c.088.387.132.597.132.63a5.358 5.358 0 0 1-.434.663 12.519 12.519 0 0 1-1.342 1.522 4.059 4.059 0 0 1-.696.549c-.13.087-.21.169-.237.245-.027.076-.027.142 0 .196a.345.345 0 0 0 .139.14.365.365 0 0 0 .18.057c.033 0 .055-.005.066-.016.316-.12.695-.4 1.137-.835.442-.437.92-1.01 1.432-1.719.055.273.164.616.327 1.031.164.415.363.819.598 1.212.234.392.496.728.785 1.006.29.278.587.417.892.417.207 0 .416-.081.623-.245.207-.163.403-.436.588-.818.153-.306.363-.745.63-1.318.268-.573.543-1.17.827-1.792l.819-1.792c.262-.573.464-1.018.605-1.334.066-.131.071-.23.017-.295a.266.266 0 0 0-.213-.098c-.153 0-.262.06-.328.18a21.19 21.19 0 0 0-.605 1.203c-.25.53-.51 1.086-.778 1.67-.267.583-.526 1.143-.777 1.677-.251.535-.448.939-.59 1.212-.152.294-.278.52-.376.679-.098.158-.19.237-.278.237-.088 0-.183-.101-.286-.303a5.15 5.15 0 0 1-.303-.761 20.715 20.715 0 0 1-.295-1.015c-.098-.37-.185-.722-.262-1.055a57.771 57.771 0 0 1-.196-.884 7.078 7.078 0 0 1-.098-.516c.24-.567.523-1.11.85-1.629.328-.518.656-.995.983-1.432.327-.436.633-.815.916-1.137l.656-.745c.098-.109.114-.205.048-.286a.336.336 0 0 0-.278-.123.38.38 0 0 0-.278.114c-.6.579-1.152 1.204-1.653 1.875a20.588 20.588 0 0 0-1.49 2.332c0-.076-.043-.303-.13-.68l-.287-1.227a61.633 61.633 0 0 0-.303-1.236l-.18-.703a2.133 2.133 0 0 0-.122-.303 2.994 2.994 0 0 0-.206-.36 2.001 2.001 0 0 0-.245-.303c-.088-.088-.174-.131-.262-.131-.196 0-.319.104-.368.311a2.57 2.57 0 0 0-.073.605c0 .633.043 1.293.13 1.98.036.284.074.555.114.82-.102.137-.235.32-.4.548a55.09 55.09 0 0 1-.712.965c-.25.333-.496.647-.736.942-.24.294-.431.507-.573.638-.262.229-.475.343-.638.343-.131 0-.238-.086-.32-.261-.082-.174-.117-.48-.106-.917.01-.262.021-.513.033-.753.01-.24.016-.42.016-.54a2.48 2.48 0 0 1 .32-.123c.092-.027.253-.117.482-.27.459-.316.788-.698.99-1.146.202-.447.303-.875.303-1.284 0-.41-.093-.759-.279-1.048-.185-.289-.436-.433-.752-.433-.207 0-.439.07-.695.212-.257.142-.527.382-.81.72a5.044 5.044 0 0 0-.82 1.318 6.694 6.694 0 0 0-.4 1.278c-.084.115-.181.256-.295.424-.158.235-.32.478-.483.729-.163.25-.324.493-.482.728a7.043 7.043 0 0 1-.402.548c-.272.317-.513.546-.72.687-.207.142-.387.214-.54.214-.207 0-.366-.12-.475-.36-.109-.24-.177-.552-.204-.934a7.203 7.203 0 0 1 .033-1.268c.05-.464.122-.92.22-1.367.099-.447.222-.86.37-1.236.146-.376.302-.668.466-.875.174-.218.338-.328.49-.328.132 0 .222.066.27.197.05.13.074.251.074.36.011.186.076.278.197.278.054 0 .109-.027.163-.082a.458.458 0 0 0 .115-.229 1.25 1.25 0 0 0-.099-.671.925.925 0 0 0-.367-.417 1.037 1.037 0 0 0-.533-.14c-.283 0-.578.085-.883.254-.306.17-.568.407-.786.713a8 8 0 0 0-1.305 3.074l-.062.117a173.179 173.179 0 0 1-.892 1.686 13.32 13.32 0 0 1-.482.834 5.225 5.225 0 0 1-.443.614c-.136.158-.253.237-.352.237-.098 0-.169-.098-.212-.294-.044-.196-.05-.53-.016-.998.054-.6.141-1.217.262-1.85.12-.633.18-1.244.18-1.833a.45.45 0 0 0-.123-.303.407.407 0 0 0-.32-.14c-.153 0-.33.11-.531.328-.202.219-.396.628-.582 1.228a5.232 5.232 0 0 0-.147.63l-.007.039c-.12.278-.257.587-.418.943-.186.409-.385.838-.598 1.285-.213.447-.423.86-.63 1.236a8.65 8.65 0 0 1-.581.933c-.18.245-.325.368-.434.368-.13 0-.202-.18-.213-.54 0-.12-.003-.342-.008-.663-.006-.322-.012-.687-.017-1.097a56.395 56.395 0 0 1 0-1.3c.005-.46.017-.885.034-1.278.016-.393.037-.728.065-1.006.027-.278.068-.445.123-.5.272-.381.526-.747.76-1.096.235-.35.454-.704.656-1.064.201-.36.387-.733.556-1.121.17-.387.33-.805.483-1.252.229-.688.37-1.304.425-1.85.055-.545.041-1.006-.04-1.383-.082-.376-.216-.662-.402-.859a.872.872 0 0 0-.655-.294c-.229 0-.474.087-.736.261-.261.175-.524.442-.785.802-.262.36-.513.818-.753 1.375a12.31 12.31 0 0 0-.639 1.997 28.7 28.7 0 0 0-.302 1.53c-.068.385-.129.792-.184 1.215a7.95 7.95 0 0 0-.946.12c-.475.087-1.006.18-1.595.277 0-.96.021-1.909.065-2.848.044-.938.055-1.887.033-2.847-.022-1.255-.188-2.2-.5-2.832-.31-.633-.728-.95-1.252-.95zm-.262.949c.262 0 .447.213.556.638.11.426.11 1.152 0 2.177-.044.437-.111.917-.204 1.44-.093.524-.183 1.056-.27 1.596a59.99 59.99 0 0 0-.237 1.596 10.736 10.736 0 0 0-.107 1.44c-.808.143-1.645.284-2.512.426-.868.142-1.727.273-2.579.393.153-.884.36-1.73.623-2.537.261-.807.545-1.55.851-2.226.306-.676.61-1.277.916-1.8.306-.525.573-.939.802-1.244.426-.557.83-1.012 1.211-1.367.382-.354.699-.532.95-.532zm8.036 1.67c.12 0 .218.081.295.245.076.163.12.398.131.704.01.305-.025.674-.106 1.105a10.4 10.4 0 0 1-.401 1.449c-.219.61-.497 1.254-.835 1.93a12.667 12.667 0 0 1-1.08 1.801c0-.567.043-1.217.13-1.948.087-.731.207-1.445.36-2.144.251-1.124.513-1.928.786-2.414.273-.485.513-.729.72-.729zm2.193 5.27c-.196 0-.343.06-.441.18a.652.652 0 0 0-.148.426.576.576 0 0 0 .14.409c.103.13.226.196.367.196.218 0 .371-.063.459-.188a.634.634 0 0 0 .115-.417.79.79 0 0 0-.156-.418c-.093-.125-.205-.188-.336-.188zm10.148 1.227c.13 0 .237.088.319.262.082.175.123.344.123.508 0 .284-.038.534-.115.753a2.188 2.188 0 0 1-.294.572 2.222 2.222 0 0 1-.442.45c-.207.17-.404.276-.59.32 0-.12.022-.338.066-.655a7.96 7.96 0 0 1 .196-.966c.088-.327.191-.616.311-.867s.262-.377.426-.377z" fill="#d8b800" />
   <path d="M208.489 26.694c.375.428 1.23-.674 1.694-.914.193-.1.344-.386.425-.711l-.337-.889-.668-.06c-.092.075-.284.296-.497.546-.213.25-.992 1.6-.617 2.028z" transform="translate(-165.723 -10.248)" fill="url(#d)" />
   <path d="M43.819 13.861s.338-.632 1.006-.346c.536-.24 1.274-.237 1.274-.237l-.037.254s-.67-.102-1.021.218c.229.413-.11 1.138-.11 1.138-.173-.293-.577-.454-.383-.956-.257.143-.357.2-.729-.071zm34.57 1.636s-.504-.366-.522-.797c-.866-.494-.848-1.623-.848-1.623l.204-.039s-.13 1.175.745 1.49c.23-.221.893-.206.893-.206-.16.163-.14.42-.584.432.197.106.396.438.112.743z" fill="#005310" />
   <path d="M244.5 24.685c-.088.148-.151.308-.5.317.179.097.358.379.177.658.07.056.15.11.238.161.61.354 1.542.518 1.644.331.159-.292-.109-.356-.36-.618-.158-.165-.318-.422-.471-.573-.175-.174-.46-.266-.728-.276z" transform="translate(-165.723 -10.248)" fill="url(#e)" />
   <path d="M76.782 10.472s-.806-.29-1.481-.012c-1.178-.591-2.28-.067-2.28-.067l.037.246s1.12-.675 2.026.049c-.232.4.111 1.101.111 1.101.174-.283.582-.44.386-.925.26.138.867.123 1.201-.392z" fill="#005310" />
   <path d="M242.406 20.848c-.344.387-.867.39-1.102.264.169.417-.109.592-.3.813.182.38.55.772.866 1.063.304.28 1.063.517 1.663.741.536.2.916.423 1.183.156.277-.277.181-.534-.013-.857a3.336 3.336 0 0 0-1.092-1.108c-.531-.341-.663-.844-1.034-1.008a1.86 1.86 0 0 0-.17-.064z" transform="translate(-165.723 -10.248)" fill="url(#f)" />
   <path d="M102.99 47.671c.584-2.337 6.937-5.073 10.58-3.604 3.645 1.47 2.738 6.983 1.454 9.28-1.575 2.815-5.489 6.976-8.322 5.71-2.834-1.265-4.574-7.925-3.711-11.386z" transform="translate(29.727 -9.42) scale(.37461)" fill="url(#g)" />
   <path d="M103.17 47.738c.93-2.732 6.192-2.928 9.863-1.888 1.912.541 3.53.89 3.947 2.422.384 1.408-.333 3.976-.908 5.081-.54 1.039-.857 3.587-2.724 4.43-2.277 1.028-6.092-.212-7.555-1.485-2.663-2.318-3.484-6.036-2.624-8.56z" transform="translate(29.727 -9.42) scale(.37461)" fill="url(#h)" />
   <path d="M103.934 47.81c.491-1.187 6.5-1.576 8.927-.402 1.144.553 4.765 4.228 4.153 6.023-.612 1.795-5.76 2.213-7.798 1.422-2.164-.84-6.465-4.182-5.282-7.042z" transform="translate(29.727 -9.42) scale(.37461)" fill="url(#i)" />
   <path d="M65.357 7.802c.83-.04 1.78.08 2.782.564.937-1.397 2.478-1.236 2.478-1.236l-2.241 1.333.006 1.846c-.227-.548-.4-1.095-.319-1.562-.826-.47-1.69-.755-2.752-.778zm-7.514-.131c.722-.11 1.376-.251 2.046-.018l.089-.243c-.508-.247-1.277-.064-2.094 0z" fill="#005310" />
   <path d="M87.61 48.824c-.42 1.537-.43 1.992-.202 3.749.155 1.197.243 2.24 1.126 2.644 2.178 1 4.8-1.756 5.48-2.35.68-.593 2.224-1.776 2.108-3.157-.123-1.467-.775-5.178-2.004-5.375-1.23-.198-3.832-.057-4.57.352-.736.408-1.55 2.716-1.938 4.137z" transform="translate(29.727 -9.42) scale(.37461)" fill="url(#j)" />
   <path d="M89.336 45.378c1.158 1.245 5.038.851 6.3-.63 1.26-1.483 4.748-6.314 1.818-8.346-2.3-1.596-5.253 2.907-6.004 4.08-.751 1.173-3.91 2.718-2.114 4.896z" transform="translate(29.727 -9.42) scale(.37461)" fill="url(#k)" />
   <path d="M87.8 46.35c.073 1.717 1.025 2.46 2.394 2.436.965-.017 1.96-2.165 1.58-4.185-.368-1.963-1.274-3.044-2.84-2.1-1.564.945-1.186 2.61-1.134 3.85z" transform="translate(29.727 -9.42) scale(.37461)" fill="url(#l)" />
   <path d="M85.693 43.36c.77 1.475 5.474-.236 6.806-3.039.683-1.439 1.612-4.023.862-6.359-.71-2.212-2.598-4.143-4.737-3.44-1.666.549-.293 1.25-.051 2.008.395 1.241.692 3.19.13 4.437-.5 1.11-1.3 2.346-2.096 3.776-.642 1.154-1.603 1.792-.914 2.616z" transform="translate(29.727 -9.42) scale(.37461)" fill="url(#m)" />
   <path d="M83.735 41.144c1.274.033 2.31-.314 3.185.504.591.55 1.11 3.157 1.21 4.038.185 1.629.632 2.089.246 3.877-.24 1.105-1.041 1.796-1.71 2.48-.595.608-1.03 1.27-1.705 1.27-1.292 0-2.62-.904-3.432-2.352-.856-1.526-1.394-3.707-1.422-4.913-.056-2.349 1.364-4.566 3.628-4.904z" transform="translate(29.727 -9.42) scale(.37461)" fill="url(#n)" />
   <path d="M57.319 8.498s-.799.299-1.467.013c-.536.239-1.273.237-1.273.237l.037-.254s.669.102 1.02-.219c-.229-.412.11-1.137.11-1.137.173.293.577.454.383.955.257-.142.859-.127 1.19.405z" fill="#005310" />
   <path d="M224.746 15.47c-.734-.03-2.087.858-2.466 1.237-.23.23-.518.518-.699.826.188.214.43.397.271.808.249-.137.82-.127 1.158.358a1.14 1.14 0 0 0 .566-.416c.535-.746 2.038-2.197 1.504-2.694a.505.505 0 0 0-.334-.12z" transform="translate(-165.723 -10.248)" fill="url(#o)" />
   <path d="M216.244 27.447c-.934 0-1.796-1.385-1.903-2.085-.107-.7-.193-3.796 1.856-3.663.491.031.924.393 1.192.664.854.86.924 2.403.8 3.043-.085.442-.559.812-.978 1.23-.378.378-.169.812-.967.81z" transform="translate(-165.723 -10.248)" fill="url(#p)" />
   <path d="M215.635 20.776c.377 1.274 2.207 2.092 4.438 1.653 2.231-.438 2.32-1.884 2.048-2.44-.272-.554-.943-1.461-2.79-1.212-1.847.249-4.152.458-3.696 2z" transform="translate(-165.723 -10.248)" fill="url(#q)" />
   <path d="M215.995 20.797c.419.539 2.842.959 4.229-.54 1.387-1.497.19-1.774.57-2.794.38-1.02.501-1.455.365-1.53-.135-.076-.762.217-1.837.105-1.075-.113-2.654-.244-2.976 1.36-.321 1.604-.741 2.753-.351 3.399z" transform="translate(-165.723 -10.248)" fill="url(#r)" />
   <path d="M211.52 16.622c.607-.587 1.217-.187 1.837-.095 1.006.15 1.748-.05 2.557.79.517.538.8 2.827-.038 3.454-.838.627-3.002 1.042-3.72-.322-.308-.583-.407-.982-.592-1.596-.23-.761-.71-1.587-.044-2.23z" transform="translate(-165.723 -10.248)" fill="url(#s)" />
   <path d="M211.475 25.655c-.418-.399.16-1.203.242-1.595.083-.392.003-2.027.707-2.717.78-.765 3-1.061 3.63-.071.632.99.508 2.542.028 3.262-.616.923-3.932 1.82-4.607 1.121z" transform="translate(-165.723 -10.248)" fill="url(#t)" />
   <path d="M49.814 11.154c.096-.194.263-.236.48-.011.217.225.268.497.158.546a.476.476 0 0 1-.417-.005c-.144-.078-.353-.261-.221-.53zm.555-.541c.121-.23.334-.28.61-.014.276.267.341.589.2.647a.645.645 0 0 1-.53-.005c-.182-.093-.448-.31-.28-.628z" fill="#9700da" />
</svg>